<?xml version="1.0" encoding="utf-8"?>
<!-- Generator: Adobe Illustrator 21.0.0, SVG Export Plug-In . SVG Version: 6.00 Build 0)  -->
<svg version="1.1" id="Layer_1" xmlns="http://www.w3.org/2000/svg" xmlns:xlink="http://www.w3.org/1999/xlink" x="0px" y="0px"
	 viewBox="0 0 1366 768" style="enable-background:new 0 0 1366 768;" xml:space="preserve">
<style type="text/css">
	.st0{fill:#FF101C;stroke:#85FFFC;stroke-miterlimit:10;}
	.st1{fill:#435EFF;}
	.st2{fill:#ED1C24;}
	.st3{fill:#2E5BFF;}
	.st4{fill:#2E65FF;}
	.st5{fill:none;stroke:#000000;stroke-miterlimit:10;}
	.st6{fill:#49A047;stroke:#000000;stroke-miterlimit:10;}
	.st7{fill:none;stroke:#231F20;stroke-linecap:round;stroke-miterlimit:10;}
	.st8{fill:none;stroke:#000000;stroke-linecap:round;stroke-miterlimit:10;}
	.st9{fill:#E6E7E8;stroke:#231F20;stroke-linecap:round;stroke-miterlimit:10;}
	.st10{fill:#FFFFFF;stroke:#231F20;stroke-linecap:round;stroke-miterlimit:10;}
</style>
<path class="st0" d="M742.1,645.7c-3.7-0.9-7.3-1.7-10.6-3.7c-5.9,2.7-10.7,7.3-16.1,10.6c-7,4.3-14.4,8.2-21.1,13
	c-0.9,0.7-2,0.8-2.8,0.6c-0.8,0.8-1.6,1.4-2.4,2.2c-2.2,2.1-5.2,0.8-6.1-1.4c-0.3,0.2-0.4,0.3-0.7,0.4c-0.1-0.3-0.3-0.8-0.3-1.1
	c-0.4-1.4-1.2-2.8-2-4c0.7-1.3,1.3-2.5,1.9-3.7c-0.3-7-1.4-14-3.1-20.8c-1.2-5.3-2.6-10.8-2.3-16.2c-0.7-0.1-1.3-0.2-2-0.2
	c-0.9,0-1.9,0.2-2.8,0.3c-1.4,7.6-6.1,13.4-10.3,19.8c-0.1,0.1-0.1,0.2-0.2,0.3c-0.6,1.9-1.1,3-2,4.8c-2.4,4.8-5.2,9.6-7.6,14.4
	c-1.8,2-3.7,3.9-5.6,5.9c0.2,5.3-1.8,10.2-4.2,14.9c-0.3,11.4-7.3,20.7-11.3,31.1c0.6,0.8,1.2,1.7,2,2.5c2.9,3,7,4.5,10.6,6.1
	c4.2,1.9,8.5,3.6,12.8,5.2c6.5,2.3,13.2,4.2,20,5.6c0.5-0.3,1.2-0.6,2-0.7c8.9-0.2,17.5,2.8,26.4,2.8c2.7-0.2,5.5-0.4,8.2-1
	c6.3-1.4,12.4-3.7,18.7-4.7c2.1-1.8,3.4-4.2,4-7c-0.5-3.1-1-6.3-1.6-9.3c-1.1-1.7-2.6-3.1-4.7-3.8c0.3-9.3-0.8-18.8-3.1-27.9
	c0.2-0.4,0.4-0.9,0.6-1.4c0.3-0.5,0.5-1,0.8-1.4c-0.2-0.5-0.2-1.1-0.1-1.7c1-6.4,2.5-13.8,7.1-18.7c1.8-1.9,3.9-3,6.3-3.9
	C741.4,651,742.1,648.5,742.1,645.7L742.1,645.7C742.1,645.7,742.1,645.7,742.1,645.7z"/>
<path class="st1" d="M481.1,709c-0.6,0.4-1.2,0.6-1.7,0.6c-1.2,0.8-2.4,1.7-3.4,2.8c-0.3,0.3-0.5,0.6-0.8,0.8
	c-3.5-1.5-7.5-1.5-10.7,1c-0.9,0.6-1.8,1.3-2.7,1.8c0.3-0.2-2,0.8-2.2,0.9c-1,0.4-2,0.6-3.1,0.8c-0.5,0.1-1.9,0.4-1.8,0.4
	c-5.2,0.7-10.4,0.9-15.6,1.7c-4.7,0.7-9.1,2-13.6,3.4c-2.7-0.9-5.6-1.2-8.5-1.1c-1.4,0-2.6,0.3-4,0.4c-0.6,0.1-5.3-0.1-3.1,0.3
	c-3.5-0.6-7-0.2-9.8,1.6c-5.5-0.6-11-1.3-16.5-2.3c-7.9-1.5-15.5-2.8-23.3-2.9c-0.8-0.5-1.7-0.9-2.5-1.2c-2.1-0.9-4.3-1.6-6.5-2.2
	c-0.6-0.2-1.2-0.4-1.8-0.6c-1.4-1.1-2.9-2.3-4.4-3.4c-3-2.3-6.3-2.6-9.3-1.6c-1.7-1-3.6-1.8-5.6-2.5c-1.1-0.4-2.1-0.5-3.1-0.5v0.1
	c0,0.3,0,0.5,0,0.6c0,0.1,0,0.2,0,0.3c0.3,4.9,0.5,9.8,0.7,14.7c0.1,1.1,0.2,2.3,0.3,3.4c1.2,0.6,2,1.7,2.1,3.5
	c0.2,6.8,1.3,13.4,0.3,20.2c-0.5,3.6-1.4,7-2.4,10.4c2.3,3.3,5.9,5.6,10.2,5.6c16.8-0.1,33.5-0.1,50.4-0.2c12.8,0,27.4,1,40.3-2.8
	c3.8,0.5,7.7,0.8,11.5,1c7.1,0.4,14.2-0.3,21.2-1.5c3.1-0.6,6.3-1.3,9.3-2.2c1.8-0.6,3.6-1.2,5.4-1.8c0.1,0,0.3-0.1,0.3-0.1
	c5.2,1.4,10.9-2.2,13.4-7.1c-2-9.5-1.4-18.9-0.4-28.9c0.2-1.4,0.8-2.4,1.6-3c0.4-5.7,0.9-11.3,1.6-17c-0.6,0-1.2,0.1-1.8,0.1
	C487.7,704.6,484.3,706.8,481.1,709z"/>
<g>
	<g>
		<path class="st2" d="M398.5,553.1c-0.3,1.3-1,2.4-2,3.3c0.8,0.3,1.4,0.6,2.2,0.9c0.2-2.2,0.4-4.4,0.8-6.6
			c-0.8-0.1-1.7-0.3-2.5-0.3c-0.3,2.9-0.9,5.3-2.2,7.8c0.8,0.1,1.5,0.2,2.3,0.3c-0.7-3.1-0.8-6.2-0.6-9.4c-0.8,0-1.7,0-2.5,0
			c0.2,3.3-0.3,6.4-1.6,9.4c0.8,0.1,1.7,0.3,2.5,0.3c-0.3-2.4-0.1-4.3,0.8-6.6c-0.8-0.3-1.6-0.4-2.5-0.7c-0.8,3.3-1.7,6.6-2.5,9.9
			c-0.3,0.8,0.6,2,1.5,1.5c1.3-0.4,2-0.9,2.6-2.1c0.8-1.3-0.9-2.4-2-1.5c-1.3,1.1-1.9,2-2.3,3.7c-0.3,1.2,1.3,2.1,2.1,1.3
			c8.5-8.7,22.4-3.6,32.6-1.4c1.2,0.3,2.2-1.2,1.3-2.1c-1.4-1.4-3.5-2-4.8-3.4c-2.5-2.6-1.4-5.7-2.2-8.8c-0.8,0.3-1.5,0.7-2.3,1
			c1.4,2.9,2.7,5.8,4.2,8.7c0.6,1.4,2.7,0.4,2.3-1c-0.7-2.3-1.2-4.5-1.7-6.8c-0.8,0.3-1.5,0.7-2.3,1c1.2,2.5,2.1,5,2.9,7.6
			c0.8-0.3,1.5-0.7,2.3-1c-1.1-2.1-2.2-4.2-3.3-6.3c-0.5-0.9-1.7-0.7-2.2,0c-0.5,0.7-0.6,1.2-0.7,2c-0.1,1.7,0.8,2.3-1,2.8
			c-1.7,0.4-4.8-0.5-6.5-0.7c-2.7-0.2-5.5-0.1-8.2,0.1c0.1,0.8,0.3,1.7,0.3,2.5c4.8-1.4,9.5-1.7,14.4-0.8c1.6,0.3,2.3-2.1,0.7-2.5
			c-7-1.4-14-1.8-21.1-1.2c-1.3,0.1-1.7,1.6-0.7,2.4c2.2,1.5,4.5,1.4,7,1c4.3-0.7,8.7-1.7,13.1-2.5c1.2-0.3,1.3-2.2,0-2.5
			c-5.7-0.9-11.5-1.4-17.2-1c0,0.8,0,1.7,0,2.5c3.7-0.3,7.3-0.8,10.9-1.4c2.4-0.4,4.7-0.5,6-2.6c-0.7,0.1-1.4,0.2-2,0.3
			c0.1,0.5,0.3,1.1,0.3,1.6c0.8,0,1.4,0,2.2,0c0.3-0.4,0.6-0.8,0.8-1.3c0.6,0.3,1.4,0.2,1.8-0.4c1-2-0.4-4.2-2.8-3.9
			c-1,0.1-1.4,0.7-2.3,1c-1.8,0.8-3.2,1.2-5.1,1.4c-4.7,0.7-8.8,0.5-13.2-1.2c-0.8-0.3-1.6,0.5-1.6,1.2c-0.1,2.1,0.3,3.7,1.1,5.6
			c0.4,0.9,1.8,0.8,2.2,0c0.5-0.8,0.3-1.3,0.4-2.1c0.1-0.3-0.6-1.2-0.4-1.4c0.6-1.4,4-0.4,4.8-0.3c1.4,0.3,2.3-1.5,1-2.3
			c-2.4-1.4-4.5-2-7.2-1.7c-1,0.1-1.5,1-1.1,2c1.8,3.6,4.7,5.9,8.5,7c1.6,0.5,2.2-2,0.7-2.5c-3.2-0.9-5.4-2.9-7-5.9
			c-0.3,0.7-0.8,1.3-1.1,2c2.3-0.2,4,0.2,5.9,1.4c0.3-0.8,0.7-1.5,1-2.3c-2-0.4-5.7-1.4-7.4,0.3c-1.6,1.5,0.7,3.4-0.2,4.8
			c0.8,0,1.4,0,2.2,0c-0.7-1.4-0.9-2.8-0.8-4.3c-0.5,0.4-1.1,0.8-1.6,1.2c3.9,1.5,7.7,2,11.9,1.5c1.7-0.2,3.4-0.3,5-0.7
			c0.8-0.2,4.7-1.3,5-2c0.6-0.2,1.2-0.3,1.8-0.4c-3.4-1.6-6.5,1.4-4.3,4.8c0.5,0.7,1.8,0.9,2.2,0c0.8-1.9,0.6-3.2-0.8-4.8
			c-0.6-0.6-1.6-0.4-2,0.3c-0.9,1.5-5.3,1.6-6.7,1.9c-2.6,0.4-5.3,0.8-8,0.9c-1.6,0.2-1.7,2.6,0,2.5c5.6-0.3,11,0,16.6,0.9
			c0-0.8,0-1.6,0-2.5c-2.9,0.6-5.7,1.1-8.6,1.7c-3.1,0.6-6.8,2-9.6,0.1c-0.3,0.8-0.4,1.6-0.7,2.4c6.9-0.5,13.7-0.2,20.4,1.1
			c0.3-0.8,0.4-1.6,0.7-2.5c-5.4-0.8-10.5-0.6-15.8,0.8c-1.4,0.4-1.1,2.5,0.3,2.5c3.3-0.2,6.6-0.2,9.9,0c2,0.2,4.9,1.2,7,0.5
			c3.6-1.2,0.4-4.2,1.9-6.1c-0.8,0-1.4,0-2.2,0c1.1,2.1,2.2,4.2,3.3,6.3c0.7,1.3,2.7,0.4,2.3-1c-0.8-2.9-1.8-5.6-3.1-8.2
			c-0.7-1.4-2.6-0.3-2.3,1c0.5,2.3,1.1,4.6,1.7,6.8c0.8-0.3,1.5-0.7,2.3-1c-1.4-2.9-2.7-5.8-4.2-8.7c-0.6-1.4-2.7-0.3-2.3,1
			c0.8,2.8-0.5,5.9,1.4,8.5c1.6,2.2,4.4,3,6.3,4.8c0.4-0.7,0.8-1.4,1.3-2.1c-11.2-2.4-25.8-7.5-35.2,2c0.7,0.4,1.4,0.8,2.1,1.3
			c0.6-0.8,1.1-1.7,1.7-2.5c-0.7-0.5-1.4-1-2-1.5c-0.3,0.3-0.8,0.6-1.1,0.9c0.5,0.5,1,1,1.5,1.5c0.8-3.3,1.7-6.6,2.5-9.9
			c0.4-1.6-1.9-2.2-2.5-0.7c-0.9,2.5-1.2,4.7-0.8,7.3c0.2,1.4,2,1.7,2.5,0.3c1.4-3.3,1.9-6.5,1.7-10.1c-0.1-1.6-2.5-1.6-2.5,0
			c-0.3,3.5,0,6.7,0.7,10.1c0.3,1,1.9,1.3,2.3,0.3c1.5-2.9,2.3-5.9,2.6-9.1c0.1-1.4-2.2-1.8-2.5-0.3c-0.4,2.5-0.8,4.8-0.9,7.3
			c-0.1,1.1,1.4,1.7,2.2,0.9c1.3-1.4,2-2.6,2.6-4.4C401.5,552.1,399,551.4,398.5,553.1L398.5,553.1z"/>
	</g>
</g>
<g>
	<g>
		<path class="st2" d="M386.9,574.1c4.1-4,8.9-6.6,14.4-8.1c1.6-0.4,0.9-2.9-0.7-2.5c-5.9,1.4-11.2,4.4-15.6,8.7
			C384,573.4,385.8,575.2,386.9,574.1L386.9,574.1z"/>
	</g>
</g>
<g>
	<g>
		<path class="st2" d="M382,575.1c0,0.8,0.1,1.5,0.1,2.3c0.4-0.4,0.8-0.8,1.3-1.3c0.4-0.5,0.9-0.9,1.4-1.4c0.6-0.1,1.1-0.3,1.7-0.4
			c0.8-0.3,0.9-0.3,1.8-0.9c-0.6-0.6-1.2-1.2-1.8-1.8c-1.6,2.3-2.5,4.5-3.1,7.3c0.6-0.3,1.3-0.5,1.9-0.8c-0.1-0.2-0.2-0.3-0.3-0.4
			c-0.6,0.5-1.3,0.9-1.9,1.4c3.9,2.8,7.6-6.3,9-8.4c0.7-1-0.7-2.5-1.8-1.8c-0.3,0.3-0.8,0.5-1.1,0.8c0.4,0.8,0.8,1.4,1.3,2.2
			c1.5-1.1,3.1-2.2,4.7-3.3c-0.5-0.7-1-1.4-1.5-2c-1.7,1.6-3.5,3.1-5.2,4.8c0.6,0.6,1.2,1.2,1.8,1.8c3.6-3.5,7.7-6.2,12.4-7.9
			c2.8-1,5.8-2,8.7-0.8c1.4,0.6,2.7,1.5,4.2,2.1c2,0.8,4.3,0.9,6.3,2c2,1.1,3.1,3.2,4.2,5.2c1.1,2,2.6,5.5,5.3,6.1
			c5.6,1.2,2.1-7.8,0.6-9.7c-4.8-6-14.5-8.1-21.5-10c-1.6-0.4-2.2,1.9-0.7,2.5c7.9,3,14.7,8.2,19.7,15c0.6-0.6,1.2-1.2,1.8-1.8
			c-2.3-1.6-3.4-3.7-3.4-6.5c-0.8,0.3-1.4,0.6-2.2,0.9c2.2,1.9,3.6,4,4.2,6.9c0.3,1.6,2.8,0.9,2.5-0.7c-0.7-3.3-2.3-5.9-4.8-8
			c-0.8-0.7-2.2-0.3-2.2,0.9c0,3.7,1.6,6.6,4.7,8.7c1,0.7,2.5-0.7,1.8-1.8c-5.4-7.5-12.6-12.9-21.2-16.2c-0.3,0.8-0.4,1.6-0.7,2.5
			c3.7,1,7.6,2.2,11.2,3.7c3.1,1.2,11,4.2,10.7,8.6c-0.3,4.2-2.6-0.8-3.1-1.8c-0.5-1-1-2-1.6-3c-1.3-2-2.9-3.3-5.1-4.2
			c-1.6-0.6-3.3-0.8-4.8-1.4c-1.9-0.7-3.4-1.9-5.3-2.5s-3.6-0.5-5.5-0.1c-6.6,1.4-12.7,5.1-17.6,9.8c-1.2,1.1,0.6,2.9,1.8,1.8
			c1.7-1.6,3.5-3.1,5.2-4.8c1-0.9-0.3-2.9-1.5-2c-1.5,1.1-3.1,2.2-4.7,3.3c-1.4,0.9-0.1,3.1,1.3,2.2c0.3-0.3,0.8-0.5,1.1-0.8
			c-0.6-0.6-1.2-1.2-1.8-1.8c-0.3,0.6-4.8,8-5.5,7.5c-1-0.8-2,0.5-1.9,1.4c0.2,1.2,0.4,1.4,1.4,2c0.7,0.3,1.7,0.1,1.9-0.8
			c0.4-2.5,1.4-4.6,2.8-6.7c0.8-1-0.7-2.4-1.8-1.8c-2,1.3-5.9,1.2-6.5,4.2c-0.3,2,1.1,3.4,3,3.3c0.7,0,1.3-0.6,1.3-1.3
			c0-0.8-0.1-1.5-0.1-2.3C384.5,573.4,381.9,573.4,382,575.1L382,575.1z"/>
	</g>
</g>
<path class="st3" d="M1005.9,708.6c-0.5,0.3-1,0.4-1.5,0.7c0.2-0.2,0.3-0.4,0.5-0.6c2.5-3.4,2.1-7.3-0.3-10.5c0.6-0.7,1-1.4,1.4-2.1
	c1.5-3-0.3-5.9-3-6.5c0.8-0.2,0.4-1.4-0.4-1.2c-6.1,1-11.7,3.5-17.5,5.6c-2,0.5-4.2,1-6.2,1.4c-3.9,0.8-7.9,1.5-11.8,2
	c-3.7,0.2-7.5,0.1-11.2,0.1c-16.6,0.1-33.5-0.5-49.5-5.4c-0.8-0.3-1.1,1-0.3,1.2c0.3,0.1,0.5,0.2,0.8,0.3c-0.2,0.1-0.3,0.2-0.5,0.3
	c-0.2,0-0.3-0.1-0.4-0.1c-1.2-0.3-2.3-0.3-3.1,0.2c0,0.2,0.1,0.3,0.1,0.5c0,2.4,0,4.8-0.7,7.2c0.1,0.1,0.1,0.1,0.2,0.2
	c-1.3,2.1-2,4.4-2.3,7.1c-0.1,0.5,0,1,0.2,1.4c2.2,1.1,4.4,2.1,6.9,2.3c0.2-0.1,0.3-0.3,0.5-0.4c13.4,3,27.6,5,41.5,4.8
	c2.3,0.1,4.7,0.1,7,0.2c9.1,0.1,18.4,0.3,27.5-0.5c8.1-0.8,15.5-3.7,22.8-7C1007.3,709.5,1006.6,708.3,1005.9,708.6z M911.7,695.1
	c-0.1-0.1-0.1-0.2-0.2-0.3c1.5,0.3,3.1,0.7,4.6,1C914.6,695.6,913.1,695.4,911.7,695.1z"/>
<path class="st3" d="M1011.2,729.1c-0.3-1.7-2.5-3.5-4.3-3.3c-2,0.3-4.1,0.5-6.2,0.8c2.8-0.5,5.7-1.1,8.5-1.6
	c0.8-0.2,0.4-1.4-0.3-1.2c-19,3.7-38,7.4-57.4,8.3c-18.7,0.9-37.3-0.4-55.9-1.8c-0.8-0.1-0.8,1.2,0,1.3c0.9,0.1,2,0.2,2.9,0.2
	c-2,0.2-3.8,1.5-3.5,4.2c0.3,1.7,0.2,2.9-0.4,4.5c-2,5.4,6.7,7.7,8.6,2.4c0.3-0.8,0.9-1.2,1.7-1.2c2.1-6.8,10.7-6.8,16.9-6.2
	c7.3-0.1,14.5-0.4,21.9-0.9c3.6-0.3,12.7-1.2,12.6,4.5c0,0.1,0,0.1,0,0.2c0.6,1,1,2.3,1.1,3.7c0.1,0,0.1,0,0.2,0
	c12.3,0,24.6,0,36.9,0c2.8,0,5.6,0,8.4,0c2.4,0,5,0.3,7-1.1C1014,739,1011.8,733.1,1011.2,729.1z M901.7,732.5
	c-0.4-0.3-0.9-0.4-1.4-0.6c0.7,0.1,1.4,0.1,2.1,0.2C902,732.1,901.8,732.3,901.7,732.5z M935.8,733.7c2,0,4,0,5.9,0
	C939.8,733.7,937.7,733.7,935.8,733.7z"/>
<path class="st3" d="M950.7,739.5c-0.1,0-0.2,0-0.3-0.1c-0.9-0.1-2-0.2-2.9-0.2c0.3,0.2,0.6,0.3,0.8,0.5c0.1,0,0.2,0,0.3,0
	C949.3,739.8,950,739.7,950.7,739.5z"/>
<path class="st3" d="M998.6,673.2c1.4-3.4-0.8-8.2-2.7-11.8c1-2.6-0.3-6.3-4-6.3c-0.2,0-0.3,0-0.5,0c0.3-0.3,0.5-0.4,0.8-0.7
	c0.6-0.5-0.3-1.4-0.9-0.9c-2,1.7-4,3.3-6,4.8c-1.9,0.7-3.7,1.5-5.5,2.5c-1,0.5-1.7,1.3-2,2.1c-0.3,0.2-0.7,0.3-1,0.4
	c-5.4,2.2-11,3.5-16.6,4c-0.5,0-1,0-1.6,0c-12.8-0.1-25.8-1.5-37.5-7c-0.8-0.3-1.4,0.8-0.7,1.1c-0.1,0-0.2,0-0.3,0
	c-3,0-4.4,2.5-4.3,4.8c-1.4,1-2,3-1.6,4.7c-1.2,1.2-1.5,3.1-1,4.7c-0.4-0.2-0.8-0.3-1.1-0.5c-0.8-0.3-1.4,0.8-0.7,1.1
	c0.9,0.4,1.9,0.8,2.8,1.1c0.7,0.8,1.8,1.3,3.1,1.3c0.3,0,0.7,0,1,0c4.1,1,8.3,1.5,12.6,2c8.4,0.8,16.8,1.6,25.3,1.7
	c6.7,0.1,13.4-0.3,20-1.3c6.6-0.8,14.2-2,19.9-5c0.7-0.4,1.3-0.8,1.7-1.4c0.3-0.2,0.6-0.3,0.9-0.4C999.1,674,999,673.4,998.6,673.2z
	 M924.3,663.6c-0.3-0.2-0.7-0.3-1-0.5c0,0-0.1,0-0.1-0.1c-0.1-0.1-0.2-0.2-0.2-0.3c1.3,0.5,2.5,1,3.8,1.4
	C926,664,925.2,663.8,924.3,663.6z"/>
<path class="st4" d="M952.9,534.1c-0.4-1.1-0.3-0.8-1.3-1.4c-0.7-0.3-1.8-0.4-3-0.5c-1.3-0.7-2.8-1.1-4.6-1.1c-1,0-2,0.2-2.8,0.4
	c-0.8-0.1-1.5-0.2-2.2-0.3c-6.9-0.8-14.3-1.6-20.6,1.8c-5.1,2.7-7.7,7.8-8.4,13.4c-0.5,4.8,0.1,9.7,1,14.6
	c-0.3,4.8,0.7,9.2,2.5,13.8c1.4,9.8,2.4,19.6,2.5,29.5c0,0.3,0.3,0.6,0.5,0.6c-0.8,3.4,3.1,4.6,5.9,4c4.1-0.8,8.1-2.7,11.7-5
	c2.6-0.5,4.8-2.2,6.2-4.7c1.7-1.5,3.4-3.2,4.2-5.5c1.1-3.7,0.4-8.4,1-12.3c0.3-2,0.5-3.9,0.7-5.9c1.1-4.2,1.8-8.6,2.5-12.9
	c0.3-3.4,0.9-6.8,1.7-10.1c0.9-4.2,1.4-8.6,2.5-12.7c0-0.3-0.1-0.7-0.1-1C953.2,536.9,953.3,535.2,952.9,534.1z"/>
<g>
	<g>
		<path d="M431.9,605.5c11.3-1.3,23,2.2,31.3,10c7.8,7.3,13.2,17.7,17.6,27.3c9.3,20.5,12.7,43.3,9.2,65.6c-0.3,1.6,2.2,2.3,2.5,0.7
			c3.7-23.5,0.1-47.4-10.1-68.9c-4.8-10.2-10.6-21.1-19.4-28.4c-8.6-7-20-10.1-31.1-8.9C430.3,603.1,430.3,605.6,431.9,605.5
			L431.9,605.5z"/>
	</g>
</g>
<g>
	<g>
		<path d="M386.7,603.8c-12.5-1.4-22.9,3.3-33.2,9.9c-1.6,1-2.8,2-3.9,3.7c-2.7,4.2-5.2,8.6-7.7,12.9
			c-14.1,24.1-20.2,52.1-15.8,79.7c0.3,1.6,2.7,0.9,2.5-0.7c-4.2-26.5,1.5-53.2,14.8-76.4c2.5-4.3,5.2-8.6,7.7-12.9
			c1-1.8,2-2.9,3.7-4.1c9.9-6.4,19.9-10.9,31.9-9.5C388.3,606.5,388.3,603.9,386.7,603.8L386.7,603.8z"/>
	</g>
</g>
<g>
	<g>
		<path d="M389.7,604.8c-0.4-8.1-1-16.6,1.7-24.4c2.5-7.2,8.9-14.3,17-14.6c8.2-0.4,14.5,6.6,17.2,13.8c2.9,7.9,2.4,16.6,2.5,24.8
			c0,1.6,2.5,1.6,2.5,0c-0.3-9.7,0.4-20.2-4.2-29.1c-3.5-6.7-10.1-12.3-18-12.1c-7.7,0.3-14.4,6-17.7,12.7c-4.6,8.8-4,19.3-3.5,28.9
			C387.2,606.4,389.7,606.5,389.7,604.8L389.7,604.8z"/>
	</g>
</g>
<g>
	<g>
		<path d="M392.7,608.6c4.2,3.5,8.8,7.1,14.4,8c6.4,0.8,12.1-2.5,17.2-5.6c0.7-0.4,0.1-1.5-0.7-1.1c-4.7,2.8-9.7,5.9-15.3,5.6
			c-5.8-0.3-10.6-4.2-14.9-7.7C393,607.2,392,608.1,392.7,608.6L392.7,608.6z"/>
	</g>
</g>
<g>
	<g>
		<path d="M391.4,613.1c7.1,11.1,21.8,13.4,32.1,5.1c0.7-0.5-0.3-1.4-0.9-0.9c-9.6,7.8-23.4,5.5-30.1-4.8
			C392,611.7,390.9,612.4,391.4,613.1L391.4,613.1z"/>
	</g>
</g>
<g>
	<g>
		<path d="M393.6,609.7c0.1,1.7,0.1,3.4-0.2,5.1c-0.1,0.8,1.2,0.8,1.3,0c0.2-1.7,0.3-3.4,0.2-5.1
			C394.9,608.9,393.6,608.9,393.6,609.7L393.6,609.7z"/>
	</g>
</g>
<g>
	<g>
		<path d="M396.3,612c-0.1,1.5-0.3,3.1-0.6,4.5c-0.2,0.8,1,1.1,1.2,0.3c0.3-1.6,0.6-3.2,0.7-4.8C397.6,611.1,396.3,611.1,396.3,612
			L396.3,612z"/>
	</g>
</g>
<g>
	<g>
		<path d="M406.2,616.2c0.1,2,0.1,4.1-0.1,6.2c-0.1,0.8,1.2,0.8,1.3,0c0.2-2,0.2-4.1,0.1-6.2C407.4,615.4,406.1,615.4,406.2,616.2
			L406.2,616.2z"/>
	</g>
</g>
<g>
	<g>
		<path d="M409.9,616.7c0,1.8,0,3.6,0,5.4c0,0.8,1.3,0.8,1.3,0c0-1.8,0-3.6,0-5.4C411.1,615.8,409.9,615.8,409.9,616.7L409.9,616.7z
			"/>
	</g>
</g>
<g>
	<g>
		<path d="M417.9,614.5c0.1,1.7,0.2,3.4,0.3,5.1c0,0.8,1.3,0.8,1.3,0c-0.1-1.7-0.2-3.4-0.3-5.1C419.1,613.7,417.8,613.7,417.9,614.5
			L417.9,614.5z"/>
	</g>
</g>
<g>
	<g>
		<path d="M420.2,612.7c0.1,1.9,0.2,3.7,0.3,5.5c0,0.8,1.3,0.8,1.3,0c-0.1-1.9-0.2-3.7-0.3-5.5C421.4,611.8,420.1,611.8,420.2,612.7
			L420.2,612.7z"/>
	</g>
</g>
<g>
	<g>
		<path d="M402.8,579.1c0.8,2.4,2.2,5.4,5.2,5.4c2.9-0.1,4.2-3.1,4.8-5.5c0.3-0.8-1-1.1-1.2-0.3c-0.5,1.8-1.4,4.5-3.7,4.6
			c-2.3,0.1-3.3-2.6-3.9-4.4C403.7,578,402.5,578.4,402.8,579.1L402.8,579.1z"/>
	</g>
</g>
<g>
	<g>
		<path d="M432.7,604.6c-0.8-0.1-1.6-0.2-2.4-0.3c0,0.3,0,0.6,0,0.8c0.6,0,1.3,0,1.9-0.1c0.5,0,0.6-0.7,0.1-0.8
			c-0.5-0.1-1-0.3-1.5-0.3c-0.1,0.3-0.2,0.5-0.3,0.8c0.5,0.1,1,0,1.5-0.3c0.3-0.2,0.3-0.6,0-0.8c-0.3-0.3-0.7-0.3-1.1-0.3
			c-0.5,0-0.5,0.8,0,0.8c0.4,0,0.8,0,1.4,0s0.6-0.7,0.1-0.8c-0.8-0.3-1.5-0.4-2.3-0.7c-0.3-0.1-0.7,0.3-0.5,0.6
			c0.3,0.5,0.8,1.1,0.6,1.7c-0.2,0.5,0.7,0.8,0.8,0.3c0.3-0.9-0.2-1.7-0.7-2.4c-0.2,0.2-0.3,0.4-0.5,0.6c0.8,0.3,1.5,0.4,2.3,0.7
			c0-0.3,0.1-0.6,0.1-0.8c-0.4,0-0.8,0-1.4,0c0,0.3,0,0.6,0,0.8c0.3,0,0.5,0,0.7,0.2c0-0.3,0-0.5,0-0.8c-0.3,0.2-0.5,0.2-0.8,0.2
			c-0.5-0.1-0.8,0.7-0.3,0.8c0.5,0.1,1,0.3,1.5,0.3c0-0.3,0.1-0.6,0.1-0.8c-0.6,0-1.3,0-1.9,0.1c-0.6,0-0.5,0.8,0,0.8
			c0.8,0.1,1.6,0.2,2.4,0.3C433.3,605.5,433.3,604.7,432.7,604.6L432.7,604.6z"/>
	</g>
</g>
<g>
	<g>
		<path d="M350.8,637.6c0.6,4.6,2.7,8.7,6.2,11.9c1.6,1.4,3.5,2.2,5.4,3.3c2.3,1.4,1.4,2,0.8,4.2c-0.3,1.6-0.8,3.1-1.1,4.8
			c-0.8,3-1,6.7-2.5,9.4c-1.5,3-3,1.4-5,0.1c-1.4-0.9-2.8-2-4-3.3c-4-4.1-6.7-9.3-9-14.4c-0.4-1-1.9-0.2-1.4,0.8
			c2.7,6,5.9,12.1,11,16.4c2.2,1.9,7.7,6.5,9.7,2.4c1.8-3.7,2.3-8.6,3.3-12.6c0.4-1.9,2.5-6.2,1.4-8.2c-0.3-0.5-0.8-0.7-1.4-0.9
			c-2.1-1.1-4-1.7-5.9-3.3c-3.3-2.9-5.2-6.8-5.8-11.1C352.2,636,350.6,636.5,350.8,637.6L350.8,637.6z"/>
	</g>
</g>
<g>
	<g>
		<path d="M463.7,634.5c-0.6,4.1-2.3,7.9-5.4,10.7c-1.6,1.5-3.3,2.5-5.3,3.3c-0.7,0.3-2,0.5-2.4,1.3c-1.1,2,0.7,5.5,1.1,7.5
			c1,4.2,1.6,9.5,3.5,13.3c1.9,3.9,7-0.3,9.2-2c5.4-4.3,8.7-10.6,11.5-16.8c0.4-1-1-1.9-1.4-0.8c-2.3,5.2-5,10.4-9,14.4
			c-1.1,1.1-2.2,2.1-3.5,3c-0.7,0.4-1.4,0.8-2,1.3c-1.3,1.4-2.1,1.4-2.7,0c-2-1.8-2.5-7.7-3.1-10.4c-0.4-1.6-0.8-3.1-1.1-4.8
			c-0.5-2.1-1.3-3.1,0.8-4.2c1.9-1.2,3.8-1.9,5.5-3.4c3.5-3.1,5.6-7.3,6.2-11.9C465.5,633.9,463.9,633.5,463.7,634.5L463.7,634.5z"
			/>
	</g>
</g>
<g>
	<g>
		<path d="M362.4,664.1c18.1,4.8,39.1,6.2,53.6-7.7c0.8-0.8-0.4-2-1.2-1.2c-14.1,13.4-34.5,11.9-52,7.2
			C361.8,662.2,361.4,663.8,362.4,664.1L362.4,664.1z"/>
	</g>
</g>
<g>
	<g>
		<path d="M396.6,657.5c4.8,7.9,14,9.5,22.6,9.8c11.5,0.3,23.1-1.3,34.2-4.4c1-0.3,0.6-2-0.4-1.6c-9.4,2.7-19.1,4.2-29,4.4
			c-9.2,0.2-20.6-0.1-25.9-8.9C397.5,655.7,396,656.6,396.6,657.5L396.6,657.5z"/>
	</g>
</g>
<g>
	<g>
		<path d="M325.6,708.9c1.3,8.2,2,16.3,2.3,24.5c0.1,1.6,2.6,1.6,2.5,0c-0.3-8.5-1-16.9-2.4-25.2
			C327.8,706.6,325.4,707.3,325.6,708.9L325.6,708.9z"/>
	</g>
</g>
<g>
	<g>
		<path d="M489.9,708c-1.7,8.9-3.1,17.8-4.3,26.8c-0.3,1.6,2.2,2.3,2.5,0.7c1.3-8.9,2.7-17.9,4.3-26.8
			C492.7,707.1,490.2,706.4,489.9,708L489.9,708z"/>
	</g>
</g>
<g>
	<g>
		<path d="M329.9,707.7c23.2,12.1,49.4,16.6,75.4,16.3c13.8-0.2,27.6-1.7,41.3-3.8c12.7-2,25.2-4.4,36.7-10.4c1.4-0.8,0.2-3-1.3-2.2
			c-11.2,5.8-23.7,8.2-36,10.1c-13.4,2.1-27,3.6-40.6,3.7c-25.6,0.3-51.4-4-74.1-16C329.7,704.7,328.4,706.9,329.9,707.7
			L329.9,707.7z"/>
	</g>
</g>
<g>
	<g>
		<path d="M332.8,730.6c3.6-0.1,7.1-2.3,10.1-4.1c3.1-1.9,5.9-4.1,8-7c0.7-1-0.9-2-1.6-0.9c-2,2.7-4.4,4.7-7.2,6.3
			c-2.6,1.5-6,3.7-9.2,3.8C331.5,728.7,331.5,730.6,332.8,730.6L332.8,730.6z"/>
	</g>
</g>
<g>
	<g>
		<path d="M462.8,720.4c3.5,6.5,10.4,10.1,17.7,9.3c1.2-0.2,1.2-2,0-2c-6.6,0.8-12.9-2.5-16.1-8.4
			C463.9,718.3,462.2,719.3,462.8,720.4L462.8,720.4z"/>
	</g>
</g>
<g>
	<g>
		<path d="M401.5,723.7c-0.5,7.8-0.7,15.5-0.4,23.4c0,1.2,2,1.3,2,0c-0.3-7.8-0.1-15.5,0.4-23.4
			C403.5,722.5,401.5,722.5,401.5,723.7L401.5,723.7z"/>
	</g>
</g>
<g>
	<g>
		<path d="M394.3,731.4c-1.5-2-4.3-2.1-5.9-0.1c-1.7,2.1-1,5.4,1.3,6.8c2.2,1.3,5.4,0.6,6.1-2c0.7-2.3,0.4-6-2.6-6.2
			c-1.2-0.1-1.2,1.8,0,2c1.7,0.2,1.4,7-2.5,4.8c-1.2-0.7-1.7-2.3-1-3.6c0.6-1.1,2.2-1.7,3.1-0.5
			C393.4,733.3,395.1,732.4,394.3,731.4L394.3,731.4z"/>
	</g>
</g>
<g>
	<g>
		<path d="M328.9,768.7c3.3-21,1-43.7-0.8-64.9c-0.2-2.2-2.7-2.2-2.5,0c1.7,20.8,4.1,43.3,0.8,64C326.1,770,328.6,770.9,328.9,768.7
			L328.9,768.7z"/>
	</g>
</g>
<g>
	<g>
		<path d="M485.4,736.2c-0.1,9.6,0.3,19.1,1.4,28.4c0.3,3.4,2.8,2,2.5-1.4c-0.9-8.9-1.4-17.9-1.3-27
			C488,732.8,485.4,732.8,485.4,736.2L485.4,736.2z"/>
	</g>
</g>
<g>
	<g>
		<path d="M390.2,565.2c0.9-5.2,2.2-11.2,5-15.7c3.5-5.6,7.8,0.8,12.1,1.1c4.2,0.3,8.4-5.3,12.4-2c1.8,1.4,2.7,4.4,3.7,6.4
			c1.4,3.2,2.5,6.5,3.6,9.9c0.5,1.5,2.9,0.9,2.5-0.7c-1.6-5.5-3.7-14.5-8.7-18.1c-5.3-3.8-9.5,3.3-14.7,1.4
			c-4.1-1.4-7.5-5.4-11.5-1.3c-4.3,4.2-5.7,12.7-6.7,18.3C387.5,566.1,390,566.8,390.2,565.2L390.2,565.2z"/>
	</g>
</g>
<g>
	<g>
		<path d="M381.4,573.6c7.9-7.2,18.2-11.5,29-11.9c5.1-0.2,10.4,0.4,15,2.6c5.4,2.5,13.9,11.5,6.1,16.5c-1.4,0.8-0.1,3.1,1.3,2.2
			c5.2-3.2,5.1-9.6,2-14.3c-3.6-5.4-9.9-8-16.1-9c-14.1-2.3-28.5,2.5-39,12.1C378.4,572.9,380.2,574.7,381.4,573.6L381.4,573.6z"/>
	</g>
</g>
<g>
	<g>
		<path d="M381.7,570.3c-2.5,0.8-3.8,3.4-3.3,5.9c0.6,3.1,3.7,4.8,6.4,5.9c1.5,0.6,2.2-1.9,0.7-2.5c-1.6-0.7-3.5-1.5-4.2-3.2
			c-0.6-1.4-0.3-3.3,1.3-3.7C384,572.3,383.3,569.8,381.7,570.3L381.7,570.3z"/>
	</g>
</g>
<path class="st5" d="M336.2,689.7"/>
<path class="st5" d="M362.5,626"/>
<path class="st6" d="M326.8,706.6"/>
<g>
	<g>
		<path d="M932.1,647c-16.7,11-24.3,30.7-29.9,49.1c-6.9,22.6-10.4,46-10.4,69.6c0,1.6,2.5,1.6,2.5,0c0.1-22.3,3.1-44.5,9.3-65.9
			c5.4-18.6,12.7-39.4,29.6-50.6C934.7,648.4,933.4,646.2,932.1,647L932.1,647z"/>
	</g>
</g>
<g>
	<g>
		<path d="M934.4,648.7c-4.5-11.3-11-21.8-14.2-33.5c-1.5-5.5-2.4-11.9,0.6-17.1c2.9-4.9,8.4-7.7,14-8c10-0.4,20,5.7,27.3,12
			c8.9,7.6,15.3,17.7,18.8,28.8c0.5,1.5,3,0.9,2.5-0.7c-3.9-12.2-11-23.3-21.1-31.3c-8.1-6.5-18.9-12.6-29.6-11.1
			c-11,1.4-17.4,11-16.2,21.7c1.6,14.3,10.3,26.8,15.5,39.9C932.6,650.9,935,650.3,934.4,648.7L934.4,648.7z"/>
	</g>
</g>
<g>
	<g>
		<path d="M980.9,631c21.7,42.4,31.7,90.2,28.7,137.7c-0.1,1.6,2.5,1.6,2.5,0c3-48-7.1-96.2-29-139
			C982.3,628.3,980.2,629.5,980.9,631L980.9,631z"/>
	</g>
</g>
<g>
	<g>
		<path d="M918.2,605.8c9.4-1.1,17.6-6.4,22.3-14.6c0.4-0.7-0.7-1.4-1.1-0.7c-4.5,7.8-12.2,12.9-21.2,14
			C917.4,604.6,917.4,605.8,918.2,605.8L918.2,605.8z"/>
	</g>
</g>
<g>
	<g>
		<path d="M918.1,610.8c11.7-1.9,23.8-7.4,27.6-19.5c0.3-0.8-1-1.1-1.2-0.3c-3.7,11.7-15.5,16.8-26.8,18.6
			C917,609.7,917.4,610.9,918.1,610.8L918.1,610.8z"/>
	</g>
</g>
<g>
	<g>
		<path d="M979.4,641.8c-7.1,14.9-25.3,20-39.1,10.9c-0.7-0.4-1.4,0.7-0.7,1.1c14.4,9.4,33.5,4.2,40.8-11.3
			C980.9,641.6,979.8,641,979.4,641.8L979.4,641.8z"/>
	</g>
</g>
<g>
	<g>
		<path d="M929.4,626.1c2.5,0.6,4.2,4.8,7.4,3.7c0.9-0.3,1.4-1.2,1.6-2.1c0.3-2,0-4.2,0-6.2c0-0.8-1.3-0.8-1.3,0
			c0,1.4,0,2.7,0.1,4.1c0,1.5,0.1,3.7-2.2,3c-2-0.7-2.9-3-5.2-3.6C929,624.7,928.7,626,929.4,626.1L929.4,626.1z"/>
	</g>
</g>
<g>
	<g>
		<path d="M978.2,677.3c19.4,4.1,38-8,53.3-18.5c15.6-10.7,29.3-24.3,37.8-41.4c0.3-0.8-0.8-1.4-1.1-0.7
			c-8.2,16.6-21.2,29.7-36.3,40.2c-7,4.9-14.5,9.3-22.2,13.2c-9.9,5.1-20.1,8.2-31.3,5.9C977.7,675.9,977.4,677.1,978.2,677.3
			L978.2,677.3z"/>
	</g>
</g>
<g>
	<g>
		<path d="M952,732.9c-7.2,0.8-14.5,1.3-21.8,1.4c-6.3,0.1-13.1-1-19.3-0.2c-4.2,0.6-6.6,3.4-7.4,7.5c-1,5.4-0.8,11.8-0.6,17.2
			c0.3,4.4,3.2,5.3,7.3,5.9c6.5,1,13.2,0.8,19.8,1c6.6,0.1,13.7,0.6,20.2-0.3c3.6-0.5,6.2-2.1,7-5.8c0.6-3.1,0.3-6.5,0.4-9.5
			c0.1-3.5,0.3-7.1,0.2-10.6c-0.2-3.2-2-7.1-5.9-5.6c-0.8,0.3-0.4,1.5,0.3,1.2c5.3-2,4.2,9.3,4.1,11.1c-0.1,2.6-0.1,5.2-0.2,7.8
			c-0.1,3.8-0.1,8.6-4.6,9.9c-2.4,0.7-5.1,0.5-7.6,0.6c-5.8,0.1-11.6,0.1-17.5-0.1c-5.7-0.2-13.2,0.7-18.5-1.4
			c-5.9-2.2-4.1-11.2-3.9-16.4c0.1-2.9,0.1-6.2,2-8.7c2.4-3,6-2.6,9.5-2.5c12.1,0.4,24.1,0,36.1-1.3
			C952.9,734.1,952.9,732.8,952,732.9L952,732.9z"/>
	</g>
</g>
<g>
	<g>
		<path d="M907.5,738.9c5.9,4.2,12.1,8,18.7,11c0.8,0.3,1.4-0.8,0.7-1.1c-6.6-3.1-12.8-6.8-18.7-11
			C907.5,737.3,906.9,738.4,907.5,738.9L907.5,738.9z"/>
	</g>
</g>
<g>
	<g>
		<path d="M927.6,750.8c8.4-2.5,16.3-6.2,23.7-11c0.7-0.4,0.1-1.5-0.7-1.1c-7.3,4.7-15.1,8.2-23.4,10.8
			C926.5,749.9,926.9,751.1,927.6,750.8L927.6,750.8z"/>
	</g>
</g>
<g>
	<g>
		<path d="M950.4,743.3c-0.4,5.1-0.7,10.2-0.7,15.3c0,0.8,1.3,0.8,1.3,0c0-5.1,0.3-10.2,0.7-15.3
			C951.8,742.5,950.5,742.5,950.4,743.3L950.4,743.3z"/>
	</g>
</g>
<g>
	<g>
		<path d="M958.5,743.7c16.7-0.2,33.4-0.3,50.1-0.4c0.8,0,0.8-1.3,0-1.3c-16.7,0.2-33.4,0.3-50.1,0.4
			C957.6,742.4,957.6,743.7,958.5,743.7L958.5,743.7z"/>
	</g>
</g>
<g>
	<g>
		<path d="M958.9,755.1c16-0.2,32-0.3,48-0.4c0.8,0,0.8-1.3,0-1.3c-16,0.2-32,0.3-48,0.4C958,753.9,958,755.1,958.9,755.1
			L958.9,755.1z"/>
	</g>
</g>
<g>
	<g>
		<path d="M902.2,745.2c-2-0.4-4.1-0.5-6.1-0.3c-0.8,0.1-0.8,1.4,0,1.3c2-0.2,3.9-0.1,5.8,0.3C902.7,746.6,903,745.4,902.2,745.2
			L902.2,745.2z"/>
	</g>
</g>
<g>
	<g>
		<path d="M902.8,753.7c-2.8,0.3-5.6,0.2-8.3-0.7c-0.8-0.3-1.1,1-0.3,1.2c2.9,0.8,5.8,1.1,8.7,0.7
			C903.6,754.9,903.6,753.6,902.8,753.7L902.8,753.7z"/>
	</g>
</g>
<g>
	<g>
		<path d="M912.4,672.4c-30.7-15.5-66.4-19.8-100-11.8c-0.8,0.2-0.4,1.4,0.3,1.2c33.2-7.9,68.4-3.7,98.9,11.7
			C912.5,674,913.2,672.9,912.4,672.4L912.4,672.4z"/>
	</g>
</g>
<g>
	<g>
		<path d="M981.9,659.1c-9.7,15.5-3.7,33.8,4.9,48.3c0.4,0.7,1.5,0.1,1.1-0.7c-8.5-14.1-14.4-31.8-4.9-47
			C983.4,659,982.3,658.4,981.9,659.1L981.9,659.1z"/>
	</g>
</g>
<g>
	<g>
		<path d="M714.1,585.6c7-4.6,15.7-10.7,24.6-8.5c8,2,11.3,10.3,10.7,17.9c-0.1,1.6,2.5,1.6,2.5,0c0.6-7.7-2.5-16.4-10.1-19.5
			c-10.2-4.2-20.7,2.5-29,7.9C711.4,584.4,712.7,586.6,714.1,585.6L714.1,585.6z"/>
	</g>
</g>
<g>
	<g>
		<path d="M620.5,768.9c9.6-49.5,24.6-99,52.5-140.2c8.1-12,17.3-23,27.4-33c1.2-1.2-0.6-3.2-1.8-2c-35.5,35-57.2,82.5-70.7,131.6
			c-3.9,14.1-7.1,28.4-9.9,42.8C617.7,770,620.3,770.7,620.5,768.9L620.5,768.9z"/>
	</g>
</g>
<g>
	<g>
		<path d="M749.4,594.2c-2.8,15.6-8.7,30.4-17.6,43.6c-0.9,1.4,1.3,2.6,2.2,1.3c9-13.3,14.9-28.4,17.8-44.2
			C752.2,593.3,749.7,592.6,749.4,594.2L749.4,594.2z"/>
	</g>
</g>
<g>
	<g>
		<path d="M676,624.3c0.8,9.1,1.7,18.3,3,27.3c0.7,4.8,1.4,9.8,2.3,14.6c0.3,1.9,0.3,6.2,2.8,6.6c0.8,0.2,1.8-0.5,2.5-0.9
			c2.2-1.1,4.3-2.5,6.5-3.8c4.2-2.5,8.6-5.1,12.8-7.6c8.6-5.1,17.1-10.3,25.6-15.5c1.4-0.8,0.1-3.1-1.3-2.2
			c-13.9,8.5-27.9,17-42,25.3c-0.7,0.4-1.4,0.8-2.1,1.3c-1.5,0.8-2.2,0.3-2-1.4c-0.8-1.6-0.8-4.7-1.1-6.5c-0.6-3.8-1.2-7.6-1.7-11.4
			c-1.2-8.6-2.1-17.2-2.8-25.8C678.4,622.7,675.8,622.7,676,624.3L676,624.3z"/>
	</g>
</g>
<g>
	<g>
		<path d="M738.1,651.3c-13.8,13-14,32.4-10.2,50.6c2.2,10.7,5,21.2,5.3,32.2c0.2,11.7-2.1,23.3-6.7,33.7c-0.7,1.6,1.4,3,2.1,1.4
			c8-18.3,8.3-37.5,4.2-57c-2.2-10.2-4.9-20.6-4.7-31.3c0.3-10.9,4.4-20.8,11.8-27.8C741,652.1,739.3,650.2,738.1,651.3L738.1,651.3
			z"/>
	</g>
</g>
<g>
	<g>
		<path d="M730.7,644.4c4.4,1.9,9.2,2.7,13.6,4.4c5,1.9,9,5.3,12,9.7c5.8,8.7,6.8,19.4,6.4,29.6c-0.7,19-8.2,41-27.7,48.1
			c-1.2,0.4-0.7,2.3,0.5,1.9c20.4-7.3,28.4-29.9,29.1-49.8c0.4-10.6-0.8-22.2-7-31.1c-2.5-3.7-5.9-6.8-9.9-8.8
			c-5.2-2.5-11.1-3.4-16.5-5.6C730,642.1,729.6,644,730.7,644.4L730.7,644.4z"/>
	</g>
</g>
<g>
	<g>
		<path d="M729.6,675c9.3,7.7,14.2,22.3,5.5,32.4c-0.8,0.9,0.5,2.3,1.4,1.4c9.3-10.8,4.7-26.7-5.5-35.1
			C730,672.8,728.6,674.2,729.6,675L729.6,675z"/>
	</g>
</g>
<g>
	<g>
		<path d="M682,627.2c3.3,11.7,13.2,17.2,25,16.1c0.8-0.1,0.8-1.4,0-1.3c-11.1,0.9-20.6-4-23.7-15.2C683,626,681.8,626.3,682,627.2
			L682,627.2z"/>
	</g>
</g>
<g>
	<g>
		<path d="M703,609.2c-0.5,3-0.8,7.1,2.8,8.2c2.7,0.8,7,0.2,7.9-2.9c0.3-0.8-1-1.1-1.2-0.3c-0.7,2.4-4.3,2.7-6.3,2
			c-2.7-0.9-2.3-4.4-2-6.7C704.4,608.7,703.2,608.4,703,609.2L703,609.2z"/>
	</g>
</g>
<g>
	<g>
		<path d="M628.1,725.9c31.4,18.7,70.5,22.4,105,10.2c0.8-0.3,0.4-1.5-0.3-1.2c-34.1,12.1-72.8,8.4-103.9-10
			C628,724.4,627.4,725.5,628.1,725.9L628.1,725.9z"/>
	</g>
</g>
<g>
	<g>
		<path d="M630.6,717.8c32,14.8,68.6,22.6,102.7,10.3c0.8-0.3,0.4-1.5-0.3-1.2c-33.8,12.2-70.1,4.5-101.7-10.1
			C630.6,716.4,629.9,717.5,630.6,717.8L630.6,717.8z"/>
	</g>
</g>
<g>
	<g>
		<path d="M636.7,721.2c-0.3,2-0.7,4-0.9,5.9c-0.2,0.8,1.1,1.2,1.2,0.3c0.3-2,0.7-4,0.9-5.9C638,720.8,636.8,720.5,636.7,721.2
			L636.7,721.2z"/>
	</g>
</g>
<g>
	<g>
		<path d="M645.9,724.9c-1,2-1.8,4-2.1,6.1c-0.2,0.8,1.1,1.2,1.2,0.3c0.3-2,1-4,2-5.9C647.4,724.8,646.3,724.1,645.9,724.9
			L645.9,724.9z"/>
	</g>
</g>
<g>
	<g>
		<path d="M654.4,727.4c0,2.7,0,5.4,0,8.1c0,0.8,1.3,0.8,1.3,0c0-2.7,0-5.4,0-8.1C655.7,726.5,654.4,726.5,654.4,727.4L654.4,727.4z
			"/>
	</g>
</g>
<g>
	<g>
		<path d="M666.3,731.2c0,2.7,0,5.4,0,8.1c0,0.8,1.3,0.8,1.3,0c0-2.7,0-5.4,0-8.1C667.6,730.3,666.3,730.3,666.3,731.2L666.3,731.2z
			"/>
	</g>
</g>
<g>
	<g>
		<path d="M676.5,733.3c-0.2,2.5,0,4.9,0.5,7.4c0.2,0.8,1.4,0.4,1.2-0.3c-0.4-2.3-0.6-4.7-0.4-7
			C677.8,732.5,676.5,732.5,676.5,733.3L676.5,733.3z"/>
	</g>
</g>
<g>
	<g>
		<path d="M687.6,734.6c-0.1,2.4,0.3,4.8,1,7c0.3,0.8,1.4,0.4,1.2-0.3c-0.7-2.2-1-4.4-1-6.7C688.9,733.7,687.6,733.7,687.6,734.6
			L687.6,734.6z"/>
	</g>
</g>
<g>
	<g>
		<path d="M698.2,734.7c0.7,1.9,0.9,3.8,0.8,5.8c-0.1,0.8,1.2,0.8,1.3,0c0.1-2.1-0.2-4.2-0.8-6.1C699.1,733.6,697.8,734,698.2,734.7
			L698.2,734.7z"/>
	</g>
</g>
<g>
	<g>
		<path d="M705.7,734.2c0.3,2,0.5,4,0.8,5.9c0.1,0.8,1.4,0.8,1.3,0c-0.3-2-0.5-4-0.8-5.9C706.9,733.4,705.6,733.3,705.7,734.2
			L705.7,734.2z"/>
	</g>
</g>
<g>
	<g>
		<path d="M713,733.3c0,1.9,0,3.7,0,5.5c0,0.8,1.3,0.8,1.3,0c0-1.9,0-3.7,0-5.5C714.3,732.5,713,732.5,713,733.3L713,733.3z"/>
	</g>
</g>
<g>
	<g>
		<path d="M721.1,731.6c0,2.3,0,4.5,0,6.8c0,0.8,1.3,0.8,1.3,0c0-2.3,0-4.5,0-6.8C722.4,730.8,721.1,730.8,721.1,731.6L721.1,731.6z
			"/>
	</g>
</g>
<g>
	<g>
		<path d="M727.3,729.7c-0.4,2-0.5,4.1-0.3,6.1c0.1,0.8,1.4,0.8,1.3,0c-0.2-2-0.2-3.9,0.3-5.8C728.7,729.2,727.5,728.9,727.3,729.7
			L727.3,729.7z"/>
	</g>
</g>
<g>
	<g>
		<path d="M710.8,581.6c-4.6-1.5-10.4-1.7-13.6,2.6c-2.8,3.9-1.4,8.5,2.7,10.7c4,2.1,9.3,2.8,12.4-1.2c3.1-3.9,1.7-9.2-1.9-12.2
			c-0.6-0.5-1.5,0.3-0.9,0.9c2.8,2.5,4.3,6.5,2.3,9.9c-2.5,4.1-7.5,3.5-11.2,1.5c-4.1-2.2-4.8-7-1.2-10.1c3.1-2.6,7.5-2,11-0.9
			C711.2,583.1,711.6,581.9,710.8,581.6L710.8,581.6z"/>
	</g>
</g>
<g>
	<g>
		<path d="M725.7,591.8c-5-1.1-9.1-5.1-13.3,0.1c-2.7,3.3-4.4,8.4-0.4,11.4c3.7,2.7,9.1,3.7,12.7,0.6c4-3.3,3.7-9.1,0.1-12.5
			c-0.6-0.6-1.5,0.3-0.9,0.9c3.6,3.5,3.1,9.3-1.5,11.5c-3.1,1.5-7.9,0.3-10.4-2.1c-2.9-2.8,0.1-8.9,3.1-10.7c3.3-2,7,1.3,10.2,2
			C726.1,593.3,726.4,592,725.7,591.8L725.7,591.8z"/>
	</g>
</g>
<g>
	<g>
		<path d="M725.9,601.9c9.9,0,19.8,0.3,29.7,0.9c0.8,0.1,0.8-1.2,0-1.3c-9.9-0.6-19.8-0.8-29.7-0.9
			C725.1,600.7,725.1,601.9,725.9,601.9L725.9,601.9z"/>
	</g>
</g>
<g>
	<g>
		<path d="M668.3,628.2c-23.9,13.2-53-2.7-64.7-24.9c-0.6-1.1-2.2-0.1-1.6,0.9c12.2,23.2,42.5,39.2,67.3,25.6
			C670.4,629.3,669.4,627.6,668.3,628.2L668.3,628.2z"/>
	</g>
</g>
<g>
	<g>
		<path d="M602.4,603.5c-3.6,3.1-7,6.3-9.3,10.5c-2.1,4.1-2,6.4-0.8,10.6c2.3,8.2,5.8,16.3,10.5,23.4c9.1,13.8,23.3,23.9,40.5,21.8
			c1.2-0.2,1.2-2,0-2c-16.3,2-29.7-7.3-38.6-20.4c-4.1-6.1-7.3-12.9-9.6-20c-1.3-3.9-2.8-7.6-1-11.6c2-4.6,5.7-8,9.4-11.2
			C604.7,604.1,603.4,602.8,602.4,603.5L602.4,603.5z"/>
	</g>
</g>
<g>
	<g>
		<path d="M524.4,543.9c6.1,14.6,12.2,29.2,18.3,43.7c2.6,6.3,4.8,13.4,8.2,19.3c2.3,3.8,5.6,5.4,9.9,4.8c6.6-0.9,13.3-4.1,19.5-6.5
			c6.5-2.5,12.7-5.2,19-8.2c4.3-2,9.4-4.2,11.6-8.8c1.7-3.5,1.2-7.7-1.8-10.3c-0.6-0.5-1.5,0.3-0.9,0.9c6.2,5.2-0.3,12.2-5.2,14.9
			c-5,2.8-10.4,5-15.7,7.2c-4.8,2-9.8,3.9-14.7,5.7c-5,1.8-13.5,6.2-18.3,2.3c-4.3-3.6-6-11.1-8.1-16.1c-2.3-5.4-4.6-11-6.9-16.4
			c-4.6-11-9.2-21.9-13.7-32.8C525.2,542.8,524,543.1,524.4,543.9L524.4,543.9z"/>
	</g>
</g>
<g>
	<g>
		<path d="M526.6,545.6c0-0.8,0-1.5-0.1-2.3c0-0.8-1.3-0.8-1.3,0c0,0.8,0,1.5,0.1,2.3C525.3,546.5,526.6,546.5,526.6,545.6
			L526.6,545.6z"/>
	</g>
</g>
<g>
	<g>
		<path d="M526.1,544.9c-3.5-7.4,8.3-10.8,12.9-12.7c4.8-2,9.7-4.1,14.5-6.1c8.8-3.7,23.4-12.9,30.6-2.2c2.4,3.6,3.9,7.9,5.6,11.8
			c2.1,4.8,4.2,9.7,6.4,14.5c4.4,9.9,8.7,19.9,13.2,29.9c0.3,0.8,1.4,0.1,1.1-0.7c-5.6-12.7-11.2-25.6-16.8-38.3
			c-2.5-5.8-4.7-12.1-8-17.3c-2.1-3.4-5.1-5.9-9.2-6.3c-5.4-0.6-10.7,2.1-15.5,4.2c-6.6,2.8-13.2,5.5-19.9,8.3
			c-5.9,2.5-20.3,6.3-16,15.5C525.3,546.3,526.4,545.6,526.1,544.9L526.1,544.9z"/>
	</g>
</g>
<path d="M269,196"/>
<circle class="st7" cx="1093.4" cy="596.3" r="31.4"/>
<circle class="st8" cx="1093.4" cy="596.3" r="6.7"/>
<circle class="st7" cx="566.3" cy="559.2" r="23"/>
<circle class="st9" cx="566.3" cy="559.2" r="9"/>
<circle class="st9" cx="406.1" cy="642.4" r="15.2"/>
<circle class="st10" cx="406.2" cy="643" r="3.6"/>
<path class="st0" d="M1315,708.4c-0.6,0.4-1.2,0.6-1.7,0.6c-1.2,0.8-2.4,1.7-3.4,2.8c-0.3,0.3-0.5,0.6-0.8,0.8
	c-3.5-1.5-7.5-1.5-10.7,1c-0.9,0.6-1.8,1.3-2.7,1.8c0.3-0.2-2,0.8-2.2,0.9c-1,0.4-2,0.6-3.1,0.8c-0.5,0.1-1.9,0.4-1.8,0.4
	c-5.2,0.7-10.4,0.9-15.6,1.7c-4.7,0.7-9.1,2-13.6,3.4c-2.7-0.9-5.6-1.2-8.5-1.1c-1.4,0-2.6,0.3-4,0.4c-0.6,0.1-5.3-0.1-3.1,0.3
	c-3.5-0.6-7-0.2-9.8,1.6c-5.5-0.6-11-1.3-16.5-2.3c-7.9-1.5-15.5-2.8-23.3-2.9c-0.8-0.5-1.7-0.9-2.5-1.2c-2.1-0.9-4.3-1.6-6.5-2.2
	c-0.6-0.2-1.2-0.4-1.8-0.6c-1.4-1.1-2.9-2.3-4.4-3.4c-3-2.3-6.3-2.6-9.3-1.6c-1.7-1-3.6-1.8-5.6-2.5c-1.1-0.4-2.1-0.5-3.1-0.5v0.1
	c0,0.3,0,0.5,0,0.6c0,0.1,0,0.2,0,0.3c0.3,4.9,0.5,9.8,0.7,14.7c0.1,1.1,0.2,2.3,0.3,3.4c1.2,0.6,2,1.7,2.1,3.5
	c0.2,6.8,1.3,13.4,0.3,20.2c-0.5,3.6-1.4,7-2.4,10.4c2.3,3.3,5.9,5.6,10.2,5.6c16.8-0.1,33.5-0.1,50.4-0.2c12.8,0,27.4,1,40.3-2.8
	c3.8,0.5,7.7,0.8,11.5,1c7.1,0.4,14.2-0.3,21.2-1.5c3.1-0.6,6.3-1.3,9.3-2.2c1.8-0.6,3.6-1.2,5.4-1.8c0.1,0,0.3-0.1,0.3-0.1
	c5.2,1.4,10.9-2.2,13.4-7.1c-2-9.5-1.4-18.9-0.4-28.9c0.2-1.4,0.8-2.4,1.6-3c0.4-5.7,0.9-11.3,1.6-17c-0.6,0-1.2,0.1-1.8,0.1
	C1321.5,704,1318.2,706.2,1315,708.4z"/>
<g>
	<g>
		<path class="st4" d="M1232.4,552.5c-0.3,1.3-1,2.4-2,3.3c0.8,0.3,1.4,0.6,2.2,0.9c0.2-2.2,0.4-4.4,0.8-6.6
			c-0.8-0.1-1.7-0.3-2.5-0.3c-0.3,2.9-0.9,5.3-2.2,7.8c0.8,0.1,1.5,0.2,2.3,0.3c-0.7-3.1-0.8-6.2-0.6-9.4c-0.8,0-1.7,0-2.5,0
			c0.2,3.3-0.3,6.4-1.6,9.4c0.8,0.1,1.7,0.3,2.5,0.3c-0.3-2.4-0.1-4.3,0.8-6.6c-0.8-0.3-1.6-0.4-2.5-0.7c-0.8,3.3-1.7,6.6-2.5,9.9
			c-0.3,0.8,0.6,2,1.5,1.5c1.3-0.4,2-0.9,2.6-2.1c0.8-1.3-0.9-2.4-2-1.5c-1.3,1.1-1.9,2-2.3,3.7c-0.3,1.2,1.3,2.1,2.1,1.3
			c8.5-8.7,22.4-3.6,32.6-1.4c1.2,0.3,2.2-1.2,1.3-2.1c-1.4-1.4-3.5-2-4.8-3.4c-2.5-2.6-1.4-5.7-2.2-8.8c-0.8,0.3-1.5,0.7-2.3,1
			c1.4,2.9,2.7,5.8,4.2,8.7c0.6,1.4,2.7,0.4,2.3-1c-0.7-2.3-1.2-4.5-1.7-6.8c-0.8,0.3-1.5,0.7-2.3,1c1.2,2.5,2.1,5,2.9,7.6
			c0.8-0.3,1.5-0.7,2.3-1c-1.1-2.1-2.2-4.2-3.3-6.3c-0.5-0.9-1.7-0.7-2.2,0c-0.5,0.7-0.6,1.2-0.7,2c-0.1,1.7,0.8,2.3-1,2.8
			c-1.7,0.4-4.8-0.5-6.5-0.7c-2.7-0.2-5.5-0.1-8.2,0.1c0.1,0.8,0.3,1.7,0.3,2.5c4.8-1.4,9.5-1.7,14.4-0.8c1.6,0.3,2.3-2.1,0.7-2.5
			c-7-1.4-14-1.8-21.1-1.2c-1.3,0.1-1.7,1.6-0.7,2.4c2.2,1.5,4.5,1.4,7,1c4.3-0.7,8.7-1.7,13.1-2.5c1.2-0.3,1.3-2.2,0-2.5
			c-5.7-0.9-11.5-1.4-17.2-1c0,0.8,0,1.7,0,2.5c3.7-0.3,7.3-0.8,10.9-1.4c2.4-0.4,4.7-0.5,6-2.6c-0.7,0.1-1.4,0.2-2,0.3
			c0.1,0.5,0.3,1.1,0.3,1.6c0.8,0,1.4,0,2.2,0c0.3-0.4,0.6-0.8,0.8-1.3c0.6,0.3,1.4,0.2,1.8-0.4c1-2-0.4-4.2-2.8-3.9
			c-1,0.1-1.4,0.7-2.3,1c-1.8,0.8-3.2,1.2-5.1,1.4c-4.7,0.7-8.8,0.5-13.2-1.2c-0.8-0.3-1.6,0.5-1.6,1.2c-0.1,2.1,0.3,3.7,1.1,5.6
			c0.4,0.9,1.8,0.8,2.2,0c0.5-0.8,0.3-1.3,0.4-2.1c0.1-0.3-0.6-1.2-0.4-1.4c0.6-1.4,4-0.4,4.8-0.3c1.4,0.3,2.3-1.5,1-2.3
			c-2.4-1.4-4.5-2-7.2-1.7c-1,0.1-1.5,1-1.1,2c1.8,3.6,4.7,5.9,8.5,7c1.6,0.5,2.2-2,0.7-2.5c-3.2-0.9-5.4-2.9-7-5.9
			c-0.3,0.7-0.8,1.3-1.1,2c2.3-0.2,4,0.2,5.9,1.4c0.3-0.8,0.7-1.5,1-2.3c-2-0.4-5.7-1.4-7.4,0.3c-1.6,1.5,0.7,3.4-0.2,4.8
			c0.8,0,1.4,0,2.2,0c-0.7-1.4-0.9-2.8-0.8-4.3c-0.5,0.4-1.1,0.8-1.6,1.2c3.9,1.5,7.7,2,11.9,1.5c1.7-0.2,3.4-0.3,5-0.7
			c0.8-0.2,4.7-1.3,5-2c0.6-0.2,1.2-0.3,1.8-0.4c-3.4-1.6-6.5,1.4-4.3,4.8c0.5,0.7,1.8,0.9,2.2,0c0.8-1.9,0.6-3.2-0.8-4.8
			c-0.6-0.6-1.6-0.4-2,0.3c-0.9,1.5-5.3,1.6-6.7,1.9c-2.6,0.4-5.3,0.8-8,0.9c-1.6,0.2-1.7,2.6,0,2.5c5.6-0.3,11,0,16.6,0.9
			c0-0.8,0-1.6,0-2.5c-2.9,0.6-5.7,1.1-8.6,1.7c-3.1,0.6-6.8,2-9.6,0.1c-0.3,0.8-0.4,1.6-0.7,2.4c6.9-0.5,13.7-0.2,20.4,1.1
			c0.3-0.8,0.4-1.6,0.7-2.5c-5.4-0.8-10.5-0.6-15.8,0.8c-1.4,0.4-1.1,2.5,0.3,2.5c3.3-0.2,6.6-0.2,9.9,0c2,0.2,4.9,1.2,7,0.5
			c3.6-1.2,0.4-4.2,1.9-6.1c-0.8,0-1.4,0-2.2,0c1.1,2.1,2.2,4.2,3.3,6.3c0.7,1.3,2.7,0.4,2.3-1c-0.8-2.9-1.8-5.6-3.1-8.2
			c-0.7-1.4-2.6-0.3-2.3,1c0.5,2.3,1.1,4.6,1.7,6.8c0.8-0.3,1.5-0.7,2.3-1c-1.4-2.9-2.7-5.8-4.2-8.7c-0.6-1.4-2.7-0.3-2.3,1
			c0.8,2.8-0.5,5.9,1.4,8.5c1.6,2.2,4.4,3,6.3,4.8c0.4-0.7,0.8-1.4,1.3-2.1c-11.2-2.4-25.8-7.5-35.2,2c0.7,0.4,1.4,0.8,2.1,1.3
			c0.6-0.8,1.1-1.7,1.7-2.5c-0.7-0.5-1.4-1-2-1.5c-0.3,0.3-0.8,0.6-1.1,0.9c0.5,0.5,1,1,1.5,1.5c0.8-3.3,1.7-6.6,2.5-9.9
			c0.4-1.6-1.9-2.2-2.5-0.7c-0.9,2.5-1.2,4.7-0.8,7.3c0.2,1.4,2,1.7,2.5,0.3c1.4-3.3,1.9-6.5,1.7-10.1c-0.1-1.6-2.5-1.6-2.5,0
			c-0.3,3.5,0,6.7,0.7,10.1c0.3,1,1.9,1.3,2.3,0.3c1.5-2.9,2.3-5.9,2.6-9.1c0.1-1.4-2.2-1.8-2.5-0.3c-0.4,2.5-0.8,4.8-0.9,7.3
			c-0.1,1.1,1.4,1.7,2.2,0.9c1.3-1.4,2-2.6,2.6-4.4C1235.3,551.6,1232.9,550.9,1232.4,552.5L1232.4,552.5z"/>
	</g>
</g>
<g>
	<g>
		<path class="st4" d="M1220.8,573.6c4.1-4,8.9-6.6,14.4-8.1c1.6-0.4,0.9-2.9-0.7-2.5c-5.9,1.4-11.2,4.4-15.6,8.7
			C1217.8,572.9,1219.7,574.7,1220.8,573.6L1220.8,573.6z"/>
	</g>
</g>
<g>
	<g>
		<path class="st4" d="M1215.9,574.5c0,0.8,0.1,1.5,0.1,2.3c0.4-0.4,0.8-0.8,1.3-1.3c0.4-0.5,0.9-0.9,1.4-1.4
			c0.6-0.1,1.1-0.3,1.7-0.4c0.8-0.3,0.9-0.3,1.8-0.9c-0.6-0.6-1.2-1.2-1.8-1.8c-1.6,2.3-2.5,4.5-3.1,7.3c0.6-0.3,1.3-0.5,1.9-0.8
			c-0.1-0.2-0.2-0.3-0.3-0.4c-0.6,0.5-1.3,0.9-1.9,1.4c3.9,2.8,7.6-6.3,9-8.4c0.7-1-0.7-2.5-1.8-1.8c-0.3,0.3-0.8,0.5-1.1,0.8
			c0.4,0.8,0.8,1.4,1.3,2.2c1.5-1.1,3.1-2.2,4.7-3.3c-0.5-0.7-1-1.4-1.5-2c-1.7,1.6-3.5,3.1-5.2,4.8c0.6,0.6,1.2,1.2,1.8,1.8
			c3.6-3.5,7.7-6.2,12.4-7.9c2.8-1,5.8-2,8.7-0.8c1.4,0.6,2.7,1.5,4.2,2.1c2,0.8,4.3,0.9,6.3,2c2,1.1,3.1,3.2,4.2,5.2
			c1.1,2,2.6,5.5,5.3,6.1c5.6,1.2,2.1-7.8,0.6-9.7c-4.8-6-14.5-8.1-21.5-10c-1.6-0.4-2.2,1.9-0.7,2.5c7.9,3,14.7,8.2,19.7,15
			c0.6-0.6,1.2-1.2,1.8-1.8c-2.3-1.6-3.4-3.7-3.4-6.5c-0.8,0.3-1.4,0.6-2.2,0.9c2.2,1.9,3.6,4,4.2,6.9c0.3,1.6,2.8,0.9,2.5-0.7
			c-0.7-3.3-2.3-5.9-4.8-8c-0.8-0.7-2.2-0.3-2.2,0.9c0,3.7,1.6,6.6,4.7,8.7c1,0.7,2.5-0.7,1.8-1.8c-5.4-7.5-12.6-12.9-21.2-16.2
			c-0.3,0.8-0.4,1.6-0.7,2.5c3.7,1,7.6,2.2,11.2,3.7c3.1,1.2,11,4.2,10.7,8.6c-0.3,4.2-2.6-0.8-3.1-1.8c-0.5-1-1-2-1.6-3
			c-1.3-2-2.9-3.3-5.1-4.2c-1.6-0.6-3.3-0.8-4.8-1.4c-1.9-0.7-3.4-1.9-5.3-2.5s-3.6-0.5-5.5-0.1c-6.6,1.4-12.7,5.1-17.6,9.8
			c-1.2,1.1,0.6,2.9,1.8,1.8c1.7-1.6,3.5-3.1,5.2-4.8c1-0.9-0.3-2.9-1.5-2c-1.5,1.1-3.1,2.2-4.7,3.3c-1.4,0.9-0.1,3.1,1.3,2.2
			c0.3-0.3,0.8-0.5,1.1-0.8c-0.6-0.6-1.2-1.2-1.8-1.8c-0.3,0.6-4.8,8-5.5,7.5c-1-0.8-2,0.5-1.9,1.4c0.2,1.2,0.4,1.4,1.4,2
			c0.7,0.3,1.7,0.1,1.9-0.8c0.4-2.5,1.4-4.6,2.8-6.7c0.8-1-0.7-2.4-1.8-1.8c-2,1.3-5.9,1.2-6.5,4.2c-0.3,2,1.1,3.4,3,3.3
			c0.7,0,1.3-0.6,1.3-1.3c0-0.8-0.1-1.5-0.1-2.3C1218.3,572.9,1215.8,572.9,1215.9,574.5L1215.9,574.5z"/>
	</g>
</g>
<g>
	<g>
		<path d="M1265.8,604.9c11.3-1.3,23,2.2,31.3,10c7.8,7.3,13.2,17.7,17.6,27.3c9.3,20.5,12.7,43.3,9.2,65.6
			c-0.3,1.6,2.2,2.3,2.5,0.7c3.7-23.5,0.1-47.4-10.1-68.9c-4.8-10.2-10.6-21.1-19.4-28.4c-8.6-7-20-10.1-31.1-8.9
			C1264.2,602.6,1264.2,605.1,1265.8,604.9L1265.8,604.9z"/>
	</g>
</g>
<g>
	<g>
		<path d="M1220.6,603.2c-12.5-1.4-22.9,3.3-33.2,9.9c-1.6,1-2.8,2-3.9,3.7c-2.7,4.2-5.2,8.6-7.7,12.9
			c-14.1,24.1-20.2,52.1-15.8,79.7c0.3,1.6,2.7,0.9,2.5-0.7c-4.2-26.5,1.5-53.2,14.8-76.4c2.5-4.3,5.2-8.6,7.7-12.9
			c1-1.8,2-2.9,3.7-4.1c9.9-6.4,19.9-10.9,31.9-9.5C1222.2,605.9,1222.2,603.4,1220.6,603.2L1220.6,603.2z"/>
	</g>
</g>
<g>
	<g>
		<path d="M1223.5,604.3c-0.4-8.1-1-16.6,1.7-24.4c2.5-7.2,8.9-14.3,17-14.6c8.2-0.4,14.5,6.6,17.2,13.8c2.9,7.9,2.4,16.6,2.5,24.8
			c0,1.6,2.5,1.6,2.5,0c-0.3-9.7,0.4-20.2-4.2-29.1c-3.5-6.7-10.1-12.3-18-12.1c-7.7,0.3-14.4,6-17.7,12.7c-4.6,8.8-4,19.3-3.5,28.9
			C1221.1,605.9,1223.6,605.9,1223.5,604.3L1223.5,604.3z"/>
	</g>
</g>
<g>
	<g>
		<path d="M1226.6,608.1c4.2,3.5,8.8,7.1,14.4,8c6.4,0.8,12.1-2.5,17.2-5.6c0.7-0.4,0.1-1.5-0.7-1.1c-4.7,2.8-9.7,5.9-15.3,5.6
			c-5.8-0.3-10.6-4.2-14.9-7.7C1226.8,606.6,1225.9,607.6,1226.6,608.1L1226.6,608.1z"/>
	</g>
</g>
<g>
	<g>
		<path d="M1225.2,612.6c7.1,11.1,21.8,13.4,32.1,5.1c0.7-0.5-0.3-1.4-0.9-0.9c-9.6,7.8-23.4,5.5-30.1-4.8
			C1225.9,611.2,1224.8,611.9,1225.2,612.6L1225.2,612.6z"/>
	</g>
</g>
<g>
	<g>
		<path d="M1227.5,609.2c0.1,1.7,0.1,3.4-0.2,5.1c-0.1,0.8,1.2,0.8,1.3,0c0.2-1.7,0.3-3.4,0.2-5.1
			C1228.8,608.3,1227.5,608.3,1227.5,609.2L1227.5,609.2z"/>
	</g>
</g>
<g>
	<g>
		<path d="M1230.1,611.5c-0.1,1.5-0.3,3.1-0.6,4.5c-0.2,0.8,1,1.1,1.2,0.3c0.3-1.6,0.6-3.2,0.7-4.8
			C1231.4,610.6,1230.1,610.6,1230.1,611.5L1230.1,611.5z"/>
	</g>
</g>
<g>
	<g>
		<path d="M1240.1,615.7c0.1,2,0.1,4.1-0.1,6.2c-0.1,0.8,1.2,0.8,1.3,0c0.2-2,0.2-4.1,0.1-6.2C1241.3,614.9,1240,614.9,1240.1,615.7
			L1240.1,615.7z"/>
	</g>
</g>
<g>
	<g>
		<path d="M1243.7,616.1c0,1.8,0,3.6,0,5.4c0,0.8,1.3,0.8,1.3,0c0-1.8,0-3.6,0-5.4C1245,615.3,1243.7,615.3,1243.7,616.1
			L1243.7,616.1z"/>
	</g>
</g>
<g>
	<g>
		<path d="M1251.8,614c0.1,1.7,0.2,3.4,0.3,5.1c0,0.8,1.3,0.8,1.3,0c-0.1-1.7-0.2-3.4-0.3-5.1C1253,613.2,1251.7,613.2,1251.8,614
			L1251.8,614z"/>
	</g>
</g>
<g>
	<g>
		<path d="M1254.1,612.1c0.1,1.9,0.2,3.7,0.3,5.5c0,0.8,1.3,0.8,1.3,0c-0.1-1.9-0.2-3.7-0.3-5.5
			C1255.3,611.3,1254,611.3,1254.1,612.1L1254.1,612.1z"/>
	</g>
</g>
<g>
	<g>
		<path d="M1236.7,578.6c0.8,2.4,2.2,5.4,5.2,5.4c2.9-0.1,4.2-3.1,4.8-5.5c0.3-0.8-1-1.1-1.2-0.3c-0.5,1.8-1.4,4.5-3.7,4.6
			s-3.3-2.6-3.9-4.4C1237.6,577.5,1236.3,577.8,1236.7,578.6L1236.7,578.6z"/>
	</g>
</g>
<g>
	<g>
		<path d="M1266.6,604.1c-0.8-0.1-1.6-0.2-2.4-0.3c0,0.3,0,0.6,0,0.8c0.6,0,1.3,0,1.9-0.1c0.5,0,0.6-0.7,0.1-0.8
			c-0.5-0.1-1-0.3-1.5-0.3c-0.1,0.3-0.2,0.5-0.3,0.8c0.5,0.1,1,0,1.5-0.3c0.3-0.2,0.3-0.6,0-0.8c-0.3-0.3-0.7-0.3-1.1-0.3
			c-0.5,0-0.5,0.8,0,0.8c0.4,0,0.8,0,1.4,0s0.6-0.7,0.1-0.8c-0.8-0.3-1.5-0.4-2.3-0.7c-0.3-0.1-0.7,0.3-0.5,0.6
			c0.3,0.5,0.8,1.1,0.6,1.7c-0.2,0.5,0.7,0.8,0.8,0.3c0.3-0.9-0.2-1.7-0.7-2.4c-0.2,0.2-0.3,0.4-0.5,0.6c0.8,0.3,1.5,0.4,2.3,0.7
			c0-0.3,0.1-0.6,0.1-0.8c-0.4,0-0.8,0-1.4,0c0,0.3,0,0.6,0,0.8c0.3,0,0.5,0,0.7,0.2c0-0.3,0-0.5,0-0.8c-0.3,0.2-0.5,0.2-0.8,0.2
			c-0.5-0.1-0.8,0.7-0.3,0.8c0.5,0.1,1,0.3,1.5,0.3c0-0.3,0.1-0.6,0.1-0.8c-0.6,0-1.3,0-1.9,0.1c-0.6,0-0.5,0.8,0,0.8
			c0.8,0.1,1.6,0.2,2.4,0.3C1267.2,605,1267.2,604.2,1266.6,604.1L1266.6,604.1z"/>
	</g>
</g>
<g>
	<g>
		<path d="M1184.6,637c0.6,4.6,2.7,8.7,6.2,11.9c1.6,1.4,3.5,2.2,5.4,3.3c2.3,1.4,1.4,2,0.8,4.2c-0.3,1.6-0.8,3.1-1.1,4.8
			c-0.8,3-1,6.7-2.5,9.4c-1.5,3-3,1.4-5,0.1c-1.4-0.9-2.8-2-4-3.3c-4-4.1-6.7-9.3-9-14.4c-0.4-1-1.9-0.2-1.4,0.8
			c2.7,6,5.9,12.1,11,16.4c2.2,1.9,7.7,6.5,9.7,2.4c1.8-3.7,2.3-8.6,3.3-12.6c0.4-1.9,2.5-6.2,1.4-8.2c-0.3-0.5-0.8-0.7-1.4-0.9
			c-2.1-1.1-4-1.7-5.9-3.3c-3.3-2.9-5.2-6.8-5.8-11.1C1186.1,635.5,1184.5,635.9,1184.6,637L1184.6,637z"/>
	</g>
</g>
<g>
	<g>
		<path d="M1297.6,634c-0.6,4.1-2.3,7.9-5.4,10.7c-1.6,1.5-3.3,2.5-5.3,3.3c-0.7,0.3-2,0.5-2.4,1.3c-1.1,2,0.7,5.5,1.1,7.5
			c1,4.2,1.6,9.5,3.5,13.3c1.9,3.9,7-0.3,9.2-2c5.4-4.3,8.7-10.6,11.5-16.8c0.4-1-1-1.9-1.4-0.8c-2.3,5.2-5,10.4-9,14.4
			c-1.1,1.1-2.2,2.1-3.5,3c-0.7,0.4-1.4,0.8-2,1.3c-1.3,1.4-2.1,1.4-2.7,0c-2-1.8-2.5-7.7-3.1-10.4c-0.4-1.6-0.8-3.1-1.1-4.8
			c-0.5-2.1-1.3-3.1,0.8-4.2c1.9-1.2,3.8-1.9,5.5-3.4c3.5-3.1,5.6-7.3,6.2-11.9C1299.4,633.4,1297.7,633,1297.6,634L1297.6,634z"/>
	</g>
</g>
<g>
	<g>
		<path d="M1196.3,663.5c18.1,4.8,39.1,6.2,53.6-7.7c0.8-0.8-0.4-2-1.2-1.2c-14.1,13.4-34.5,11.9-52,7.2
			C1195.7,661.7,1195.2,663.3,1196.3,663.5L1196.3,663.5z"/>
	</g>
</g>
<g>
	<g>
		<path d="M1227.5,660.7c4.8-8.6,14-10.3,22.6-10.6c11.5-0.4,23.1,1.4,34.2,4.8c1,0.4,0.6,2.1-0.4,1.7c-9.4-2.9-19.1-4.6-29-4.8
			c-9.2-0.2-20.6,0.1-25.9,9.7C1228.3,662.7,1226.9,661.8,1227.5,660.7L1227.5,660.7z"/>
	</g>
</g>
<g>
	<g>
		<path d="M1159.5,708.4c1.3,8.2,2,16.3,2.3,24.5c0.1,1.6,2.6,1.6,2.5,0c-0.3-8.5-1-16.9-2.4-25.2
			C1161.7,706.1,1159.2,706.8,1159.5,708.4L1159.5,708.4z"/>
	</g>
</g>
<g>
	<g>
		<path d="M1323.8,707.5c-1.7,8.9-3.1,17.8-4.3,26.8c-0.3,1.6,2.2,2.3,2.5,0.7c1.3-8.9,2.7-17.9,4.3-26.8
			C1326.5,706.6,1324.1,705.9,1323.8,707.5L1323.8,707.5z"/>
	</g>
</g>
<g>
	<g>
		<path d="M1163.7,707.2c23.2,12.1,49.4,16.6,75.4,16.3c13.8-0.2,27.6-1.7,41.3-3.8c12.7-2,25.2-4.4,36.7-10.4
			c1.4-0.8,0.2-3-1.3-2.2c-11.2,5.8-23.7,8.2-36,10.1c-13.4,2.1-27,3.6-40.6,3.7c-25.6,0.3-51.4-4-74.1-16
			C1163.6,704.2,1162.3,706.4,1163.7,707.2L1163.7,707.2z"/>
	</g>
</g>
<g>
	<g>
		<path d="M1166.6,730.1c3.6-0.1,7.1-2.3,10.1-4.1c3.1-1.9,5.9-4.1,8-7c0.7-1-0.9-2-1.6-0.9c-2,2.7-4.4,4.7-7.2,6.3
			c-2.6,1.5-6,3.7-9.2,3.8C1165.4,728.2,1165.4,730.1,1166.6,730.1L1166.6,730.1z"/>
	</g>
</g>
<g>
	<g>
		<path d="M1296.6,719.8c3.5,6.5,10.4,10.1,17.7,9.3c1.2-0.2,1.2-2,0-2c-6.6,0.8-12.9-2.5-16.1-8.4
			C1297.7,717.8,1296,718.8,1296.6,719.8L1296.6,719.8z"/>
	</g>
</g>
<g>
	<g>
		<path d="M1235.3,723.1c-0.5,7.8-0.7,15.5-0.4,23.4c0,1.2,2,1.3,2,0c-0.3-7.8-0.1-15.5,0.4-23.4
			C1237.4,722,1235.4,722,1235.3,723.1L1235.3,723.1z"/>
	</g>
</g>
<g>
	<g>
		<path d="M1228.2,730.9c-1.5-2-4.3-2.1-5.9-0.1c-1.7,2.1-1,5.4,1.3,6.8c2.2,1.3,5.3,0.6,6.1-2c0.7-2.3,0.4-6-2.6-6.2
			c-1.2-0.1-1.2,1.8,0,2c1.7,0.2,1.4,7-2.5,4.8c-1.2-0.7-1.7-2.3-1-3.6c0.6-1.1,2.2-1.7,3.1-0.5
			C1227.3,732.8,1229,731.9,1228.2,730.9L1228.2,730.9z"/>
	</g>
</g>
<g>
	<g>
		<path d="M1162.8,768.2c3.3-21,1-43.7-0.8-64.9c-0.2-2.2-2.7-2.2-2.5,0c1.7,20.8,4.1,43.3,0.8,64
			C1160,769.4,1162.5,770.3,1162.8,768.2L1162.8,768.2z"/>
	</g>
</g>
<g>
	<g>
		<path d="M1319.2,735.7c-0.1,9.6,0.3,19.1,1.4,28.4c0.3,3.4,2.8,2,2.5-1.4c-0.9-8.9-1.4-17.9-1.3-27
			C1321.9,732.3,1319.3,732.3,1319.2,735.7L1319.2,735.7z"/>
	</g>
</g>
<g>
	<g>
		<path d="M1224.1,564.7c0.9-5.2,2.2-11.2,5-15.7c3.5-5.6,7.8,0.8,12.1,1.1c4.2,0.3,8.4-5.3,12.4-2c1.8,1.4,2.7,4.4,3.7,6.4
			c1.4,3.2,2.5,6.5,3.6,9.9c0.5,1.5,2.9,0.9,2.5-0.7c-1.6-5.5-3.7-14.5-8.7-18.1c-5.3-3.8-9.5,3.3-14.7,1.4
			c-4.1-1.4-7.5-5.4-11.5-1.3c-4.3,4.2-5.7,12.7-6.7,18.3C1221.4,565.5,1223.9,566.3,1224.1,564.7L1224.1,564.7z"/>
	</g>
</g>
<g>
	<g>
		<path d="M1215.3,573.1c7.9-7.2,18.2-11.5,29-11.9c5.1-0.2,10.4,0.4,15,2.6c5.4,2.5,13.9,11.5,6.1,16.5c-1.4,0.8-0.1,3.1,1.3,2.2
			c5.2-3.2,5.1-9.6,2-14.3c-3.6-5.4-9.9-8-16.1-9c-14.1-2.3-28.5,2.5-39,12.1C1212.3,572.4,1214.1,574.2,1215.3,573.1L1215.3,573.1z
			"/>
	</g>
</g>
<g>
	<g>
		<path d="M1215.5,569.8c-2.5,0.8-3.8,3.4-3.3,5.9c0.6,3.1,3.7,4.8,6.4,5.9c1.5,0.6,2.2-1.9,0.7-2.5c-1.6-0.7-3.5-1.5-4.2-3.2
			c-0.6-1.4-0.3-3.3,1.3-3.7C1217.8,571.7,1217.2,569.3,1215.5,569.8L1215.5,569.8z"/>
	</g>
</g>
<path class="st5" d="M1170,689.2"/>
<path class="st5" d="M1196.4,625.5"/>
<path class="st6" d="M1160.7,706.1"/>
<g>
	<g>
		<path d="M1360.4,545.1c0-0.8,0-1.5-0.1-2.3c0-0.8-1.3-0.8-1.3,0c0,0.8,0,1.5,0.1,2.3C1359.2,546,1360.4,546,1360.4,545.1
			L1360.4,545.1z"/>
	</g>
</g>
<path class="st3" d="M97.9,704.4c0.6,0.3,1.1,0.4,1.7,0.7c-0.2-0.2-0.4-0.4-0.6-0.6c-2.8-3.4-2.3-7.3,0.4-10.5
	c-0.6-0.7-1.1-1.4-1.6-2.1c-1.7-3,0.3-5.9,3.2-6.5c-0.8-0.2-0.5-1.4,0.5-1.2c6.6,1,12.7,3.5,18.9,5.6c2.2,0.5,4.5,1,6.7,1.4
	c4.2,0.8,8.5,1.5,12.8,2c4,0.2,8.1,0.1,12.1,0.1c18,0.1,36.2-0.5,53.5-5.4c0.8-0.3,1.2,1,0.4,1.2c-0.3,0.1-0.6,0.2-0.8,0.3
	c0.2,0.1,0.4,0.2,0.6,0.3c0.2,0,0.3-0.1,0.5-0.1c1.3-0.3,2.5-0.3,3.4,0.2c0,0.2-0.1,0.3-0.1,0.5c0,2.4,0,4.8,0.7,7.2
	c-0.1,0.1-0.1,0.1-0.2,0.2c1.4,2.1,2.2,4.4,2.5,7.1c0.1,0.5,0,1-0.2,1.4c-2.4,1.1-4.8,2.1-7.4,2.3c-0.2-0.1-0.4-0.3-0.6-0.4
	c-14.5,3-29.8,5-44.9,4.8c-2.5,0.1-5.1,0.1-7.5,0.2c-9.8,0.1-19.9,0.3-29.8-0.5c-8.7-0.8-16.7-3.7-24.7-7
	C96.5,705.3,97.2,704.1,97.9,704.4z M199.9,690.9c0.1-0.1,0.1-0.2,0.2-0.3c-1.7,0.3-3.3,0.7-5,1
	C196.8,691.4,198.3,691.2,199.9,690.9z"/>
<path class="st3" d="M92.2,724.9c0.3-1.7,2.8-3.5,4.7-3.3c2.2,0.3,4.4,0.5,6.7,0.8c-3-0.5-6.2-1.1-9.2-1.6c-0.8-0.2-0.5-1.4,0.4-1.2
	c20.6,3.7,41.1,7.4,62.1,8.3c20.2,0.9,40.3-0.4,60.4-1.8c0.9-0.1,0.9,1.2,0,1.3c-1,0.1-2.1,0.2-3.1,0.2c2.2,0.2,4.1,1.5,3.8,4.2
	c-0.3,1.7-0.2,2.9,0.5,4.5c2.1,5.4-7.3,7.7-9.3,2.4c-0.3-0.8-1-1.2-1.8-1.2c-2.3-6.8-11.6-6.8-18.3-6.2c-7.9-0.1-15.7-0.4-23.7-0.9
	c-3.9-0.3-13.7-1.2-13.6,4.5c0,0.1,0,0.1,0,0.2c-0.6,1-1.1,2.3-1.2,3.7c-0.1,0-0.1,0-0.2,0c-13.3,0-26.6,0-39.9,0c-3,0-6.1,0-9.1,0
	c-2.6,0-5.4,0.3-7.6-1.1C89.2,734.8,91.6,728.9,92.2,724.9z M210.7,728.3c0.5-0.3,1-0.4,1.6-0.6c-0.7,0.1-1.6,0.1-2.3,0.2
	C210.3,727.9,210.5,728.1,210.7,728.3z M173.8,729.5c-2.1,0-4.3,0-6.4,0C169.5,729.5,171.7,729.5,173.8,729.5z"/>
<path class="st3" d="M157.7,735.3c0.1,0,0.2,0,0.3-0.1c1-0.1,2.1-0.2,3.1-0.2c-0.3,0.2-0.6,0.3-0.9,0.5c-0.1,0-0.2,0-0.3,0
	C159.2,735.6,158.5,735.5,157.7,735.3z"/>
<path class="st3" d="M105.9,669c-1.5-3.4,0.9-8.2,2.9-11.8c-1.1-2.6,0.3-6.3,4.3-6.3c0.2,0,0.4,0,0.6,0c-0.3-0.3-0.6-0.4-0.8-0.7
	c-0.6-0.5,0.3-1.4,1-0.9c2.1,1.7,4.3,3.3,6.5,4.8c2,0.7,4,1.5,6,2.5c1.1,0.5,1.8,1.3,2.1,2.1c0.4,0.2,0.7,0.3,1.1,0.4
	c5.9,2.2,11.9,3.5,18,4c0.6,0,1.1,0,1.7,0c13.9-0.1,27.9-1.5,40.6-7c0.8-0.3,1.5,0.8,0.7,1.1c0.1,0,0.2,0,0.4,0
	c3.2,0,4.8,2.5,4.7,4.8c1.6,1,2.1,3,1.7,4.7c1.3,1.2,1.7,3.1,1.1,4.7c0.5-0.2,0.8-0.3,1.2-0.5c0.8-0.3,1.5,0.8,0.7,1.1
	c-1,0.4-2,0.8-3,1.1c-0.7,0.8-1.9,1.3-3.3,1.3c-0.4,0-0.7,0-1.1,0c-4.4,1-9,1.5-13.6,2c-9.1,0.8-18.2,1.6-27.4,1.7
	c-7.3,0.1-14.5-0.3-21.6-1.3c-7.2-0.8-15.3-2-21.5-5c-0.7-0.4-1.4-0.8-1.8-1.4c-0.4-0.2-0.6-0.3-1-0.4
	C105.4,669.8,105.5,669.2,105.9,669z M186.2,659.4c0.4-0.2,0.7-0.3,1.1-0.5c0,0,0.1,0,0.1-0.1c0.1-0.1,0.2-0.2,0.2-0.3
	c-1.4,0.5-2.8,1-4.1,1.4C184.4,659.8,185.3,659.6,186.2,659.4z"/>
<path class="st4" d="M155.3,529.9c0.5-1.1,0.3-0.8,1.4-1.4c0.7-0.3,1.9-0.4,3.2-0.5c1.4-0.7,3-1.1,5-1.1c1.1,0,2.1,0.2,3,0.4
	c0.8-0.1,1.7-0.2,2.4-0.3c7.4-0.8,15.4-1.6,22.2,1.8c5.5,2.7,8.4,7.8,9.1,13.4c0.6,4.8-0.1,9.7-1.1,14.6c0.4,4.8-0.7,9.2-2.8,13.8
	c-1.6,9.8-2.6,19.6-2.8,29.5c0,0.3-0.3,0.6-0.6,0.6c0.8,3.4-3.3,4.6-6.4,4c-4.4-0.8-8.7-2.7-12.7-5c-2.8-0.5-5.1-2.2-6.7-4.7
	c-1.8-1.5-3.7-3.2-4.5-5.5c-1.2-3.7-0.5-8.4-1.1-12.3c-0.4-2-0.6-3.9-0.7-5.9c-1.2-4.2-1.9-8.6-2.8-12.9c-0.3-3.4-1-6.8-1.8-10.1
	c-1-4.2-1.5-8.6-2.7-12.7c0-0.3,0.1-0.7,0.1-1C155,532.7,154.9,531,155.3,529.9z"/>
<g>
	<g>
		<path d="M177.8,642.8c18.1,11,26.3,30.7,32.3,49.1c7.4,22.6,11.2,46,11.2,69.6c0,1.6-2.8,1.6-2.8,0c-0.1-22.3-3.4-44.5-10.1-65.9
			c-5.9-18.6-13.7-39.4-32.1-50.6C175,644.2,176.4,642,177.8,642.8L177.8,642.8z"/>
	</g>
</g>
<g>
	<g>
		<path d="M175.3,644.5c4.9-11.3,11.9-21.8,15.3-33.5c1.7-5.5,2.6-11.9-0.6-17.1c-3.1-4.9-9.1-7.7-15.2-8
			c-10.8-0.4-21.7,5.7-29.6,12c-9.6,7.6-16.5,17.7-20.3,28.8c-0.6,1.5-3.2,0.9-2.7-0.7c4.2-12.2,11.9-23.3,22.9-31.3
			c8.7-6.5,20.4-12.6,32-11.1c11.9,1.4,18.8,11,17.5,21.7c-1.7,14.3-11.1,26.8-16.7,39.9C177.3,646.7,174.6,646.1,175.3,644.5
			L175.3,644.5z"/>
	</g>
</g>
<g>
	<g>
		<path d="M125,626.8c-23.5,42.4-34.3,90.2-31,137.7c0.1,1.6-2.7,1.6-2.8,0c-3.2-48,7.7-96.2,31.4-139
			C123.5,624.1,125.8,625.3,125,626.8L125,626.8z"/>
	</g>
</g>
<g>
	<g>
		<path d="M192.8,601.6c-10.2-1.1-19-6.4-24.2-14.6c-0.5-0.7,0.7-1.4,1.2-0.7c4.9,7.8,13.2,12.9,23,14
			C193.7,600.4,193.7,601.6,192.8,601.6L192.8,601.6z"/>
	</g>
</g>
<g>
	<g>
		<path d="M192.9,606.6c-12.7-1.9-25.7-7.4-29.8-19.5c-0.3-0.8,1.1-1.1,1.3-0.3c4,11.7,16.7,16.8,28.9,18.6
			C194.1,605.5,193.7,606.7,192.9,606.6L192.9,606.6z"/>
	</g>
</g>
<g>
	<g>
		<path d="M126.6,637.6c7.7,14.9,27.4,20,42.3,10.9c0.7-0.4,1.5,0.7,0.7,1.1c-15.5,9.4-36.2,4.2-44.2-11.3
			C125,637.4,126.2,636.8,126.6,637.6L126.6,637.6z"/>
	</g>
</g>
<g>
	<g>
		<path d="M180.7,621.9c-2.8,0.6-4.5,4.8-8,3.7c-1-0.3-1.6-1.2-1.7-2.1c-0.3-2,0-4.2,0-6.2c0-0.8,1.4-0.8,1.4,0c0,1.4,0,2.7-0.1,4.1
			c0,1.5-0.1,3.7,2.4,3c2.2-0.7,3.1-3,5.6-3.6C181.1,620.5,181.5,621.8,180.7,621.9L180.7,621.9z"/>
	</g>
</g>
<g>
	<g>
		<path d="M128,673.1c-20.9,4.1-41.1-8-57.7-18.5c-16.9-10.7-31.7-24.3-40.9-41.4c-0.4-0.8,0.8-1.4,1.2-0.7
			c8.8,16.6,23,29.7,39.2,40.2c7.6,4.9,15.7,9.3,24,13.2c10.7,5.1,21.8,8.2,33.8,5.9C128.4,671.7,128.8,672.9,128,673.1L128,673.1z"
			/>
	</g>
</g>
<g>
	<g>
		<path d="M156.3,728.7c7.8,0.8,15.7,1.3,23.6,1.4c6.8,0.1,14.1-1,20.8-0.2c4.6,0.6,7.2,3.4,8,7.5c1.1,5.4,0.9,11.8,0.6,17.2
			c-0.3,4.4-3.5,5.3-7.9,5.9c-7,1-14.3,0.8-21.4,1c-7.2,0.1-14.8,0.6-21.9-0.3c-3.9-0.5-6.7-2.1-7.5-5.8c-0.6-3.1-0.4-6.5-0.5-9.5
			c-0.1-3.5-0.4-7.1-0.2-10.6c0.2-3.2,2.1-7.1,6.3-5.6c0.8,0.3,0.5,1.5-0.4,1.2c-5.7-2-4.5,9.3-4.4,11.1c0.1,2.6,0.1,5.2,0.2,7.8
			c0.1,3.8,0.1,8.6,5,9.9c2.6,0.7,5.5,0.5,8.2,0.6c6.2,0.1,12.6,0.1,18.9-0.1c6.2-0.2,14.2,0.7,20-1.4c6.3-2.2,4.4-11.2,4.2-16.4
			c-0.1-2.9-0.1-6.2-2.2-8.7c-2.6-3-6.5-2.6-10.3-2.5c-13,0.4-26.1,0-39-1.3C155.3,729.9,155.3,728.6,156.3,728.7L156.3,728.7z"/>
	</g>
</g>
<g>
	<g>
		<path d="M204.4,734.7c-6.3,4.2-13.1,8-20.2,11c-0.8,0.3-1.5-0.8-0.7-1.1c7.2-3.1,13.9-6.8,20.2-11
			C204.4,733.1,205,734.2,204.4,734.7L204.4,734.7z"/>
	</g>
</g>
<g>
	<g>
		<path d="M182.6,746.6c-9.1-2.5-17.6-6.2-25.6-11c-0.7-0.4-0.1-1.5,0.7-1.1c7.9,4.7,16.3,8.2,25.3,10.8
			C183.8,745.7,183.4,746.9,182.6,746.6L182.6,746.6z"/>
	</g>
</g>
<g>
	<g>
		<path d="M158,739.1c0.5,5.1,0.7,10.2,0.7,15.3c0,0.8-1.4,0.8-1.4,0c0-5.1-0.3-10.2-0.7-15.3C156.5,738.3,157.9,738.3,158,739.1
			L158,739.1z"/>
	</g>
</g>
<g>
	<g>
		<path d="M149.3,739.5c-18.1-0.2-36.1-0.3-54.2-0.4c-0.9,0-0.9-1.3,0-1.3c18.1,0.2,36.1,0.3,54.2,0.4
			C150.2,738.2,150.2,739.5,149.3,739.5L149.3,739.5z"/>
	</g>
</g>
<g>
	<g>
		<path d="M148.8,750.9c-17.3-0.2-34.6-0.3-51.9-0.4c-0.9,0-0.9-1.3,0-1.3c17.3,0.2,34.6,0.3,51.9,0.4
			C149.7,749.7,149.7,750.9,148.8,750.9L148.8,750.9z"/>
	</g>
</g>
<g>
	<g>
		<path d="M210.2,741c2.2-0.4,4.4-0.5,6.6-0.3c0.9,0.1,0.9,1.4,0,1.3c-2.1-0.2-4.2-0.1-6.2,0.3C209.6,742.4,209.2,741.2,210.2,741
			L210.2,741z"/>
	</g>
</g>
<g>
	<g>
		<path d="M209.4,749.5c3,0.3,6.1,0.2,9-0.7c0.8-0.3,1.2,1,0.4,1.2c-3.1,0.8-6.2,1.1-9.4,0.7C208.6,750.7,208.6,749.4,209.4,749.5
			L209.4,749.5z"/>
	</g>
</g>
<g>
	<g>
		<path d="M199.1,668.2c33.2-15.5,71.8-19.8,108.1-11.8c0.8,0.2,0.5,1.4-0.4,1.2c-35.9-7.9-74-3.7-107,11.7
			C199,669.8,198.2,668.7,199.1,668.2L199.1,668.2z"/>
	</g>
</g>
<g>
	<g>
		<path d="M123.9,654.9c10.5,15.5,4,33.8-5.3,48.3c-0.5,0.7-1.7,0.1-1.2-0.7c9.2-14.1,15.6-31.8,5.3-47
			C122.3,654.8,123.5,654.2,123.9,654.9L123.9,654.9z"/>
	</g>
</g>
<ellipse class="st7" cx="3.4" cy="592.1" rx="33.9" ry="31.4"/>
<ellipse class="st8" cx="3.4" cy="592.1" rx="7.3" ry="6.7"/>
</svg>
