<?xml version="1.0" encoding="utf-8"?>
<!-- Generator: Adobe Illustrator 21.0.0, SVG Export Plug-In . SVG Version: 6.00 Build 0)  -->
<svg version="1.1" id="Layer_1" xmlns="http://www.w3.org/2000/svg" xmlns:xlink="http://www.w3.org/1999/xlink" x="0px" y="0px"
	 viewBox="0 0 1366 768" style="enable-background:new 0 0 1366 768;" xml:space="preserve">
<style type="text/css">
	.st0{fill:#FF101C;stroke:#85FFFC;stroke-miterlimit:10;}
	.st1{fill:#435EFF;}
	.st2{fill:#ED1C24;}
	.st3{fill:#2E5BFF;}
	.st4{fill:#2E65FF;}
	.st5{fill:none;stroke:#000000;stroke-width:2;stroke-miterlimit:10;}
	.st6{fill:none;stroke:#000000;stroke-miterlimit:10;}
	.st7{fill:#49A047;stroke:#000000;stroke-miterlimit:10;}
</style>
<path class="st0" d="M455.8,633.3c-4.3-1.1-8.6-2-12.5-4.4c-6.9,3.2-12.6,8.6-19,12.5c-8.3,5.1-16.9,9.6-24.8,15.3
	c-1.1,0.8-2.3,1-3.3,0.7c-1,0.9-1.9,1.7-2.8,2.6c-2.6,2.5-6.1,0.9-7.2-1.7c-0.3,0.2-0.5,0.3-0.8,0.5c-0.1-0.4-0.3-0.9-0.4-1.3
	c-0.5-1.7-1.4-3.3-2.4-4.7c0.8-1.5,1.5-2.9,2.2-4.4c-0.4-8.2-1.7-16.5-3.6-24.5c-1.4-6.2-3.1-12.7-2.7-19.1
	c-0.8-0.1-1.5-0.2-2.4-0.2c-1.1,0-2.2,0.2-3.3,0.4c-1.7,8.9-7.2,15.8-12.1,23.3c-0.1,0.1-0.1,0.2-0.2,0.3c-0.7,2.2-1.3,3.5-2.4,5.7
	c-2.8,5.7-6.1,11.3-8.9,17c-2.1,2.3-4.4,4.6-6.6,6.9c0.2,6.2-2.1,12-5,17.6c-0.3,13.4-8.6,24.4-13.3,36.6c0.7,1,1.4,2,2.3,2.9
	c3.4,3.5,8.2,5.3,12.5,7.2c5,2.2,10,4.2,15.1,6.1c7.7,2.7,15.5,5,23.5,6.6c0.6-0.4,1.4-0.7,2.4-0.8c10.5-0.2,20.6,3.3,31.1,3.3
	c3.2-0.2,6.5-0.5,9.6-1.2c7.4-1.7,14.6-4.3,22-5.5c2.5-2.1,4-5,4.7-8.2c-0.6-3.7-1.2-7.4-1.9-11c-1.3-2-3.1-3.6-5.5-4.5
	c0.4-11-0.9-22.1-3.6-32.8c0.2-0.5,0.5-1.1,0.7-1.6c0.3-0.6,0.6-1.2,0.9-1.7c-0.2-0.6-0.2-1.3-0.1-2c1.2-7.5,2.9-16.3,8.4-22
	c2.1-2.2,4.6-3.5,7.4-4.6c1.2-3,2.1-6,2.1-9.3l0,0C455.9,633.4,455.9,633.4,455.8,633.3z"/>
<path class="st1" d="M749.8,705.7c-0.7,0.4-1.4,0.7-2,0.7c-1.4,0.9-2.8,1.9-4,3c-0.3,0.3-0.6,0.6-0.9,0.9c-4.1-1.6-8.8-1.6-12.6,1.1
	c-1.1,0.7-2.1,1.4-3.2,2c0.3-0.2-2.3,0.9-2.6,1c-1.2,0.4-2.4,0.6-3.7,0.9c-0.6,0.1-2.2,0.4-2.1,0.4c-6.1,0.8-12.3,1-18.4,1.8
	c-5.5,0.8-10.7,2.2-16,3.7c-3.2-1-6.6-1.3-10-1.2c-1.6,0-3.1,0.3-4.7,0.4c-0.7,0.1-6.2-0.1-3.7,0.3c-4.1-0.7-8.2-0.2-11.5,1.7
	c-6.5-0.6-12.9-1.4-19.4-2.5c-9.3-1.6-18.3-3-27.4-3.2c-1-0.5-2-1-3-1.3c-2.5-1-5.1-1.7-7.7-2.4c-0.7-0.2-1.4-0.4-2.1-0.6
	c-1.7-1.2-3.4-2.5-5.2-3.7c-3.5-2.5-7.4-2.8-11-1.7c-2-1.1-4.2-2-6.6-2.7c-1.3-0.4-2.5-0.5-3.7-0.5v0.1c0,0.3,0,0.5,0,0.7
	c0,0.1,0,0.2,0,0.3c0.3,5.3,0.6,10.7,0.8,16c0.1,1.2,0.2,2.5,0.4,3.7c1.4,0.6,2.4,1.9,2.5,3.8c0.2,7.4,1.5,14.6,0.3,22
	c-0.6,3.9-1.7,7.6-2.8,11.3c2.7,3.6,6.9,6.1,12,6.1c19.8-0.1,39.5-0.1,59.3-0.2c15.1,0,32.3,1.1,47.4-3c4.5,0.5,9.1,0.9,13.6,1.1
	c8.4,0.4,16.7-0.3,25-1.6c3.7-0.6,7.4-1.4,11-2.4c2.1-0.6,4.2-1.3,6.3-2c0.1,0,0.3-0.1,0.4-0.1c6.1,1.5,12.8-2.4,15.8-7.7
	c-2.4-10.4-1.7-20.6-0.5-31.5c0.2-1.5,0.9-2.6,1.9-3.3c0.5-6.2,1.1-12.3,1.9-18.5c-0.7,0-1.4,0.1-2.1,0.1
	C757.5,700.9,753.6,703.3,749.8,705.7z"/>
<g>
	<g>
		<path class="st2" d="M652.5,521.5c-0.4,1.5-1.2,2.8-2.3,3.9c0.9,0.4,1.7,0.7,2.6,1.1c0.2-2.6,0.5-5.2,1-7.8c-1-0.1-2-0.3-2.9-0.4
			c-0.3,3.4-1.1,6.2-2.6,9.2c0.9,0.1,1.8,0.2,2.7,0.4c-0.8-3.7-1-7.3-0.7-11.1c-1,0-2,0-3,0c0.2,3.9-0.4,7.5-1.9,11.1
			c1,0.1,2,0.3,2.9,0.4c-0.3-2.8-0.1-5.1,0.9-7.8c-1-0.3-1.9-0.5-2.9-0.8c-1,3.9-2,7.8-3,11.7c-0.3,1,0.7,2.3,1.8,1.8
			c1.5-0.5,2.3-1.1,3.1-2.5c1-1.5-1.1-2.8-2.4-1.8c-1.5,1.3-2.2,2.4-2.7,4.3c-0.4,1.4,1.5,2.5,2.5,1.5c10-10.3,26.4-4.2,38.4-1.6
			c1.4,0.3,2.6-1.4,1.5-2.5c-1.6-1.6-4.1-2.4-5.6-4c-2.9-3.1-1.7-6.7-2.6-10.4c-0.9,0.4-1.8,0.8-2.7,1.2c1.6,3.4,3.2,6.8,4.9,10.2
			c0.7,1.6,3.2,0.5,2.7-1.2c-0.8-2.7-1.4-5.3-2-8c-0.9,0.4-1.8,0.8-2.7,1.2c1.4,2.9,2.5,5.9,3.4,9c0.9-0.4,1.8-0.8,2.7-1.2
			c-1.3-2.5-2.6-4.9-3.9-7.4c-0.6-1.1-2-0.8-2.6,0s-0.7,1.4-0.8,2.4c-0.1,2,1,2.7-1.2,3.3c-2,0.5-5.6-0.6-7.7-0.8
			c-3.2-0.2-6.5-0.1-9.7,0.1c0.1,1,0.3,2,0.4,2.9c5.7-1.6,11.2-2,17-1c1.9,0.3,2.7-2.5,0.8-2.9c-8.2-1.6-16.5-2.1-24.8-1.4
			c-1.5,0.1-2,1.9-0.8,2.8c2.6,1.8,5.3,1.7,8.3,1.2c5.1-0.8,10.3-2,15.4-3c1.4-0.3,1.5-2.6,0-2.9c-6.7-1.1-13.5-1.6-20.3-1.2
			c0,1,0,2,0,3c4.3-0.4,8.6-0.9,12.8-1.7c2.8-0.5,5.5-0.6,7.1-3.1c-0.8,0.1-1.6,0.2-2.4,0.3c0.1,0.6,0.3,1.3,0.4,1.9
			c0.9,0,1.7,0,2.6,0c0.3-0.5,0.7-1,1-1.5c0.7,0.3,1.7,0.2,2.1-0.5c1.2-2.4-0.5-4.9-3.3-4.6c-1.2,0.1-1.7,0.8-2.7,1.2
			c-2.1,1-3.8,1.4-6,1.7c-5.5,0.8-10.4,0.6-15.6-1.4c-1-0.4-1.9,0.6-1.9,1.4c-0.1,2.5,0.3,4.3,1.3,6.6c0.5,1.1,2.1,0.9,2.6,0
			c0.6-1,0.3-1.5,0.5-2.5c0.1-0.4-0.7-1.4-0.5-1.7c0.7-1.6,4.7-0.5,5.6-0.3c1.6,0.3,2.7-1.8,1.2-2.7c-2.8-1.6-5.3-2.3-8.5-2
			c-1.2,0.1-1.8,1.2-1.3,2.3c2.1,4.2,5.5,7,10,8.3c1.9,0.6,2.6-2.3,0.8-2.9c-3.8-1.1-6.4-3.4-8.2-6.9c-0.4,0.8-0.9,1.5-1.3,2.3
			c2.7-0.2,4.7,0.2,7,1.6c0.4-0.9,0.8-1.8,1.2-2.7c-2.3-0.5-6.7-1.6-8.7,0.3c-1.9,1.8,0.8,4-0.2,5.6c0.9,0,1.7,0,2.6,0
			c-0.8-1.6-1.1-3.3-0.9-5.1c-0.6,0.5-1.3,1-1.9,1.4c4.6,1.8,9.1,2.3,14,1.8c2-0.2,4-0.4,5.9-0.8c0.9-0.2,5.5-1.5,5.9-2.3
			c0.7-0.2,1.4-0.4,2.1-0.5c-4-1.9-7.7,1.7-5.1,5.6c0.6,0.8,2.1,1.1,2.6,0c0.9-2.2,0.7-3.8-0.9-5.6c-0.7-0.7-1.9-0.5-2.4,0.3
			c-1.1,1.8-6.2,1.9-7.9,2.2c-3.1,0.5-6.2,0.9-9.4,1.1c-1.9,0.2-2,3.1,0,3c6.6-0.3,13,0,19.5,1.1c0-1,0-1.9,0-2.9
			c-3.4,0.7-6.7,1.3-10.1,2c-3.6,0.7-8,2.4-11.3,0.1c-0.3,0.9-0.5,1.9-0.8,2.8c8.1-0.6,16.1-0.2,24,1.3c0.3-1,0.5-1.9,0.8-2.9
			c-6.3-1-12.4-0.7-18.6,1c-1.6,0.5-1.3,3,0.4,2.9c3.9-0.2,7.8-0.2,11.7,0c2.4,0.2,5.8,1.4,8.2,0.6c4.2-1.4,0.5-4.9,2.2-7.2
			c-0.9,0-1.7,0-2.6,0c1.3,2.5,2.6,4.9,3.9,7.4c0.8,1.5,3.2,0.5,2.7-1.2c-0.9-3.4-2.1-6.6-3.7-9.7c-0.8-1.6-3.1-0.4-2.7,1.2
			c0.6,2.7,1.3,5.4,2,8c0.9-0.4,1.8-0.8,2.7-1.2c-1.6-3.4-3.2-6.8-4.9-10.2c-0.7-1.6-3.2-0.4-2.7,1.2c0.9,3.3-0.6,7,1.6,10
			c1.9,2.6,5.2,3.5,7.4,5.7c0.5-0.8,1-1.7,1.5-2.5c-13.2-2.8-30.4-8.8-41.4,2.4c0.8,0.5,1.7,1,2.5,1.5c0.7-1,1.3-2,2-3
			c-0.8-0.6-1.6-1.2-2.4-1.8c-0.4,0.4-0.9,0.7-1.3,1.1c0.6,0.6,1.2,1.2,1.8,1.8c1-3.9,2-7.8,3-11.7c0.5-1.9-2.2-2.6-2.9-0.8
			c-1.1,2.9-1.4,5.5-1,8.6c0.2,1.7,2.3,2,2.9,0.4c1.6-3.9,2.2-7.7,2-11.9c-0.1-1.9-2.9-1.9-3,0c-0.3,4.1,0,7.9,0.8,11.9
			c0.3,1.2,2.2,1.5,2.7,0.4c1.8-3.4,2.7-6.9,3.1-10.7c0.1-1.7-2.6-2.1-2.9-0.4c-0.5,2.9-0.9,5.7-1.1,8.6c-0.1,1.3,1.7,2,2.6,1.1
			c1.5-1.6,2.4-3.1,3.1-5.2C656,520.4,653.1,519.6,652.5,521.5L652.5,521.5z"/>
	</g>
</g>
<g>
	<g>
		<path class="st2" d="M638.9,546.3c4.8-4.7,10.5-7.8,17-9.5c1.9-0.5,1.1-3.4-0.8-2.9c-7,1.7-13.2,5.2-18.4,10.2
			C635.4,545.5,637.6,547.6,638.9,546.3L638.9,546.3z"/>
	</g>
</g>
<g>
	<g>
		<path class="st2" d="M633.1,547.4c0,0.9,0.1,1.8,0.1,2.7c0.5-0.5,1-1,1.5-1.5c0.5-0.6,1.1-1.1,1.6-1.7c0.7-0.1,1.3-0.3,2-0.5
			c0.9-0.4,1.1-0.4,2.1-1.1c-0.7-0.7-1.4-1.4-2.1-2.1c-1.9,2.7-3,5.3-3.6,8.6c0.7-0.3,1.5-0.6,2.2-0.9c-0.1-0.2-0.2-0.3-0.3-0.5
			c-0.7,0.6-1.5,1.1-2.2,1.7c4.6,3.3,9-7.4,10.6-9.9c0.8-1.2-0.8-2.9-2.1-2.1c-0.4,0.3-0.9,0.6-1.3,0.9c0.5,0.9,1,1.7,1.5,2.6
			c1.8-1.3,3.7-2.6,5.5-3.9c-0.6-0.8-1.2-1.6-1.8-2.4c-2,1.9-4.1,3.7-6.1,5.6c0.7,0.7,1.4,1.4,2.1,2.1c4.2-4.1,9.1-7.3,14.6-9.3
			c3.3-1.2,6.8-2.4,10.3-1c1.7,0.7,3.2,1.8,4.9,2.5c2.4,0.9,5.1,1.1,7.4,2.3c2.4,1.3,3.6,3.8,4.9,6.1c1.3,2.4,3.1,6.5,6.2,7.2
			c6.6,1.4,2.5-9.2,0.7-11.4c-5.7-7.1-17.1-9.5-25.3-11.8c-1.9-0.5-2.6,2.2-0.8,2.9c9.3,3.5,17.3,9.6,23.2,17.7
			c0.7-0.7,1.4-1.4,2.1-2.1c-2.7-1.9-4-4.3-4-7.6c-0.9,0.4-1.7,0.7-2.6,1.1c2.6,2.2,4.2,4.7,5,8.1c0.4,1.9,3.3,1.1,2.9-0.8
			c-0.8-3.9-2.7-6.9-5.7-9.4c-1-0.8-2.6-0.3-2.6,1.1c0,4.4,1.9,7.8,5.5,10.2c1.2,0.8,2.9-0.8,2.1-2.1c-6.4-8.8-14.8-15.2-25-19.1
			c-0.3,1-0.5,1.9-0.8,2.9c4.4,1.2,8.9,2.6,13.2,4.3c3.6,1.4,12.9,5,12.6,10.1c-0.3,5-3.1-1-3.7-2.1c-0.6-1.2-1.2-2.4-1.9-3.5
			c-1.5-2.4-3.4-3.9-6-5c-1.9-0.7-3.9-1-5.7-1.6c-2.2-0.8-4-2.2-6.2-3s-4.2-0.6-6.5-0.1c-7.8,1.6-15,6-20.7,11.5
			c-1.4,1.3,0.7,3.4,2.1,2.1c2-1.9,4.1-3.7,6.1-5.6c1.2-1.1-0.4-3.4-1.8-2.4c-1.8,1.3-3.7,2.6-5.5,3.9c-1.6,1.1-0.1,3.7,1.5,2.6
			c0.4-0.3,0.9-0.6,1.3-0.9c-0.7-0.7-1.4-1.4-2.1-2.1c-0.4,0.7-5.6,9.4-6.5,8.8c-1.2-0.9-2.4,0.6-2.2,1.7c0.2,1.4,0.5,1.6,1.7,2.3
			c0.8,0.4,2,0.1,2.2-0.9c0.5-2.9,1.6-5.4,3.3-7.9c0.9-1.2-0.8-2.8-2.1-2.1c-2.4,1.5-7,1.4-7.6,4.9c-0.4,2.3,1.3,4,3.5,3.9
			c0.8,0,1.5-0.7,1.5-1.5c0-0.9-0.1-1.8-0.1-2.7C636,545.5,633,545.5,633.1,547.4L633.1,547.4z"/>
	</g>
</g>
<path class="st3" d="M1025.1,696c-0.6,0.3-1.2,0.5-1.8,0.8c0.2-0.2,0.4-0.5,0.6-0.7c3-4,2.5-8.6-0.4-12.4c0.7-0.8,1.2-1.6,1.7-2.5
	c1.8-3.5-0.3-6.9-3.5-7.6c0.9-0.2,0.5-1.6-0.5-1.4c-7.2,1.2-13.8,4.1-20.6,6.6c-2.4,0.6-4.9,1.2-7.3,1.7c-4.6,1-9.3,1.8-13.9,2.4
	c-4.4,0.2-8.8,0.1-13.2,0.1c-19.6,0.1-39.4-0.6-58.3-6.4c-0.9-0.3-1.3,1.2-0.4,1.4c0.3,0.1,0.6,0.2,0.9,0.3
	c-0.2,0.1-0.4,0.2-0.6,0.3c-0.2,0-0.3-0.1-0.5-0.1c-1.4-0.4-2.7-0.3-3.7,0.2c0,0.2,0.1,0.4,0.1,0.6c0,2.8,0,5.7-0.8,8.5
	c0.1,0.1,0.1,0.1,0.2,0.2c-1.5,2.5-2.4,5.2-2.7,8.4c-0.1,0.6,0,1.2,0.2,1.7c2.6,1.3,5.2,2.5,8.1,2.7c0.2-0.1,0.4-0.3,0.6-0.5
	c15.8,3.5,32.5,5.9,48.9,5.7c2.7,0.1,5.5,0.1,8.2,0.2c10.7,0.1,21.7,0.4,32.4-0.6c9.5-0.9,18.2-4.4,26.9-8.2
	C1026.7,697,1025.9,695.7,1025.1,696z M914.1,680.1c-0.1-0.1-0.1-0.2-0.2-0.3c1.8,0.4,3.6,0.8,5.4,1.2
	C917.5,680.7,915.8,680.4,914.1,680.1z"/>
<path class="st3" d="M1031.2,720.1c-0.3-2-3-4.1-5.1-3.9c-2.4,0.3-4.8,0.6-7.3,0.9c3.3-0.6,6.7-1.3,10-1.9c0.9-0.2,0.5-1.6-0.4-1.4
	c-22.4,4.4-44.8,8.7-67.6,9.8c-22,1.1-43.9-0.5-65.8-2.1c-1-0.1-1,1.4,0,1.5c1.1,0.1,2.3,0.2,3.4,0.2c-2.4,0.2-4.5,1.8-4.1,5
	c0.3,2,0.2,3.4-0.5,5.3c-2.3,6.4,7.9,9.1,10.1,2.8c0.3-0.9,1.1-1.4,2-1.4c2.5-8,12.6-8,19.9-7.3c8.6-0.1,17.1-0.5,25.8-1.1
	c4.2-0.3,14.9-1.4,14.8,5.3c0,0.1,0,0.1,0,0.2c0.7,1.2,1.2,2.7,1.3,4.4c0.1,0,0.1,0,0.2,0c14.5,0,29,0,43.5,0c3.3,0,6.6,0,9.9,0
	c2.8,0,5.9,0.4,8.3-1.3C1034.6,731.8,1032,724.8,1031.2,720.1z M902.3,724.1c-0.5-0.3-1.1-0.5-1.7-0.7c0.8,0.1,1.7,0.1,2.5,0.2
	C902.7,723.7,902.5,723.9,902.3,724.1z M942.5,725.5c2.3,0,4.7,0,7,0C947.2,725.5,944.8,725.5,942.5,725.5z"/>
<path class="st3" d="M960,732.4c-0.1,0-0.2,0-0.3-0.1c-1.1-0.1-2.3-0.2-3.4-0.2c0.3,0.2,0.7,0.4,1,0.6c0.1,0,0.2,0,0.3,0
	C958.4,732.7,959.2,732.6,960,732.4z"/>
<path class="st3" d="M1016.4,654.3c1.6-4-1-9.6-3.2-13.9c1.2-3.1-0.3-7.4-4.7-7.4c-0.2,0-0.4,0-0.6,0c0.3-0.3,0.6-0.5,0.9-0.8
	c0.7-0.6-0.3-1.7-1.1-1.1c-2.3,2-4.7,3.9-7.1,5.6c-2.2,0.8-4.4,1.8-6.5,2.9c-1.2,0.6-2,1.5-2.3,2.5c-0.4,0.2-0.8,0.4-1.2,0.5
	c-6.4,2.6-13,4.1-19.6,4.7c-0.6,0-1.2,0-1.9,0c-15.1-0.1-30.4-1.8-44.2-8.2c-0.9-0.4-1.6,0.9-0.8,1.3c-0.1,0-0.2,0-0.4,0
	c-3.5,0-5.2,2.9-5.1,5.6c-1.7,1.2-2.3,3.5-1.9,5.5c-1.4,1.4-1.8,3.6-1.2,5.5c-0.5-0.2-0.9-0.4-1.3-0.6c-0.9-0.4-1.6,0.9-0.8,1.3
	c1.1,0.5,2.2,0.9,3.3,1.3c0.8,0.9,2.1,1.5,3.6,1.5c0.4,0,0.8,0,1.2,0c4.8,1.2,9.8,1.8,14.8,2.3c9.9,1,19.8,1.9,29.8,2
	c7.9,0.1,15.8-0.3,23.5-1.5c7.8-1,16.7-2.3,23.4-5.9c0.8-0.5,1.5-1,2-1.6c0.4-0.2,0.7-0.3,1.1-0.5
	C1017,655.3,1016.9,654.6,1016.4,654.3z M929,643c-0.4-0.2-0.8-0.4-1.2-0.6c0,0-0.1,0-0.1-0.1c-0.1-0.1-0.2-0.2-0.2-0.3
	c1.5,0.6,3,1.2,4.5,1.7C931,643.5,930,643.3,929,643z"/>
<path class="st4" d="M962.6,490.5c-0.5-1.3-0.3-1-1.5-1.6c-0.8-0.4-2.1-0.5-3.5-0.6c-1.5-0.8-3.3-1.3-5.4-1.3
	c-1.2,0-2.3,0.2-3.3,0.5c-0.9-0.1-1.8-0.2-2.6-0.3c-8.1-1-16.8-1.9-24.2,2.1c-6,3.2-9.1,9.2-9.9,15.8c-0.6,5.6,0.1,11.4,1.2,17.2
	c-0.4,5.7,0.8,10.8,3,16.2c1.7,11.5,2.8,23.1,3,34.7c0,0.4,0.3,0.7,0.6,0.7c-0.9,4,3.6,5.4,7,4.7c4.8-1,9.5-3.2,13.8-5.9
	c3.1-0.6,5.6-2.6,7.3-5.5c2-1.8,4-3.8,4.9-6.5c1.3-4.4,0.5-9.9,1.2-14.5c0.4-2.3,0.6-4.6,0.8-6.9c1.3-5,2.1-10.1,3-15.2
	c0.3-4,1.1-8,2-11.9c1.1-4.9,1.6-10.1,2.9-15c0-0.4-0.1-0.8-0.1-1.2C963,493.8,963.1,491.8,962.6,490.5z"/>
<g>
	<g>
		<path d="M691.9,583.2c13.3-1.5,27.1,2.6,36.9,11.8c9.2,8.6,15.5,20.9,20.7,32.2c11,24.1,15,51,10.8,77.2c-0.3,1.9,2.6,2.7,2.9,0.8
			c4.4-27.7,0.1-55.8-11.9-81.1c-5.6-12-12.5-24.9-22.9-33.4c-10.1-8.3-23.6-11.9-36.6-10.5C690,580.4,690,583.4,691.9,583.2
			L691.9,583.2z"/>
	</g>
</g>
<g>
	<g>
		<path d="M638.6,581.2c-14.7-1.6-27,3.9-39.1,11.6c-1.9,1.2-3.3,2.4-4.6,4.3c-3.2,4.9-6.1,10.1-9.1,15.2
			c-16.6,28.4-23.8,61.3-18.6,93.9c0.3,1.9,3.2,1.1,2.9-0.8c-5-31.2,1.8-62.7,17.4-90c2.9-5.1,6.1-10.1,9.1-15.2
			c1.2-2.1,2.3-3.4,4.4-4.8c11.6-7.5,23.4-12.8,37.6-11.2C640.5,584.4,640.5,581.4,638.6,581.2L638.6,581.2z"/>
	</g>
</g>
<g>
	<g>
		<path d="M642.1,582.4c-0.5-9.5-1.2-19.5,2-28.7c3-8.5,10.5-16.8,20-17.2c9.7-0.5,17.1,7.8,20.2,16.3c3.4,9.3,2.8,19.5,3,29.2
			c0,1.9,3,1.9,3,0c-0.3-11.4,0.5-23.8-5-34.3c-4.1-7.9-11.9-14.5-21.2-14.2c-9.1,0.4-16.9,7.1-20.9,14.9c-5.4,10.4-4.7,22.7-4.1,34
			C639.2,584.3,642.2,584.4,642.1,582.4L642.1,582.4z"/>
	</g>
</g>
<g>
	<g>
		<path d="M645.7,586.9c5,4.1,10.4,8.4,17,9.4c7.5,1,14.2-2.9,20.3-6.6c0.8-0.5,0.1-1.8-0.8-1.3c-5.5,3.3-11.4,6.9-18,6.6
			c-6.8-0.3-12.5-5-17.5-9.1C646,585.2,644.9,586.3,645.7,586.9L645.7,586.9z"/>
	</g>
</g>
<g>
	<g>
		<path d="M644.1,592.2c8.4,13.1,25.7,15.8,37.8,6c0.8-0.6-0.3-1.7-1.1-1.1c-11.3,9.2-27.5,6.5-35.4-5.7
			C644.9,590.6,643.6,591.4,644.1,592.2L644.1,592.2z"/>
	</g>
</g>
<g>
	<g>
		<path d="M646.8,588.2c0.1,2,0.1,4-0.2,6c-0.1,1,1.4,0.9,1.5,0c0.2-2,0.3-4,0.2-6C648.3,587.2,646.8,587.2,646.8,588.2L646.8,588.2
			z"/>
	</g>
</g>
<g>
	<g>
		<path d="M649.9,590.9c-0.1,1.8-0.3,3.6-0.7,5.3c-0.2,0.9,1.2,1.3,1.4,0.4c0.4-1.9,0.7-3.8,0.8-5.7
			C651.4,589.9,649.9,589.9,649.9,590.9L649.9,590.9z"/>
	</g>
</g>
<g>
	<g>
		<path d="M661.6,595.9c0.1,2.4,0.1,4.8-0.1,7.3c-0.1,1,1.4,1,1.5,0c0.2-2.4,0.2-4.8,0.1-7.3C663,594.9,661.5,594.9,661.6,595.9
			L661.6,595.9z"/>
	</g>
</g>
<g>
	<g>
		<path d="M665.9,596.4c0,2.1,0,4.2,0,6.3c0,1,1.5,1,1.5,0c0-2.1,0-4.2,0-6.3C667.4,595.4,665.9,595.4,665.9,596.4L665.9,596.4z"/>
	</g>
</g>
<g>
	<g>
		<path d="M675.4,593.9c0.1,2,0.2,4,0.3,6c0,1,1.5,1,1.5,0c-0.1-2-0.2-4-0.3-6C676.8,592.9,675.3,592.9,675.4,593.9L675.4,593.9z"/>
	</g>
</g>
<g>
	<g>
		<path d="M678.1,591.7c0.1,2.2,0.2,4.3,0.3,6.5c0,1,1.5,1,1.5,0c-0.1-2.2-0.2-4.3-0.3-6.5C679.5,590.7,678,590.7,678.1,591.7
			L678.1,591.7z"/>
	</g>
</g>
<g>
	<g>
		<path d="M657.6,552.2c1,2.8,2.6,6.4,6.1,6.3c3.4-0.1,4.9-3.7,5.7-6.5c0.3-0.9-1.2-1.3-1.4-0.4c-0.6,2.1-1.6,5.3-4.3,5.4
			c-2.7,0.1-3.9-3.1-4.6-5.2C658.7,550.9,657.2,551.3,657.6,552.2L657.6,552.2z"/>
	</g>
</g>
<g>
	<g>
		<path d="M692.8,582.2c-0.9-0.1-1.9-0.2-2.8-0.3c0,0.3,0,0.7,0,1c0.7,0,1.5,0,2.2-0.1c0.6,0,0.7-0.8,0.1-1
			c-0.6-0.1-1.2-0.3-1.8-0.4c-0.1,0.3-0.2,0.6-0.3,1c0.6,0.1,1.2,0,1.8-0.3c0.4-0.2,0.3-0.7,0-0.9c-0.4-0.3-0.8-0.4-1.3-0.4
			c-0.6,0-0.6,1,0,1c0.5,0,1,0,1.6,0s0.7-0.8,0.1-1c-0.9-0.3-1.8-0.5-2.7-0.8c-0.4-0.1-0.8,0.4-0.6,0.7c0.4,0.6,1,1.3,0.7,2
			c-0.2,0.6,0.8,0.9,1,0.3c0.3-1.1-0.2-2-0.8-2.8c-0.2,0.2-0.4,0.5-0.6,0.7c0.9,0.3,1.8,0.5,2.7,0.8c0-0.3,0.1-0.7,0.1-1
			c-0.5,0-1,0-1.6,0c0,0.3,0,0.7,0,1c0.3,0,0.6,0,0.8,0.2c0-0.3,0-0.6,0-0.9c-0.3,0.2-0.6,0.2-1,0.2c-0.6-0.1-0.9,0.8-0.3,1
			c0.6,0.1,1.2,0.3,1.8,0.4c0-0.3,0.1-0.7,0.1-1c-0.7,0-1.5,0-2.2,0.1c-0.7,0-0.6,0.9,0,1c0.9,0.1,1.9,0.2,2.8,0.3
			C693.5,583.3,693.5,582.3,692.8,582.2L692.8,582.2z"/>
	</g>
</g>
<g>
	<g>
		<path d="M596.3,621c0.7,5.4,3.2,10.3,7.3,14c1.9,1.7,4.1,2.6,6.3,3.9c2.7,1.6,1.6,2.4,1,5c-0.4,1.9-0.9,3.7-1.3,5.6
			c-0.9,3.5-1.2,7.9-2.9,11.1c-1.8,3.5-3.5,1.6-5.9,0.1c-1.7-1.1-3.3-2.4-4.7-3.9c-4.7-4.8-7.9-10.9-10.6-17c-0.5-1.2-2.2-0.2-1.7,1
			c3.2,7.1,7,14.3,13,19.3c2.6,2.2,9.1,7.6,11.4,2.8c2.1-4.3,2.7-10.1,3.9-14.8c0.5-2.2,2.9-7.3,1.6-9.6c-0.4-0.6-1-0.8-1.6-1.1
			c-2.5-1.3-4.7-2-6.9-3.9c-3.9-3.4-6.1-8-6.8-13.1C598,619.2,596.1,619.7,596.3,621L596.3,621z"/>
	</g>
</g>
<g>
	<g>
		<path d="M729.3,617.4c-0.7,4.8-2.7,9.3-6.3,12.6c-1.9,1.8-3.9,2.9-6.2,3.9c-0.8,0.4-2.3,0.6-2.8,1.5c-1.3,2.3,0.8,6.5,1.3,8.8
			c1.2,4.9,1.9,11.2,4.1,15.7c2.2,4.6,8.2-0.3,10.8-2.4c6.3-5.1,10.3-12.5,13.5-19.8c0.5-1.2-1.2-2.2-1.7-1
			c-2.7,6.1-5.9,12.2-10.6,17c-1.3,1.3-2.6,2.5-4.1,3.5c-0.8,0.5-1.6,1-2.4,1.5c-1.5,1.6-2.5,1.6-3.2,0c-2.4-2.1-3-9.1-3.7-12.2
			c-0.5-1.9-0.9-3.7-1.3-5.6c-0.6-2.5-1.5-3.6,0.9-5c2.2-1.4,4.5-2.2,6.5-4c4.1-3.6,6.6-8.6,7.3-14
			C731.4,616.7,729.5,616.2,729.3,617.4L729.3,617.4z"/>
	</g>
</g>
<g>
	<g>
		<path d="M610,652.2c21.3,5.7,46,7.3,63.1-9.1c0.9-0.9-0.5-2.3-1.4-1.4c-16.6,15.8-40.6,14-61.2,8.5
			C609.3,650,608.8,651.9,610,652.2L610,652.2z"/>
	</g>
</g>
<g>
	<g>
		<path d="M650.3,644.5c5.6,9.3,16.5,11.2,26.6,11.5c13.6,0.4,27.2-1.5,40.3-5.2c1.2-0.4,0.7-2.3-0.5-1.9c-11.1,3.2-22.5,5-34.1,5.2
			c-10.8,0.2-24.2-0.1-30.5-10.5C651.3,642.4,649.6,643.4,650.3,644.5L650.3,644.5z"/>
	</g>
</g>
<rect x="639.1" y="619.4" class="st5" width="46" height="63"/>
<polyline class="st5" points="685.1,679.5 695.8,681.2 703.6,631.1 685.1,628.2 "/>
<path class="st5" d="M669.2,682.4c-8.8,5.4-17.7,10.8-26.5,16.1c-7.9-14.3-15.7-28.7-23.6-43c-1.1-2-2.2-4.1-3.3-6.1
	c8-3.8,15.9-7.7,23.9-11.5"/>
<g>
	<g>
		<path d="M566.7,705c1.5,9.6,2.4,19.2,2.7,28.9c0.1,1.9,3.1,1.9,3,0c-0.3-10-1.2-19.9-2.8-29.7C569.3,702.3,566.4,703.1,566.7,705
			L566.7,705z"/>
	</g>
</g>
<g>
	<g>
		<path d="M760.2,704c-2,10.5-3.7,21-5.1,31.5c-0.3,1.9,2.6,2.7,2.9,0.8c1.5-10.5,3.2-21.1,5.1-31.5
			C763.4,702.9,760.5,702.1,760.2,704L760.2,704z"/>
	</g>
</g>
<g>
	<g>
		<path d="M571.7,703.6c27.3,14.3,58.2,19.6,88.8,19.2c16.3-0.2,32.5-2,48.6-4.5c14.9-2.3,29.7-5.2,43.2-12.2
			c1.7-0.9,0.2-3.5-1.5-2.6c-13.2,6.8-27.9,9.6-42.4,11.9c-15.8,2.5-31.8,4.2-47.8,4.4c-30.1,0.4-60.5-4.7-87.3-18.8
			C571.5,700.1,570,702.7,571.7,703.6L571.7,703.6z"/>
	</g>
</g>
<g>
	<g>
		<path d="M575.1,730.6c4.2-0.1,8.4-2.7,11.9-4.8c3.7-2.2,6.9-4.8,9.4-8.3c0.8-1.2-1.1-2.3-1.9-1.1c-2.3,3.2-5.2,5.5-8.5,7.4
			c-3.1,1.8-7.1,4.4-10.8,4.5C573.6,728.3,573.6,730.6,575.1,730.6L575.1,730.6z"/>
	</g>
</g>
<g>
	<g>
		<path d="M728.2,718.5c4.1,7.6,12.3,11.9,20.8,11c1.4-0.2,1.4-2.4,0-2.3c-7.8,0.9-15.2-2.9-18.9-9.9
			C729.5,716.1,727.5,717.3,728.2,718.5L728.2,718.5z"/>
	</g>
</g>
<g>
	<g>
		<path d="M656,722.4c-0.6,9.2-0.8,18.3-0.5,27.5c0,1.4,2.3,1.5,2.3,0c-0.3-9.2-0.1-18.3,0.5-27.5C658.4,721,656.1,721,656,722.4
			L656,722.4z"/>
	</g>
</g>
<g>
	<g>
		<path d="M647.6,731.5c-1.8-2.4-5.1-2.5-7-0.1c-2,2.5-1.2,6.4,1.5,8c2.6,1.5,6.3,0.7,7.2-2.4c0.8-2.7,0.5-7.1-3.1-7.3
			c-1.4-0.1-1.4,2.1,0,2.3c2,0.2,1.6,8.3-3,5.6c-1.4-0.8-2-2.7-1.2-4.2c0.7-1.3,2.6-2,3.6-0.6C646.5,733.8,648.5,732.7,647.6,731.5
			L647.6,731.5z"/>
	</g>
</g>
<g>
	<g>
		<path d="M570.6,755.3c3.9-18.4,1.2-38.2-0.9-56.8c-0.2-1.9-3.2-1.9-3,0c2,18.2,4.8,37.9,1,56C567.3,756.4,570.2,757.2,570.6,755.3
			L570.6,755.3z"/>
	</g>
</g>
<g>
	<g>
		<path d="M754.8,735.4c-0.1,5.4,0.4,10.7,1.6,15.9c0.4,1.9,3.3,1.1,2.9-0.8c-1.1-5-1.6-10-1.5-15.1
			C757.9,733.5,754.9,733.5,754.8,735.4L754.8,735.4z"/>
	</g>
</g>
<g>
	<g>
		<path d="M642.8,535.8c1.1-6.1,2.6-13.2,5.9-18.5c4.1-6.6,9.2,0.9,14.2,1.3c5,0.4,9.9-6.2,14.6-2.3c2.1,1.7,3.2,5.2,4.3,7.5
			c1.7,3.8,3,7.7,4.2,11.6c0.6,1.8,3.4,1.1,2.9-0.8c-1.9-6.5-4.4-17.1-10.3-21.3c-6.2-4.5-11.2,3.9-17.3,1.7
			c-4.8-1.7-8.8-6.3-13.6-1.5c-5.1,5-6.7,14.9-7.9,21.6C639.6,536.8,642.5,537.7,642.8,535.8L642.8,535.8z"/>
	</g>
</g>
<g>
	<g>
		<path d="M632.4,545.7c9.3-8.5,21.4-13.6,34.1-14c6-0.2,12.2,0.5,17.7,3.1c6.3,2.9,16.4,13.6,7.2,19.4c-1.6,1-0.1,3.6,1.5,2.6
			c6.1-3.8,6-11.3,2.3-16.8c-4.2-6.3-11.7-9.4-19-10.6c-16.6-2.7-33.6,3-45.9,14.2C628.9,544.9,631,547,632.4,545.7L632.4,545.7z"/>
	</g>
</g>
<g>
	<g>
		<path d="M632.7,541.8c-3,0.9-4.5,4-3.9,7c0.7,3.7,4.3,5.7,7.5,7c1.8,0.7,2.6-2.2,0.8-2.9c-1.9-0.8-4.1-1.8-5-3.8
			c-0.7-1.6-0.4-3.9,1.5-4.4C635.4,544.1,634.6,541.2,632.7,541.8L632.7,541.8z"/>
	</g>
</g>
<path class="st6" d="M579.1,682.4"/>
<path class="st6" d="M610.1,607.4"/>
<path class="st7" d="M568.1,702.3"/>
<g>
	<g>
		<path d="M938.1,623.5c-19.7,13-28.6,36.2-35.2,57.8c-8.1,26.6-12.2,54.2-12.2,82c0,1.9,3,1.9,3,0c0.1-26.3,3.7-52.4,11-77.6
			c6.4-21.9,14.9-46.4,34.9-59.6C941.2,625.1,939.7,622.5,938.1,623.5L938.1,623.5z"/>
	</g>
</g>
<g>
	<g>
		<path d="M940.9,625.5c-5.3-13.3-13-25.7-16.7-39.5c-1.8-6.5-2.8-14,0.7-20.1c3.4-5.8,9.9-9.1,16.5-9.4
			c11.8-0.5,23.6,6.7,32.2,14.1c10.5,8.9,18,20.8,22.1,33.9c0.6,1.8,3.5,1.1,2.9-0.8c-4.6-14.4-13-27.4-24.9-36.9
			c-9.5-7.6-22.2-14.8-34.8-13.1c-13,1.7-20.5,12.9-19.1,25.6c1.9,16.8,12.1,31.6,18.2,47C938.7,628,941.6,627.3,940.9,625.5
			L940.9,625.5z"/>
	</g>
</g>
<g>
	<g>
		<path d="M995.6,604.6c25.6,49.9,37.3,106.2,33.8,162.2c-0.1,1.9,2.9,1.9,3,0c3.5-56.5-8.4-113.3-34.2-163.7
			C997.3,601.4,994.8,602.9,995.6,604.6L995.6,604.6z"/>
	</g>
</g>
<g>
	<g>
		<path d="M921.8,574.9c11.1-1.3,20.7-7.5,26.3-17.2c0.5-0.8-0.8-1.6-1.3-0.8c-5.3,9.2-14.4,15.2-25,16.5
			C920.8,573.5,920.8,575,921.8,574.9L921.8,574.9z"/>
	</g>
</g>
<g>
	<g>
		<path d="M921.7,580.8c13.8-2.2,28-8.7,32.5-23c0.3-0.9-1.2-1.3-1.4-0.4c-4.4,13.8-18.2,19.8-31.5,21.9
			C920.4,579.5,920.8,581,921.7,580.8L921.7,580.8z"/>
	</g>
</g>
<g>
	<g>
		<path d="M993.9,617.3c-8.4,17.6-29.8,23.5-46.1,12.8c-0.8-0.5-1.6,0.8-0.8,1.3c16.9,11.1,39.4,4.9,48.1-13.3
			C995.6,617.1,994.3,616.4,993.9,617.3L993.9,617.3z"/>
	</g>
</g>
<g>
	<g>
		<path d="M935,598.9c3,0.7,4.9,5.6,8.7,4.3c1.1-0.4,1.7-1.4,1.9-2.5c0.3-2.3,0-4.9,0-7.3c0-1-1.5-1-1.5,0c0,1.6,0,3.2,0.1,4.8
			c0,1.8,0.1,4.4-2.6,3.5c-2.4-0.8-3.4-3.5-6.1-4.2C934.5,597.2,934.1,598.7,935,598.9L935,598.9z"/>
	</g>
</g>
<g>
	<g>
		<path d="M1105.4,576c2.6-7,4.4-14.2,5.4-21.6c0.1-0.9-1.3-1.4-1.4-0.4c-1,7.4-2.9,14.6-5.4,21.6
			C1103.6,576.5,1105,576.9,1105.4,576L1105.4,576z"/>
	</g>
</g>
<g>
	<g>
		<path d="M992.4,659.1c22.8,4.8,44.7-9.4,62.8-21.8c18.4-12.6,34.5-28.6,44.5-48.8c0.4-0.9-0.9-1.6-1.3-0.8
			c-9.6,19.5-25,35-42.7,47.3c-8.3,5.8-17.1,10.9-26.1,15.6c-11.6,6-23.7,9.7-36.8,6.9C991.9,657.5,991.5,658.9,992.4,659.1
			L992.4,659.1z"/>
	</g>
</g>
<g>
	<g>
		<path d="M1079.8,559.5c6.5,10.9,13,21.8,20.5,32.1c2.1,2.9,12.7,20,17.2,15.2c1.5-1.6,0.9-5.2,0.6-7.1c-0.8-4.5-3.2-7.7-5.6-11.4
			c-7.9-11.7-15.1-23.8-22.7-35.7c-0.5-0.8-1.8-0.1-1.3,0.8c5.5,8.7,11.1,17.4,16.6,26.2c2.6,4,5.1,8,7.8,12c1.9,2.8,4.9,7.5,4,11.1
			c-1.6,6.7-10.2-5.1-11.7-7c-3.2-4.1-6.3-8.4-9.2-12.8c-5.3-7.9-10.1-16-15-24.1C1080.7,557.9,1079.4,558.6,1079.8,559.5
			L1079.8,559.5z"/>
	</g>
</g>
<ellipse class="st5" cx="1063.1" cy="526.8" rx="36.5" ry="36.9"/>
<ellipse class="st5" cx="1063.2" cy="527" rx="31.5" ry="31.9"/>
<g>
	<g>
		<path d="M961.6,724.6c-8.5,0.9-17.1,1.5-25.7,1.7c-7.4,0.1-15.4-1.2-22.7-0.2c-5,0.7-7.8,4-8.7,8.8c-1.2,6.3-1,13.9-0.7,20.2
			c0.3,5.2,3.8,6.2,8.6,6.9c7.6,1.2,15.6,1,23.3,1.2c7.8,0.1,16.1,0.7,23.8-0.3c4.2-0.6,7.3-2.5,8.2-6.8c0.7-3.6,0.4-7.6,0.5-11.2
			c0.1-4.1,0.4-8.4,0.2-12.5c-0.2-3.8-2.3-8.4-6.9-6.6c-0.9,0.3-0.5,1.8,0.4,1.4c6.2-2.4,4.9,11,4.8,13.1c-0.1,3.1-0.1,6.1-0.2,9.2
			c-0.1,4.5-0.1,10.1-5.4,11.6c-2.8,0.8-6,0.6-8.9,0.7c-6.8,0.1-13.7,0.1-20.6-0.1c-6.7-0.2-15.5,0.8-21.8-1.6
			c-6.9-2.6-4.8-13.2-4.6-19.3c0.1-3.4,0.1-7.3,2.4-10.2c2.8-3.5,7.1-3.1,11.2-3c14.2,0.5,28.4,0,42.5-1.5
			C962.6,726,962.6,724.5,961.6,724.6L961.6,724.6z"/>
	</g>
</g>
<g>
	<g>
		<path d="M909.2,731.7c6.9,5,14.3,9.4,22,13c0.9,0.4,1.6-0.9,0.8-1.3c-7.8-3.6-15.1-8-22-13C909.2,729.8,908.5,731.1,909.2,731.7
			L909.2,731.7z"/>
	</g>
</g>
<g>
	<g>
		<path d="M932.9,745.7c9.9-3,19.2-7.3,27.9-12.9c0.8-0.5,0.1-1.8-0.8-1.3c-8.6,5.5-17.8,9.7-27.5,12.7
			C931.6,744.6,932,746,932.9,745.7L932.9,745.7z"/>
	</g>
</g>
<g>
	<g>
		<path d="M959.7,736.9c-0.5,6-0.8,12-0.8,18c0,1,1.5,1,1.5,0c0-6,0.3-12,0.8-18C961.3,735.9,959.8,735.9,959.7,736.9L959.7,736.9z"
			/>
	</g>
</g>
<g>
	<g>
		<path d="M969.2,737.3c19.7-0.2,39.3-0.3,59-0.5c1,0,1-1.5,0-1.5c-19.7,0.2-39.3,0.3-59,0.5C968.2,735.8,968.2,737.3,969.2,737.3
			L969.2,737.3z"/>
	</g>
</g>
<g>
	<g>
		<path d="M969.7,750.8c18.8-0.2,37.7-0.3,56.5-0.5c1,0,1-1.5,0-1.5c-18.8,0.2-37.7,0.3-56.5,0.5
			C968.7,749.3,968.7,750.8,969.7,750.8L969.7,750.8z"/>
	</g>
</g>
<g>
	<g>
		<path d="M902.9,739.1c-2.4-0.5-4.8-0.6-7.2-0.4c-1,0.1-1,1.6,0,1.5c2.3-0.2,4.6-0.1,6.8,0.3C903.5,740.7,903.9,739.3,902.9,739.1
			L902.9,739.1z"/>
	</g>
</g>
<g>
	<g>
		<path d="M903.7,749.1c-3.3,0.4-6.6,0.2-9.8-0.8c-0.9-0.3-1.3,1.2-0.4,1.4c3.4,1,6.8,1.3,10.2,0.8
			C904.6,750.5,904.6,749,903.7,749.1L903.7,749.1z"/>
	</g>
</g>
<g>
	<g>
		<path d="M915,653.4c-36.2-18.3-78.2-23.3-117.7-13.9c-0.9,0.2-0.5,1.7,0.4,1.4c39.1-9.3,80.6-4.3,116.5,13.8
			C915.1,655.2,915.9,653.9,915,653.4L915,653.4z"/>
	</g>
</g>
<g>
	<g>
		<path d="M996.8,637.7c-11.4,18.3-4.4,39.8,5.8,56.9c0.5,0.8,1.8,0.1,1.3-0.8c-10-16.6-17-37.5-5.8-55.4
			C998.6,637.6,997.3,636.9,996.8,637.7L996.8,637.7z"/>
	</g>
</g>
<g>
	<g>
		<path d="M422.9,562.6c8.2-5.4,18.5-12.6,29-10c9.4,2.4,13.3,12.1,12.6,21.1c-0.1,1.9,2.9,1.9,3,0c0.7-9.1-3-19.3-11.9-23
			c-12-5-24.4,2.9-34.1,9.3C419.7,561.1,421.2,563.7,422.9,562.6L422.9,562.6z"/>
	</g>
</g>
<g>
	<g>
		<path d="M315.8,756.4c10.9-52.1,28-104.2,59.8-147.5c9.2-12.6,19.7-24.2,31.2-34.7c1.4-1.3-0.7-3.4-2.1-2.1
			c-40.4,36.8-65.1,86.8-80.5,138.5c-4.4,14.8-8.1,29.9-11.3,45C312.6,757.5,315.5,758.3,315.8,756.4L315.8,756.4z"/>
	</g>
</g>
<g>
	<g>
		<path d="M464.5,572.7c-3.3,18.4-10.2,35.8-20.7,51.3c-1.1,1.6,1.5,3.1,2.6,1.5c10.6-15.7,17.6-33.4,21-52.1
			C467.7,571.6,464.8,570.8,464.5,572.7L464.5,572.7z"/>
	</g>
</g>
<g>
	<g>
		<path d="M378,608.2c0.9,10.7,2,21.5,3.5,32.1c0.8,5.7,1.7,11.5,2.7,17.2c0.4,2.2,0.3,7.3,3.3,7.8c1,0.2,2.1-0.6,3-1.1
			c2.6-1.3,5.1-3,7.6-4.5c5-3,10.1-6,15.1-9c10.1-6,20.1-12.1,30.1-18.3c1.6-1,0.1-3.6-1.5-2.6c-16.4,10-32.9,20-49.4,29.8
			c-0.8,0.5-1.7,1-2.5,1.5c-1.8,0.9-2.6,0.4-2.3-1.6c-1-1.9-1-5.5-1.3-7.6c-0.7-4.5-1.4-8.9-2-13.4c-1.4-10.1-2.5-20.2-3.3-30.4
			C380.8,606.3,377.8,606.3,378,608.2L378,608.2z"/>
	</g>
</g>
<g>
	<g>
		<path d="M451,639.9c-16.8,14.3-17,35.5-12.4,55.5c2.7,11.7,6.1,23.2,6.4,35.3c0.2,12.8-2.6,25.5-8.2,37c-0.8,1.7,1.7,3.3,2.6,1.5
			c9.7-20.1,10.1-41.1,5.1-62.5c-2.7-11.2-6-22.6-5.7-34.3c0.4-11.9,5.4-22.8,14.4-30.5C454.6,640.8,452.5,638.7,451,639.9
			L451,639.9z"/>
	</g>
</g>
<g>
	<g>
		<path d="M442.4,631.8c5.2,2.2,10.8,3.2,16,5.2c5.9,2.2,10.6,6.2,14.1,11.4c6.8,10.2,8,22.9,7.5,34.9c-0.8,22.4-9.6,48.3-32.6,56.6
			c-1.4,0.5-0.8,2.7,0.6,2.2c24-8.6,33.4-35.2,34.3-58.7c0.5-12.5-0.9-26.1-8.3-36.6c-3-4.3-6.9-8-11.7-10.4c-6.1-3-13.1-4-19.4-6.6
			C441.6,629.1,441.1,631.3,442.4,631.8L442.4,631.8z"/>
	</g>
</g>
<g>
	<g>
		<path d="M441.1,667.8c10.9,9.1,16.7,26.3,6.5,38.2c-0.9,1.1,0.6,2.7,1.6,1.6c10.9-12.7,5.5-31.4-6.5-41.3
			C441.6,665.3,440,666.9,441.1,667.8L441.1,667.8z"/>
	</g>
</g>
<g>
	<g>
		<path d="M385.1,611.5c3.9,13.8,15.6,20.2,29.4,19c1-0.1,1-1.6,0-1.5c-13.1,1.1-24.3-4.7-27.9-17.9
			C386.3,610.1,384.9,610.5,385.1,611.5L385.1,611.5z"/>
	</g>
</g>
<g>
	<g>
		<path d="M409.8,590.4c-0.6,3.5-0.9,8.4,3.3,9.7c3.2,1,8.2,0.2,9.3-3.4c0.3-0.9-1.2-1.3-1.4-0.4c-0.8,2.8-5.1,3.2-7.4,2.4
			c-3.2-1.1-2.7-5.2-2.3-7.9C411.4,589.8,410,589.4,409.8,590.4L409.8,590.4z"/>
	</g>
</g>
<g>
	<g>
		<path d="M321.6,727.8c37,22,83,26.4,123.6,12c0.9-0.3,0.5-1.8-0.4-1.4c-40.2,14.3-85.7,9.9-122.4-11.8
			C321.5,726,320.8,727.3,321.6,727.8L321.6,727.8z"/>
	</g>
</g>
<g>
	<g>
		<path d="M324.6,718.3c37.7,17.4,80.8,26.6,120.9,12.1c0.9-0.3,0.5-1.8-0.4-1.4c-39.8,14.4-82.5,5.3-119.8-11.9
			C324.5,716.6,323.7,717.9,324.6,718.3L324.6,718.3z"/>
	</g>
</g>
<g>
	<g>
		<path d="M331.7,722.3c-0.4,2.3-0.8,4.7-1.1,7c-0.2,0.9,1.3,1.4,1.4,0.4c0.4-2.3,0.8-4.7,1.1-7
			C333.3,721.8,331.9,721.4,331.7,722.3L331.7,722.3z"/>
	</g>
</g>
<g>
	<g>
		<path d="M342.6,726.6c-1.2,2.3-2.1,4.7-2.5,7.2c-0.2,0.9,1.3,1.4,1.4,0.4c0.4-2.4,1.2-4.7,2.4-6.9
			C344.3,726.5,343,725.7,342.6,726.6L342.6,726.6z"/>
	</g>
</g>
<g>
	<g>
		<path d="M352.6,729.5c0,3.2,0,6.3,0,9.5c0,1,1.5,1,1.5,0c0-3.2,0-6.3,0-9.5C354.1,728.5,352.6,728.5,352.6,729.5L352.6,729.5z"/>
	</g>
</g>
<g>
	<g>
		<path d="M366.6,734c0,3.2,0,6.3,0,9.5c0,1,1.5,1,1.5,0c0-3.2,0-6.3,0-9.5C368.1,733,366.6,733,366.6,734L366.6,734z"/>
	</g>
</g>
<g>
	<g>
		<path d="M378.6,736.5c-0.2,2.9,0,5.8,0.6,8.7c0.2,0.9,1.6,0.5,1.4-0.4c-0.5-2.7-0.7-5.5-0.5-8.3
			C380.1,735.5,378.6,735.5,378.6,736.5L378.6,736.5z"/>
	</g>
</g>
<g>
	<g>
		<path d="M391.7,738c-0.1,2.8,0.3,5.6,1.2,8.3c0.3,0.9,1.7,0.5,1.4-0.4c-0.8-2.6-1.2-5.2-1.2-7.9C393.2,737,391.7,737,391.7,738
			L391.7,738z"/>
	</g>
</g>
<g>
	<g>
		<path d="M404.1,738.2c0.8,2.2,1.1,4.5,1,6.8c-0.1,1,1.4,1,1.5,0c0.1-2.5-0.2-4.9-1-7.2C405.2,736.9,403.7,737.3,404.1,738.2
			L404.1,738.2z"/>
	</g>
</g>
<g>
	<g>
		<path d="M413,737.5c0.3,2.3,0.6,4.7,0.9,7c0.1,0.9,1.6,1,1.5,0c-0.3-2.3-0.6-4.7-0.9-7C414.4,736.6,412.9,736.5,413,737.5
			L413,737.5z"/>
	</g>
</g>
<g>
	<g>
		<path d="M421.6,736.5c0,2.2,0,4.3,0,6.5c0,1,1.5,1,1.5,0c0-2.2,0-4.3,0-6.5C423.1,735.5,421.6,735.5,421.6,736.5L421.6,736.5z"/>
	</g>
</g>
<g>
	<g>
		<path d="M431.1,734.5c0,2.7,0,5.3,0,8c0,1,1.5,1,1.5,0c0-2.7,0-5.3,0-8C432.6,733.5,431.1,733.5,431.1,734.5L431.1,734.5z"/>
	</g>
</g>
<g>
	<g>
		<path d="M438.4,732.3c-0.5,2.4-0.6,4.8-0.3,7.2c0.1,1,1.6,1,1.5,0c-0.2-2.3-0.2-4.6,0.3-6.8C440.1,731.7,438.6,731.3,438.4,732.3
			L438.4,732.3z"/>
	</g>
</g>
<g>
	<g>
		<path d="M419,557.9c-5.4-1.8-12.3-2-16,3.1c-3.3,4.6-1.6,10,3.2,12.6c4.7,2.5,10.9,3.3,14.6-1.4c3.6-4.6,2-10.8-2.2-14.4
			c-0.7-0.6-1.8,0.4-1.1,1.1c3.3,2.9,5.1,7.6,2.7,11.7c-2.9,4.8-8.8,4.1-13.2,1.8c-4.8-2.6-5.6-8.3-1.4-11.9c3.7-3.1,8.8-2.4,13-1.1
			C419.5,559.6,419.9,558.2,419,557.9L419,557.9z"/>
	</g>
</g>
<g>
	<g>
		<path d="M436.5,569.9c-5.9-1.3-10.7-6-15.7,0.1c-3.2,3.9-5.2,9.9-0.5,13.4c4.3,3.2,10.7,4.4,15,0.7c4.7-3.9,4.3-10.7,0.1-14.7
			c-0.7-0.7-1.8,0.4-1.1,1.1c4.2,4.1,3.7,10.9-1.8,13.6c-3.7,1.8-9.3,0.4-12.2-2.5c-3.4-3.3,0.1-10.5,3.7-12.6
			c3.9-2.3,8.2,1.5,12,2.3C437,571.6,437.4,570.1,436.5,569.9L436.5,569.9z"/>
	</g>
</g>
<g>
	<g>
		<path d="M436.8,581.8c11.7,0,23.3,0.4,35,1.1c1,0.1,1-1.4,0-1.5c-11.7-0.7-23.3-1-35-1.1C435.8,580.3,435.8,581.8,436.8,581.8
			L436.8,581.8z"/>
	</g>
</g>
<g>
	<g>
		<path d="M369,612.7c-28.2,15.5-62.4-3.2-76.2-29.3c-0.7-1.3-2.6-0.1-1.9,1.1c14.4,27.3,50,46.2,79.3,30.1
			C371.4,614,370.2,612,369,612.7L369,612.7z"/>
	</g>
</g>
<g>
	<g>
		<path d="M291.4,583.7c-4.2,3.6-8.3,7.4-10.9,12.4c-2.5,4.8-2.3,7.5-0.9,12.5c2.7,9.7,6.8,19.2,12.4,27.6
			c10.7,16.3,27.4,28.2,47.7,25.7c1.4-0.2,1.4-2.4,0-2.3c-19.2,2.4-35-8.6-45.4-24c-4.8-7.2-8.6-15.2-11.3-23.5
			c-1.5-4.6-3.3-9-1.2-13.7c2.4-5.4,6.7-9.4,11.1-13.2C294.1,584.4,292.5,582.8,291.4,583.7L291.4,583.7z"/>
	</g>
</g>
<g>
	<g>
		<path d="M284,591.3c-1.2-3.4-2.6-6.7-4.4-9.9c-0.9-1.6-2-4.5-4-5.1c-2.2-0.7-5.2,0.7-7.4,0.7c-6.8-0.1-9.2-4.6-9.7-10.9
			c-0.1-1-1.6-1-1.5,0c0.5,5.8,2.1,10.9,8.4,12.1c2.9,0.6,5.6-0.7,8.4-0.4c4.8,0.5,7.5,10.2,8.8,13.9
			C282.9,592.6,284.4,592.2,284,591.3L284,591.3z"/>
	</g>
</g>
<g>
	<g>
		<path d="M186.3,496.5c7.2,17.2,14.4,34.4,21.5,51.5c3.1,7.4,5.6,15.8,9.7,22.7c2.7,4.5,6.6,6.3,11.7,5.6c7.8-1.1,15.7-4.8,23-7.6
			c7.6-2.9,15-6.1,22.4-9.6c5.1-2.4,11.1-5,13.7-10.4c2-4.1,1.4-9.1-2.1-12.1c-0.7-0.6-1.8,0.4-1.1,1.1c7.3,6.1-0.3,14.4-6.1,17.6
			c-5.9,3.3-12.3,5.9-18.5,8.5c-5.7,2.4-11.5,4.6-17.3,6.7c-5.9,2.1-15.9,7.3-21.6,2.7c-5.1-4.2-7.1-13.1-9.5-19
			c-2.7-6.4-5.4-12.9-8.1-19.3c-5.4-12.9-10.8-25.8-16.1-38.6C187.3,495.2,185.9,495.6,186.3,496.5L186.3,496.5z"/>
	</g>
</g>
<g>
	<g>
		<path d="M188.9,498.6c0-0.9,0-1.8-0.1-2.7c0-1-1.5-1-1.5,0c0,0.9,0,1.8,0.1,2.7C187.4,499.6,188.9,499.6,188.9,498.6L188.9,498.6z
			"/>
	</g>
</g>
<g>
	<g>
		<path d="M188.3,497.7c-4.1-8.7,9.8-12.7,15.2-14.9c5.7-2.4,11.4-4.8,17.1-7.2c10.4-4.3,27.5-15.2,36-2.6c2.8,4.2,4.6,9.3,6.6,13.9
			c2.5,5.7,5,11.4,7.5,17.1c5.2,11.7,10.3,23.4,15.5,35.2c0.4,0.9,1.7,0.1,1.3-0.8c-6.6-15-13.2-30.1-19.8-45.1
			c-3-6.8-5.5-14.2-9.4-20.4c-2.5-4-6-6.9-10.8-7.4c-6.4-0.7-12.6,2.5-18.3,4.9c-7.8,3.3-15.6,6.5-23.4,9.8
			c-6.9,2.9-23.9,7.4-18.8,18.3C187.4,499.4,188.7,498.6,188.3,497.7L188.3,497.7z"/>
	</g>
</g>
<g>
	<g>
		<path d="M221,489.7c7.3-3,14.7-6,22-9c0.9-0.4,0.5-1.8-0.4-1.4c-7.3,3-14.7,6-22,9C219.7,488.6,220.1,490.1,221,489.7L221,489.7z"
			/>
	</g>
</g>
<g>
	<g>
		<path d="M226,501c3.5-0.6,6.4-2.4,9.5-4.1c4-2.3,8-4.6,12.1-6.9c0.8-0.5,0.1-1.8-0.8-1.3c-3.6,2-7.1,4-10.7,6.1
			c-3.4,1.9-6.6,4.2-10.5,4.8C224.7,499.7,225.1,501.1,226,501L226,501z"/>
	</g>
</g>
<g>
	<g>
		<path d="M210,523.7c8.6-2.5,17.6-4.6,26-7.9c7.4-2.8,13.6-7.7,20.7-11.1c0.9-0.4,0.1-1.7-0.8-1.3c-7.5,3.5-14,8.7-22,11.5
			s-16.3,4.9-24.4,7.3C208.7,522.6,209.1,524,210,523.7L210,523.7z"/>
	</g>
</g>
<g>
	<g>
		<path d="M215.1,536.5c15.5-5.3,31-10.7,46.5-16c0.9-0.3,0.5-1.8-0.4-1.4c-15.5,5.3-31,10.7-46.5,16
			C213.8,535.3,214.2,536.8,215.1,536.5L215.1,536.5z"/>
	</g>
</g>
<g>
	<g>
		<path d="M225.9,551.9c15.2-4.5,30.4-9.1,45.6-13.6c0.9-0.3,0.5-1.7-0.4-1.4c-15.2,4.5-30.4,9.1-45.6,13.6
			C224.6,550.7,225,552.2,225.9,551.9L225.9,551.9z"/>
	</g>
</g>
<g>
	<g>
		<path d="M236.4,564.9c13-3.8,25.6-8.7,37.8-14.6c0.9-0.4,0.1-1.7-0.8-1.3c-12.1,5.8-24.6,10.7-37.5,14.5
			C235.1,563.7,235.5,565.2,236.4,564.9L236.4,564.9z"/>
	</g>
</g>
</svg>
