<?xml version="1.0" encoding="utf-8"?>
<!-- Generator: Adobe Illustrator 21.0.0, SVG Export Plug-In . SVG Version: 6.00 Build 0)  -->
<svg version="1.1" id="Layer_1" xmlns="http://www.w3.org/2000/svg" xmlns:xlink="http://www.w3.org/1999/xlink" x="0px" y="0px"
	 viewBox="0 0 1366 768" style="enable-background:new 0 0 1366 768;" xml:space="preserve">
<style type="text/css">
	.st0{fill:#29ABE2;stroke:#85FFFC;stroke-miterlimit:10;}
	.st1{fill:#435EFF;}
	.st2{fill:#ED1C24;}
	.st3{fill:#2E5BFF;}
	.st4{fill:#2E65FF;}
	.st5{fill:none;stroke:#000000;stroke-width:2;stroke-miterlimit:10;}
	.st6{fill:none;stroke:#000000;stroke-miterlimit:10;}
	.st7{fill:#49A047;stroke:#000000;stroke-miterlimit:10;}
</style>
<path class="st0" d="M549.5,302.8c-4.3-1.1-8.6-2-12.5-4.4c-6.9,3.2-12.6,8.6-19,12.5c-8.3,5.1-16.9,9.6-24.8,15.3
	c-1.1,0.8-2.3,1-3.3,0.7c-1,0.9-1.9,1.7-2.8,2.6c-2.6,2.5-6.1,0.9-7.2-1.7c-0.3,0.2-0.5,0.3-0.8,0.5c-0.1-0.4-0.3-0.9-0.4-1.3
	c-0.5-1.7-1.4-3.3-2.4-4.7c0.8-1.5,1.5-2.9,2.2-4.4c-0.4-8.2-1.7-16.5-3.6-24.5c-1.4-6.2-3.1-12.7-2.7-19.1
	c-0.8-0.1-1.5-0.2-2.4-0.2c-1.1,0-2.2,0.2-3.3,0.4c-1.7,8.9-7.2,15.8-12.1,23.3c-0.1,0.1-0.1,0.2-0.2,0.3c-0.7,2.2-1.3,3.5-2.4,5.7
	c-2.8,5.7-6.1,11.3-8.9,17c-2.1,2.3-4.4,4.6-6.6,6.9c0.2,6.2-2.1,12-5,17.6c-0.3,13.4-8.6,24.4-13.3,36.6c0.7,1,1.4,2,2.3,2.9
	c3.4,3.5,8.2,5.3,12.5,7.2c5,2.2,10,4.2,15.1,6.1c7.7,2.7,15.5,5,23.5,6.6c0.6-0.4,1.4-0.7,2.4-0.8c10.5-0.2,20.6,3.3,31.1,3.3
	c3.2-0.2,6.5-0.5,9.6-1.2c7.4-1.7,14.6-4.3,22-5.5c2.5-2.1,4-5,4.7-8.2c-0.6-3.7-1.2-7.4-1.9-11c-1.3-2-3.1-3.6-5.5-4.5
	c0.4-11-0.9-22.1-3.6-32.8c0.2-0.5,0.5-1.1,0.7-1.6c0.3-0.6,0.6-1.2,0.9-1.7c-0.2-0.6-0.2-1.3-0.1-2c1.2-7.5,2.9-16.3,8.4-22
	c2.1-2.2,4.6-3.5,7.4-4.6c1.2-3,2.1-6,2.1-9.3c0,0,0,0,0,0C549.6,302.9,549.6,302.9,549.5,302.8z"/>
<path class="st1" d="M844.2,394.8c-0.7,0.4-1.4,0.7-2,0.7c-1.4,0.9-2.8,1.9-4,3c-0.3,0.3-0.6,0.6-0.9,0.9c-4.1-1.6-8.8-1.6-12.6,1.1
	c-1.1,0.7-2.1,1.4-3.2,2c0.3-0.2-2.3,0.9-2.6,1c-1.2,0.4-2.4,0.6-3.7,0.9c-0.6,0.1-2.2,0.4-2.1,0.4c-6.1,0.8-12.3,1-18.4,1.8
	c-5.5,0.8-10.7,2.2-16,3.7c-3.2-1-6.6-1.3-10-1.2c-1.6,0-3.1,0.3-4.7,0.4c-0.7,0.1-6.2-0.1-3.7,0.3c-4.1-0.7-8.2-0.2-11.5,1.7
	c-6.5-0.6-12.9-1.4-19.4-2.5c-9.3-1.6-18.3-3-27.4-3.2c-1-0.5-2-1-3-1.3c-2.5-1-5.1-1.7-7.7-2.4c-0.7-0.2-1.4-0.4-2.1-0.6
	c-1.7-1.2-3.4-2.5-5.2-3.7c-3.5-2.5-7.4-2.8-11-1.7c-2-1.1-4.2-2-6.6-2.7c-1.3-0.4-2.5-0.5-3.7-0.5c0,0,0,0.1,0,0.1
	c0,0.3,0,0.5,0,0.7c0,0.1,0,0.2,0,0.3c0.3,5.3,0.6,10.7,0.8,16c0.1,1.2,0.2,2.5,0.4,3.7c1.4,0.6,2.4,1.9,2.5,3.8
	c0.2,7.4,1.5,14.6,0.3,22c-0.6,3.9-1.7,7.6-2.8,11.3c2.7,3.6,6.9,6.1,12,6.1c19.8-0.1,39.5-0.1,59.3-0.2c15.1,0,32.3,1.1,47.4-3
	c4.5,0.5,9.1,0.9,13.6,1.1c8.4,0.4,16.7-0.3,25-1.6c3.7-0.6,7.4-1.4,11-2.4c2.1-0.6,4.2-1.3,6.3-2c0.1,0,0.3-0.1,0.4-0.1
	c6.1,1.5,12.8-2.4,15.8-7.7c-2.4-10.4-1.7-20.6-0.5-31.5c0.2-1.5,0.9-2.6,1.9-3.3c0.5-6.2,1.1-12.3,1.9-18.5c-0.7,0-1.4,0.1-2.1,0.1
	C851.9,390,848,392.4,844.2,394.8z"/>
<g>
	<g>
		<path class="st2" d="M746.9,210.6c-0.4,1.5-1.2,2.8-2.3,3.9c0.9,0.4,1.7,0.7,2.6,1.1c0.2-2.6,0.5-5.2,1-7.8c-1-0.1-2-0.3-2.9-0.4
			c-0.3,3.4-1.1,6.2-2.6,9.2c0.9,0.1,1.8,0.2,2.7,0.4c-0.8-3.7-1-7.3-0.7-11.1c-1,0-2,0-3,0c0.2,3.9-0.4,7.5-1.9,11.1
			c1,0.1,2,0.3,2.9,0.4c-0.3-2.8-0.1-5.1,0.9-7.8c-1-0.3-1.9-0.5-2.9-0.8c-1,3.9-2,7.8-3,11.7c-0.3,1,0.7,2.3,1.8,1.8
			c1.5-0.5,2.3-1.1,3.1-2.5c1-1.5-1.1-2.8-2.4-1.8c-1.5,1.3-2.2,2.4-2.7,4.3c-0.4,1.4,1.5,2.5,2.5,1.5c10-10.3,26.4-4.2,38.4-1.6
			c1.4,0.3,2.6-1.4,1.5-2.5c-1.6-1.6-4.1-2.4-5.6-4c-2.9-3.1-1.7-6.7-2.6-10.4c-0.9,0.4-1.8,0.8-2.7,1.2c1.6,3.4,3.2,6.8,4.9,10.2
			c0.7,1.6,3.2,0.5,2.7-1.2c-0.8-2.7-1.4-5.3-2-8c-0.9,0.4-1.8,0.8-2.7,1.2c1.4,2.9,2.5,5.9,3.4,9c0.9-0.4,1.8-0.8,2.7-1.2
			c-1.3-2.5-2.6-4.9-3.9-7.4c-0.6-1.1-2-0.8-2.6,0c-0.6,0.8-0.7,1.4-0.8,2.4c-0.1,2,1,2.7-1.2,3.3c-2,0.5-5.6-0.6-7.7-0.8
			c-3.2-0.2-6.5-0.1-9.7,0.1c0.1,1,0.3,2,0.4,2.9c5.7-1.6,11.2-2,17-1c1.9,0.3,2.7-2.5,0.8-2.9c-8.2-1.6-16.5-2.1-24.8-1.4
			c-1.5,0.1-2,1.9-0.8,2.8c2.6,1.8,5.3,1.7,8.3,1.2c5.1-0.8,10.3-2,15.4-3c1.4-0.3,1.5-2.6,0-2.9c-6.7-1.1-13.5-1.6-20.3-1.2
			c0,1,0,2,0,3c4.3-0.4,8.6-0.9,12.8-1.7c2.8-0.5,5.5-0.6,7.1-3.1c-0.8,0.1-1.6,0.2-2.4,0.3c0.1,0.6,0.3,1.3,0.4,1.9
			c0.9,0,1.7,0,2.6,0c0.3-0.5,0.7-1,1-1.5c0.7,0.3,1.7,0.2,2.1-0.5c1.2-2.4-0.5-4.9-3.3-4.6c-1.2,0.1-1.7,0.8-2.7,1.2
			c-2.1,1-3.8,1.4-6,1.7c-5.5,0.8-10.4,0.6-15.6-1.4c-1-0.4-1.9,0.6-1.9,1.4c-0.1,2.5,0.3,4.3,1.3,6.6c0.5,1.1,2.1,0.9,2.6,0
			c0.6-1,0.3-1.5,0.5-2.5c0.1-0.4-0.7-1.4-0.5-1.7c0.7-1.6,4.7-0.5,5.6-0.3c1.6,0.3,2.7-1.8,1.2-2.7c-2.8-1.6-5.3-2.3-8.5-2
			c-1.2,0.1-1.8,1.2-1.3,2.3c2.1,4.2,5.5,7,10,8.3c1.9,0.6,2.6-2.3,0.8-2.9c-3.8-1.1-6.4-3.4-8.2-6.9c-0.4,0.8-0.9,1.5-1.3,2.3
			c2.7-0.2,4.7,0.2,7,1.6c0.4-0.9,0.8-1.8,1.2-2.7c-2.3-0.5-6.7-1.6-8.7,0.3c-1.9,1.8,0.8,4-0.2,5.6c0.9,0,1.7,0,2.6,0
			c-0.8-1.6-1.1-3.3-0.9-5.1c-0.6,0.5-1.3,1-1.9,1.4c4.6,1.8,9.1,2.3,14,1.8c2-0.2,4-0.4,5.9-0.8c0.9-0.2,5.5-1.5,5.9-2.3
			c0.7-0.2,1.4-0.4,2.1-0.5c-4-1.9-7.7,1.7-5.1,5.6c0.6,0.8,2.1,1.1,2.6,0c0.9-2.2,0.7-3.8-0.9-5.6c-0.7-0.7-1.9-0.5-2.4,0.3
			c-1.1,1.8-6.2,1.9-7.9,2.2c-3.1,0.5-6.2,0.9-9.4,1.1c-1.9,0.2-2,3.1,0,3c6.6-0.3,13,0,19.5,1.1c0-1,0-1.9,0-2.9
			c-3.4,0.7-6.7,1.3-10.1,2c-3.6,0.7-8,2.4-11.3,0.1c-0.3,0.9-0.5,1.9-0.8,2.8c8.1-0.6,16.1-0.2,24,1.3c0.3-1,0.5-1.9,0.8-2.9
			c-6.3-1-12.4-0.7-18.6,1c-1.6,0.5-1.3,3,0.4,2.9c3.9-0.2,7.8-0.2,11.7,0c2.4,0.2,5.8,1.4,8.2,0.6c4.2-1.4,0.5-4.9,2.2-7.2
			c-0.9,0-1.7,0-2.6,0c1.3,2.5,2.6,4.9,3.9,7.4c0.8,1.5,3.2,0.5,2.7-1.2c-0.9-3.4-2.1-6.6-3.7-9.7c-0.8-1.6-3.1-0.4-2.7,1.2
			c0.6,2.7,1.3,5.4,2,8c0.9-0.4,1.8-0.8,2.7-1.2c-1.6-3.4-3.2-6.8-4.9-10.2c-0.7-1.6-3.2-0.4-2.7,1.2c0.9,3.3-0.6,7,1.6,10
			c1.9,2.6,5.2,3.5,7.4,5.7c0.5-0.8,1-1.7,1.5-2.5c-13.2-2.8-30.4-8.8-41.4,2.4c0.8,0.5,1.7,1,2.5,1.5c0.7-1,1.3-2,2-3
			c-0.8-0.6-1.6-1.2-2.4-1.8c-0.4,0.4-0.9,0.7-1.3,1.1c0.6,0.6,1.2,1.2,1.8,1.8c1-3.9,2-7.8,3-11.7c0.5-1.9-2.2-2.6-2.9-0.8
			c-1.1,2.9-1.4,5.5-1,8.6c0.2,1.7,2.3,2,2.9,0.4c1.6-3.9,2.2-7.7,2-11.9c-0.1-1.9-2.9-1.9-3,0c-0.3,4.1,0,7.9,0.8,11.9
			c0.3,1.2,2.2,1.5,2.7,0.4c1.8-3.4,2.7-6.9,3.1-10.7c0.1-1.7-2.6-2.1-2.9-0.4c-0.5,2.9-0.9,5.7-1.1,8.6c-0.1,1.3,1.7,2,2.6,1.1
			c1.5-1.6,2.4-3.1,3.1-5.2C750.4,209.5,747.5,208.7,746.9,210.6L746.9,210.6z"/>
	</g>
</g>
<g>
	<g>
		<path class="st2" d="M733.3,235.4c4.8-4.7,10.5-7.8,17-9.5c1.9-0.5,1.1-3.4-0.8-2.9c-7,1.7-13.2,5.2-18.4,10.2
			C729.8,234.6,732,236.7,733.3,235.4L733.3,235.4z"/>
	</g>
</g>
<g>
	<g>
		<path class="st2" d="M727.5,236.5c0,0.9,0.1,1.8,0.1,2.7c0.5-0.5,1-1,1.5-1.5c0.5-0.6,1.1-1.1,1.6-1.7c0.7-0.1,1.3-0.3,2-0.5
			c0.9-0.4,1.1-0.4,2.1-1.1c-0.7-0.7-1.4-1.4-2.1-2.1c-1.9,2.7-3,5.3-3.6,8.6c0.7-0.3,1.5-0.6,2.2-0.9c-0.1-0.2-0.2-0.3-0.3-0.5
			c-0.7,0.6-1.5,1.1-2.2,1.7c4.6,3.3,9-7.4,10.6-9.9c0.8-1.2-0.8-2.9-2.1-2.1c-0.4,0.3-0.9,0.6-1.3,0.9c0.5,0.9,1,1.7,1.5,2.6
			c1.8-1.3,3.7-2.6,5.5-3.9c-0.6-0.8-1.2-1.6-1.8-2.4c-2,1.9-4.1,3.7-6.1,5.6c0.7,0.7,1.4,1.4,2.1,2.1c4.2-4.1,9.1-7.3,14.6-9.3
			c3.3-1.2,6.8-2.4,10.3-1c1.7,0.7,3.2,1.8,4.9,2.5c2.4,0.9,5.1,1.1,7.4,2.3c2.4,1.3,3.6,3.8,4.9,6.1c1.3,2.4,3.1,6.5,6.2,7.2
			c6.6,1.4,2.5-9.2,0.7-11.4c-5.7-7.1-17.1-9.5-25.3-11.8c-1.9-0.5-2.6,2.2-0.8,2.9c9.3,3.5,17.3,9.6,23.2,17.7
			c0.7-0.7,1.4-1.4,2.1-2.1c-2.7-1.9-4-4.3-4-7.6c-0.9,0.4-1.7,0.7-2.6,1.1c2.6,2.2,4.2,4.7,5,8.1c0.4,1.9,3.3,1.1,2.9-0.8
			c-0.8-3.9-2.7-6.9-5.7-9.4c-1-0.8-2.6-0.3-2.6,1.1c0,4.4,1.9,7.8,5.5,10.2c1.2,0.8,2.9-0.8,2.1-2.1c-6.4-8.8-14.8-15.2-25-19.1
			c-0.3,1-0.5,1.9-0.8,2.9c4.4,1.2,8.9,2.6,13.2,4.3c3.6,1.4,12.9,5,12.6,10.1c-0.3,5-3.1-1-3.7-2.1c-0.6-1.2-1.2-2.4-1.9-3.5
			c-1.5-2.4-3.4-3.9-6-5c-1.9-0.7-3.9-1-5.7-1.6c-2.2-0.8-4-2.2-6.2-3c-2.2-0.8-4.2-0.6-6.5-0.1c-7.8,1.6-15,6-20.7,11.5
			c-1.4,1.3,0.7,3.4,2.1,2.1c2-1.9,4.1-3.7,6.1-5.6c1.2-1.1-0.4-3.4-1.8-2.4c-1.8,1.3-3.7,2.6-5.5,3.9c-1.6,1.1-0.1,3.7,1.5,2.6
			c0.4-0.3,0.9-0.6,1.3-0.9c-0.7-0.7-1.4-1.4-2.1-2.1c-0.4,0.7-5.6,9.4-6.5,8.8c-1.2-0.9-2.4,0.6-2.2,1.7c0.2,1.4,0.5,1.6,1.7,2.3
			c0.8,0.4,2,0.1,2.2-0.9c0.5-2.9,1.6-5.4,3.3-7.9c0.9-1.2-0.8-2.8-2.1-2.1c-2.4,1.5-7,1.4-7.6,4.9c-0.4,2.3,1.3,4,3.5,3.9
			c0.8,0,1.5-0.7,1.5-1.5c0-0.9-0.1-1.8-0.1-2.7C730.4,234.6,727.4,234.6,727.5,236.5L727.5,236.5z"/>
	</g>
</g>
<path class="st3" d="M1117.9,371.1c-0.6,0.3-1.2,0.5-1.8,0.8c0.2-0.2,0.4-0.5,0.6-0.7c3-4,2.5-8.6-0.4-12.4c0.7-0.8,1.2-1.6,1.7-2.5
	c1.8-3.5-0.3-6.9-3.5-7.6c0.9-0.2,0.5-1.6-0.5-1.4c-7.2,1.2-13.8,4.1-20.6,6.6c-2.4,0.6-4.9,1.2-7.3,1.7c-4.6,1-9.3,1.8-13.9,2.4
	c-4.4,0.2-8.8,0.1-13.2,0.1c-19.6,0.1-39.4-0.6-58.3-6.4c-0.9-0.3-1.3,1.2-0.4,1.4c0.3,0.1,0.6,0.2,0.9,0.3
	c-0.2,0.1-0.4,0.2-0.6,0.3c-0.2,0-0.3-0.1-0.5-0.1c-1.4-0.4-2.7-0.3-3.7,0.2c0,0.2,0.1,0.4,0.1,0.6c0,2.8,0,5.7-0.8,8.5
	c0.1,0.1,0.1,0.1,0.2,0.2c-1.5,2.5-2.4,5.2-2.7,8.4c-0.1,0.6,0,1.2,0.2,1.7c2.6,1.3,5.2,2.5,8.1,2.7c0.2-0.1,0.4-0.3,0.6-0.5
	c15.8,3.5,32.5,5.9,48.9,5.7c2.7,0.1,5.5,0.1,8.2,0.2c10.7,0.1,21.7,0.4,32.4-0.6c9.5-0.9,18.2-4.4,26.9-8.2
	C1119.5,372.1,1118.7,370.8,1117.9,371.1z M1006.9,355.2c-0.1-0.1-0.1-0.2-0.2-0.3c1.8,0.4,3.6,0.8,5.4,1.2
	C1010.3,355.8,1008.6,355.5,1006.9,355.2z"/>
<path class="st3" d="M1124.1,395.2c-0.3-2-3-4.1-5.1-3.9c-2.4,0.3-4.8,0.6-7.3,0.9c3.3-0.6,6.7-1.3,10-1.9c0.9-0.2,0.5-1.6-0.4-1.4
	c-22.4,4.4-44.8,8.7-67.6,9.8c-22,1.1-43.9-0.5-65.8-2.1c-1-0.1-1,1.4,0,1.5c1.1,0.1,2.3,0.2,3.4,0.2c-2.4,0.2-4.5,1.8-4.1,5
	c0.3,2,0.2,3.4-0.5,5.3c-2.3,6.4,7.9,9.1,10.1,2.8c0.3-0.9,1.1-1.4,2-1.4c2.5-8,12.6-8,19.9-7.3c8.6-0.1,17.1-0.5,25.8-1.1
	c4.2-0.3,14.9-1.4,14.8,5.3c0,0.1,0,0.1,0,0.2c0.7,1.2,1.2,2.7,1.3,4.4c0.1,0,0.1,0,0.2,0c14.5,0,29,0,43.5,0c3.3,0,6.6,0,9.9,0
	c2.8,0,5.9,0.4,8.3-1.3C1127.4,406.9,1124.8,399.9,1124.1,395.2z M995.1,399.2c-0.5-0.3-1.1-0.5-1.7-0.7c0.8,0.1,1.7,0.1,2.5,0.2
	C995.5,398.8,995.3,399,995.1,399.2z M1035.3,400.6c2.3,0,4.7,0,7,0C1040,400.6,1037.6,400.6,1035.3,400.6z"/>
<path class="st3" d="M1052.8,407.5c-0.1,0-0.2,0-0.3-0.1c-1.1-0.1-2.3-0.2-3.4-0.2c0.3,0.2,0.7,0.4,1,0.6c0.1,0,0.2,0,0.3,0
	C1051.2,407.8,1052,407.7,1052.8,407.5z"/>
<path class="st3" d="M1109.2,329.4c1.6-4-1-9.6-3.2-13.9c1.2-3.1-0.3-7.4-4.7-7.4c-0.2,0-0.4,0-0.6,0c0.3-0.3,0.6-0.5,0.9-0.8
	c0.7-0.6-0.3-1.7-1.1-1.1c-2.3,2-4.7,3.9-7.1,5.6c-2.2,0.8-4.4,1.8-6.5,2.9c-1.2,0.6-2,1.5-2.3,2.5c-0.4,0.2-0.8,0.4-1.2,0.5
	c-6.4,2.6-13,4.1-19.6,4.7c-0.6,0-1.2,0-1.9,0c-15.1-0.1-30.4-1.8-44.2-8.2c-0.9-0.4-1.6,0.9-0.8,1.3c-0.1,0-0.2,0-0.4,0
	c-3.5,0-5.2,2.9-5.1,5.6c-1.7,1.2-2.3,3.5-1.9,5.5c-1.4,1.4-1.8,3.6-1.2,5.5c-0.5-0.2-0.9-0.4-1.3-0.6c-0.9-0.4-1.6,0.9-0.8,1.3
	c1.1,0.5,2.2,0.9,3.3,1.3c0.8,0.9,2.1,1.5,3.6,1.5c0.4,0,0.8,0,1.2,0c4.8,1.2,9.8,1.8,14.8,2.3c9.9,1,19.8,1.9,29.8,2
	c7.9,0.1,15.8-0.3,23.5-1.5c7.8-1,16.7-2.3,23.4-5.9c0.8-0.5,1.5-1,2-1.6c0.4-0.2,0.7-0.3,1.1-0.5
	C1109.8,330.4,1109.7,329.7,1109.2,329.4z M1021.8,318.1c-0.4-0.2-0.8-0.4-1.2-0.6c0,0-0.1,0-0.1-0.1c-0.1-0.1-0.2-0.2-0.2-0.3
	c1.5,0.6,3,1.2,4.5,1.7C1023.8,318.6,1022.8,318.4,1021.8,318.1z"/>
<path class="st4" d="M1055.4,165.6c-0.5-1.3-0.3-1-1.5-1.6c-0.8-0.4-2.1-0.5-3.5-0.6c-1.5-0.8-3.3-1.3-5.4-1.3
	c-1.2,0-2.3,0.2-3.3,0.5c-0.9-0.1-1.8-0.2-2.6-0.3c-8.1-1-16.8-1.9-24.2,2.1c-6,3.2-9.1,9.2-9.9,15.8c-0.6,5.6,0.1,11.4,1.2,17.2
	c-0.4,5.7,0.8,10.8,3,16.2c1.7,11.5,2.8,23.1,3,34.7c0,0.4,0.3,0.7,0.6,0.7c-0.9,4,3.6,5.4,7,4.7c4.8-1,9.5-3.2,13.8-5.9
	c3.1-0.6,5.6-2.6,7.3-5.5c2-1.8,4-3.8,4.9-6.5c1.3-4.4,0.5-9.9,1.2-14.5c0.4-2.3,0.6-4.6,0.8-6.9c1.3-5,2.1-10.1,3-15.2
	c0.3-4,1.1-8,2-11.9c1.1-4.9,1.6-10.1,2.9-15c0-0.4-0.1-0.8-0.1-1.2C1055.8,168.9,1055.9,166.9,1055.4,165.6z"/>
<g>
	<g>
		<path d="M786.3,272.3c13.3-1.5,27.1,2.6,36.9,11.8c9.2,8.6,15.5,20.9,20.7,32.2c11,24.1,15,51,10.8,77.2c-0.3,1.9,2.6,2.7,2.9,0.8
			c4.4-27.7,0.1-55.8-11.9-81.1c-5.6-12-12.5-24.9-22.9-33.4c-10.1-8.3-23.6-11.9-36.6-10.5C784.4,269.5,784.4,272.5,786.3,272.3
			L786.3,272.3z"/>
	</g>
</g>
<g>
	<g>
		<path d="M733,270.3c-14.7-1.6-27,3.9-39.1,11.6c-1.9,1.2-3.3,2.4-4.6,4.3c-3.2,4.9-6.1,10.1-9.1,15.2
			c-16.6,28.4-23.8,61.3-18.6,93.9c0.3,1.9,3.2,1.1,2.9-0.8c-5-31.2,1.8-62.7,17.4-90c2.9-5.1,6.1-10.1,9.1-15.2
			c1.2-2.1,2.3-3.4,4.4-4.8c11.6-7.5,23.4-12.8,37.6-11.2C734.9,273.5,734.9,270.5,733,270.3L733,270.3z"/>
	</g>
</g>
<g>
	<g>
		<path d="M736.5,271.5c-0.5-9.5-1.2-19.5,2-28.7c3-8.5,10.5-16.8,20-17.2c9.7-0.5,17.1,7.8,20.2,16.3c3.4,9.3,2.8,19.5,3,29.2
			c0,1.9,3,1.9,3,0c-0.3-11.4,0.5-23.8-5-34.3c-4.1-7.9-11.9-14.5-21.2-14.2c-9.1,0.4-16.9,7.1-20.9,14.9c-5.4,10.4-4.7,22.7-4.1,34
			C733.6,273.4,736.6,273.5,736.5,271.5L736.5,271.5z"/>
	</g>
</g>
<g>
	<g>
		<path d="M740.1,276c5,4.1,10.4,8.4,17,9.4c7.5,1,14.2-2.9,20.3-6.6c0.8-0.5,0.1-1.8-0.8-1.3c-5.5,3.3-11.4,6.9-18,6.6
			c-6.8-0.3-12.5-5-17.5-9.1C740.4,274.3,739.3,275.4,740.1,276L740.1,276z"/>
	</g>
</g>
<g>
	<g>
		<path d="M738.5,281.3c8.4,13.1,25.7,15.8,37.8,6c0.8-0.6-0.3-1.7-1.1-1.1c-11.3,9.2-27.5,6.5-35.4-5.7
			C739.3,279.7,738,280.5,738.5,281.3L738.5,281.3z"/>
	</g>
</g>
<g>
	<g>
		<path d="M741.2,277.3c0.1,2,0.1,4-0.2,6c-0.1,1,1.4,0.9,1.5,0c0.2-2,0.3-4,0.2-6C742.7,276.3,741.2,276.3,741.2,277.3L741.2,277.3
			z"/>
	</g>
</g>
<g>
	<g>
		<path d="M744.3,280c-0.1,1.8-0.3,3.6-0.7,5.3c-0.2,0.9,1.2,1.3,1.4,0.4c0.4-1.9,0.7-3.8,0.8-5.7C745.8,279,744.3,279,744.3,280
			L744.3,280z"/>
	</g>
</g>
<g>
	<g>
		<path d="M756,285c0.1,2.4,0.1,4.8-0.1,7.3c-0.1,1,1.4,1,1.5,0c0.2-2.4,0.2-4.8,0.1-7.3C757.4,284,755.9,284,756,285L756,285z"/>
	</g>
</g>
<g>
	<g>
		<path d="M760.3,285.5c0,2.1,0,4.2,0,6.3c0,1,1.5,1,1.5,0c0-2.1,0-4.2,0-6.3C761.8,284.5,760.3,284.5,760.3,285.5L760.3,285.5z"/>
	</g>
</g>
<g>
	<g>
		<path d="M769.8,283c0.1,2,0.2,4,0.3,6c0,1,1.5,1,1.5,0c-0.1-2-0.2-4-0.3-6C771.2,282,769.7,282,769.8,283L769.8,283z"/>
	</g>
</g>
<g>
	<g>
		<path d="M772.5,280.8c0.1,2.2,0.2,4.3,0.3,6.5c0,1,1.5,1,1.5,0c-0.1-2.2-0.2-4.3-0.3-6.5C773.9,279.8,772.4,279.8,772.5,280.8
			L772.5,280.8z"/>
	</g>
</g>
<g>
	<g>
		<path d="M752,241.3c1,2.8,2.6,6.4,6.1,6.3c3.4-0.1,4.9-3.7,5.7-6.5c0.3-0.9-1.2-1.3-1.4-0.4c-0.6,2.1-1.6,5.3-4.3,5.4
			c-2.7,0.1-3.9-3.1-4.6-5.2C753.1,240,751.6,240.4,752,241.3L752,241.3z"/>
	</g>
</g>
<g>
	<g>
		<path d="M787.2,271.3c-0.9-0.1-1.9-0.2-2.8-0.3c0,0.3,0,0.7,0,1c0.7,0,1.5,0,2.2-0.1c0.6,0,0.7-0.8,0.1-1
			c-0.6-0.1-1.2-0.3-1.8-0.4c-0.1,0.3-0.2,0.6-0.3,1c0.6,0.1,1.2,0,1.8-0.3c0.4-0.2,0.3-0.7,0-0.9c-0.4-0.3-0.8-0.4-1.3-0.4
			c-0.6,0-0.6,1,0,1c0.5,0,1,0,1.6,0c0.6,0,0.7-0.8,0.1-1c-0.9-0.3-1.8-0.5-2.7-0.8c-0.4-0.1-0.8,0.4-0.6,0.7c0.4,0.6,1,1.3,0.7,2
			c-0.2,0.6,0.8,0.9,1,0.3c0.3-1.1-0.2-2-0.8-2.8c-0.2,0.2-0.4,0.5-0.6,0.7c0.9,0.3,1.8,0.5,2.7,0.8c0-0.3,0.1-0.7,0.1-1
			c-0.5,0-1,0-1.6,0c0,0.3,0,0.7,0,1c0.3,0,0.6,0,0.8,0.2c0-0.3,0-0.6,0-0.9c-0.3,0.2-0.6,0.2-1,0.2c-0.6-0.1-0.9,0.8-0.3,1
			c0.6,0.1,1.2,0.3,1.8,0.4c0-0.3,0.1-0.7,0.1-1c-0.7,0-1.5,0-2.2,0.1c-0.7,0-0.6,0.9,0,1c0.9,0.1,1.9,0.2,2.8,0.3
			C787.9,272.4,787.9,271.4,787.2,271.3L787.2,271.3z"/>
	</g>
</g>
<g>
	<g>
		<path d="M690.7,310.1c0.7,5.4,3.2,10.3,7.3,14c1.9,1.7,4.1,2.6,6.3,3.9c2.7,1.6,1.6,2.4,1,5c-0.4,1.9-0.9,3.7-1.3,5.6
			c-0.9,3.5-1.2,7.9-2.9,11.1c-1.8,3.5-3.5,1.6-5.9,0.1c-1.7-1.1-3.3-2.4-4.7-3.9c-4.7-4.8-7.9-10.9-10.6-17c-0.5-1.2-2.2-0.2-1.7,1
			c3.2,7.1,7,14.3,13,19.3c2.6,2.2,9.1,7.6,11.4,2.8c2.1-4.3,2.7-10.1,3.9-14.8c0.5-2.2,2.9-7.3,1.6-9.6c-0.4-0.6-1-0.8-1.6-1.1
			c-2.5-1.3-4.7-2-6.9-3.9c-3.9-3.4-6.1-8-6.8-13.1C692.4,308.3,690.5,308.8,690.7,310.1L690.7,310.1z"/>
	</g>
</g>
<g>
	<g>
		<path d="M823.7,306.5c-0.7,4.8-2.7,9.3-6.3,12.6c-1.9,1.8-3.9,2.9-6.2,3.9c-0.8,0.4-2.3,0.6-2.8,1.5c-1.3,2.3,0.8,6.5,1.3,8.8
			c1.2,4.9,1.9,11.2,4.1,15.7c2.2,4.6,8.2-0.3,10.8-2.4c6.3-5.1,10.3-12.5,13.5-19.8c0.5-1.2-1.2-2.2-1.7-1
			c-2.7,6.1-5.9,12.2-10.6,17c-1.3,1.3-2.6,2.5-4.1,3.5c-0.8,0.5-1.6,1-2.4,1.5c-1.5,1.6-2.5,1.6-3.2,0c-2.4-2.1-3-9.1-3.7-12.2
			c-0.5-1.9-0.9-3.7-1.3-5.6c-0.6-2.5-1.5-3.6,0.9-5c2.2-1.4,4.5-2.2,6.5-4c4.1-3.6,6.6-8.6,7.3-14
			C825.8,305.8,823.9,305.3,823.7,306.5L823.7,306.5z"/>
	</g>
</g>
<g>
	<g>
		<path d="M704.4,341.3c21.3,5.7,46,7.3,63.1-9.1c0.9-0.9-0.5-2.3-1.4-1.4c-16.6,15.8-40.6,14-61.2,8.5
			C703.7,339.1,703.2,341,704.4,341.3L704.4,341.3z"/>
	</g>
</g>
<g>
	<g>
		<path d="M744.7,333.6c5.6,9.3,16.5,11.2,26.6,11.5c13.6,0.4,27.2-1.5,40.3-5.2c1.2-0.4,0.7-2.3-0.5-1.9c-11.1,3.2-22.5,5-34.1,5.2
			c-10.8,0.2-24.2-0.1-30.5-10.5C745.7,331.5,744,332.5,744.7,333.6L744.7,333.6z"/>
	</g>
</g>
<rect x="733.5" y="308.5" class="st5" width="46" height="63"/>
<polyline class="st5" points="779.5,368.6 790.2,370.3 798,320.2 779.5,317.3 "/>
<path class="st5" d="M763.6,371.5c-8.8,5.4-17.7,10.8-26.5,16.1c-7.9-14.3-15.7-28.7-23.6-43c-1.1-2-2.2-4.1-3.3-6.1
	c8-3.8,15.9-7.7,23.9-11.5"/>
<g>
	<g>
		<path d="M661.1,394.1c1.5,9.6,2.4,19.2,2.7,28.9c0.1,1.9,3.1,1.9,3,0c-0.3-10-1.2-19.9-2.8-29.7
			C663.7,391.4,660.8,392.2,661.1,394.1L661.1,394.1z"/>
	</g>
</g>
<g>
	<g>
		<path d="M854.6,393.1c-2,10.5-3.7,21-5.1,31.5c-0.3,1.9,2.6,2.7,2.9,0.8c1.5-10.5,3.2-21.1,5.1-31.5
			C857.8,392,854.9,391.2,854.6,393.1L854.6,393.1z"/>
	</g>
</g>
<g>
	<g>
		<path d="M666.1,392.7c27.3,14.3,58.2,19.6,88.8,19.2c16.3-0.2,32.5-2,48.6-4.5c14.9-2.3,29.7-5.2,43.2-12.2
			c1.7-0.9,0.2-3.5-1.5-2.6c-13.2,6.8-27.9,9.6-42.4,11.9c-15.8,2.5-31.8,4.2-47.8,4.4c-30.1,0.4-60.5-4.7-87.3-18.8
			C665.9,389.2,664.4,391.8,666.1,392.7L666.1,392.7z"/>
	</g>
</g>
<g>
	<g>
		<path d="M669.5,419.7c4.2-0.1,8.4-2.7,11.9-4.8c3.7-2.2,6.9-4.8,9.4-8.3c0.8-1.2-1.1-2.3-1.9-1.1c-2.3,3.2-5.2,5.5-8.5,7.4
			c-3.1,1.8-7.1,4.4-10.8,4.5C668,417.4,668,419.7,669.5,419.7L669.5,419.7z"/>
	</g>
</g>
<g>
	<g>
		<path d="M822.6,407.6c4.1,7.6,12.3,11.9,20.8,11c1.4-0.2,1.4-2.4,0-2.3c-7.8,0.9-15.2-2.9-18.9-9.9
			C823.9,405.2,821.9,406.4,822.6,407.6L822.6,407.6z"/>
	</g>
</g>
<g>
	<g>
		<path d="M750.4,411.5c-0.6,9.2-0.8,18.3-0.5,27.5c0,1.4,2.3,1.5,2.3,0c-0.3-9.2-0.1-18.3,0.5-27.5
			C752.8,410.1,750.5,410.1,750.4,411.5L750.4,411.5z"/>
	</g>
</g>
<g>
	<g>
		<path d="M742,420.6c-1.8-2.4-5.1-2.5-7-0.1c-2,2.5-1.2,6.4,1.5,8c2.6,1.5,6.3,0.7,7.2-2.4c0.8-2.7,0.5-7.1-3.1-7.3
			c-1.4-0.1-1.4,2.1,0,2.3c2,0.2,1.6,8.3-3,5.6c-1.4-0.8-2-2.7-1.2-4.2c0.7-1.3,2.6-2,3.6-0.6C740.9,422.9,742.9,421.8,742,420.6
			L742,420.6z"/>
	</g>
</g>
<g>
	<g>
		<path d="M665,444.4c3.9-18.4,1.2-38.2-0.9-56.8c-0.2-1.9-3.2-1.9-3,0c2,18.2,4.8,37.9,1,56C661.7,445.5,664.6,446.3,665,444.4
			L665,444.4z"/>
	</g>
</g>
<g>
	<g>
		<path d="M849.2,424.5c-0.1,5.4,0.4,10.7,1.6,15.9c0.4,1.9,3.3,1.1,2.9-0.8c-1.1-5-1.6-10-1.5-15.1
			C852.3,422.6,849.3,422.6,849.2,424.5L849.2,424.5z"/>
	</g>
</g>
<g>
	<g>
		<path d="M737.2,224.9c1.1-6.1,2.6-13.2,5.9-18.5c4.1-6.6,9.2,0.9,14.2,1.3c5,0.4,9.9-6.2,14.6-2.3c2.1,1.7,3.2,5.2,4.3,7.5
			c1.7,3.8,3,7.7,4.2,11.6c0.6,1.8,3.4,1.1,2.9-0.8c-1.9-6.5-4.4-17.1-10.3-21.3c-6.2-4.5-11.2,3.9-17.3,1.7
			c-4.8-1.7-8.8-6.3-13.6-1.5c-5.1,5-6.7,14.9-7.9,21.6C734,225.9,736.9,226.8,737.2,224.9L737.2,224.9z"/>
	</g>
</g>
<g>
	<g>
		<path d="M726.8,234.8c9.3-8.5,21.4-13.6,34.1-14c6-0.2,12.2,0.5,17.7,3.1c6.3,2.9,16.4,13.6,7.2,19.4c-1.6,1-0.1,3.6,1.5,2.6
			c6.1-3.8,6-11.3,2.3-16.8c-4.2-6.3-11.7-9.4-19-10.6c-16.6-2.7-33.6,3-45.9,14.2C723.3,234,725.4,236.1,726.8,234.8L726.8,234.8z"
			/>
	</g>
</g>
<g>
	<g>
		<path d="M727.1,230.9c-3,0.9-4.5,4-3.9,7c0.7,3.7,4.3,5.7,7.5,7c1.8,0.7,2.6-2.2,0.8-2.9c-1.9-0.8-4.1-1.8-5-3.8
			c-0.7-1.6-0.4-3.9,1.5-4.4C729.8,233.2,729,230.3,727.1,230.9L727.1,230.9z"/>
	</g>
</g>
<path class="st6" d="M673.5,371.5"/>
<path class="st6" d="M704.5,296.5"/>
<path class="st7" d="M662.5,391.4"/>
<g>
	<g>
		<path d="M1030.9,298.6c-19.7,13-28.6,36.2-35.2,57.8c-8.1,26.6-12.2,54.2-12.2,82c0,1.9,3,1.9,3,0c0.1-26.3,3.7-52.4,11-77.6
			c6.4-21.9,14.9-46.4,34.9-59.6C1034,300.2,1032.5,297.6,1030.9,298.6L1030.9,298.6z"/>
	</g>
</g>
<g>
	<g>
		<path d="M1033.7,300.6c-5.3-13.3-13-25.7-16.7-39.5c-1.8-6.5-2.8-14,0.7-20.1c3.4-5.8,9.9-9.1,16.5-9.4
			c11.8-0.5,23.6,6.7,32.2,14.1c10.5,8.9,18,20.8,22.1,33.9c0.6,1.8,3.5,1.1,2.9-0.8c-4.6-14.4-13-27.4-24.9-36.9
			c-9.5-7.6-22.2-14.8-34.8-13.1c-13,1.7-20.5,12.9-19.1,25.6c1.9,16.8,12.1,31.6,18.2,47C1031.5,303.1,1034.4,302.4,1033.7,300.6
			L1033.7,300.6z"/>
	</g>
</g>
<g>
	<g>
		<path d="M1088.4,279.7c25.6,49.9,37.3,106.2,33.8,162.2c-0.1,1.9,2.9,1.9,3,0c3.5-56.5-8.4-113.3-34.2-163.7
			C1090.1,276.5,1087.6,278,1088.4,279.7L1088.4,279.7z"/>
	</g>
</g>
<g>
	<g>
		<path d="M1014.6,250c11.1-1.3,20.7-7.5,26.3-17.2c0.5-0.8-0.8-1.6-1.3-0.8c-5.3,9.2-14.4,15.2-25,16.5
			C1013.6,248.6,1013.6,250.1,1014.6,250L1014.6,250z"/>
	</g>
</g>
<g>
	<g>
		<path d="M1014.5,255.9c13.8-2.2,28-8.7,32.5-23c0.3-0.9-1.2-1.3-1.4-0.4c-4.4,13.8-18.2,19.8-31.5,21.9
			C1013.2,254.6,1013.6,256.1,1014.5,255.9L1014.5,255.9z"/>
	</g>
</g>
<g>
	<g>
		<path d="M1086.7,292.4c-8.4,17.6-29.8,23.5-46.1,12.8c-0.8-0.5-1.6,0.8-0.8,1.3c16.9,11.1,39.4,4.9,48.1-13.3
			C1088.4,292.2,1087.1,291.5,1086.7,292.4L1086.7,292.4z"/>
	</g>
</g>
<g>
	<g>
		<path d="M1027.8,274c3,0.7,4.9,5.6,8.7,4.3c1.1-0.4,1.7-1.4,1.9-2.5c0.3-2.3,0-4.9,0-7.3c0-1-1.5-1-1.5,0c0,1.6,0,3.2,0.1,4.8
			c0,1.8,0.1,4.4-2.6,3.5c-2.4-0.8-3.4-3.5-6.1-4.2C1027.3,272.3,1026.9,273.8,1027.8,274L1027.8,274z"/>
	</g>
</g>
<g>
	<g>
		<path d="M1198.2,251.1c2.6-7,4.4-14.2,5.4-21.6c0.1-0.9-1.3-1.4-1.4-0.4c-1,7.4-2.9,14.6-5.4,21.6
			C1196.4,251.6,1197.8,252,1198.2,251.1L1198.2,251.1z"/>
	</g>
</g>
<g>
	<g>
		<path d="M1085.2,334.2c22.8,4.8,44.7-9.4,62.8-21.8c18.4-12.6,34.5-28.6,44.5-48.8c0.4-0.9-0.9-1.6-1.3-0.8
			c-9.6,19.5-25,35-42.7,47.3c-8.3,5.8-17.1,10.9-26.1,15.6c-11.6,6-23.7,9.7-36.8,6.9C1084.7,332.6,1084.3,334,1085.2,334.2
			L1085.2,334.2z"/>
	</g>
</g>
<g>
	<g>
		<path d="M1172.6,234.6c6.5,10.9,13,21.8,20.5,32.1c2.1,2.9,12.7,20,17.2,15.2c1.5-1.6,0.9-5.2,0.6-7.1c-0.8-4.5-3.2-7.7-5.6-11.4
			c-7.9-11.7-15.1-23.8-22.7-35.7c-0.5-0.8-1.8-0.1-1.3,0.8c5.5,8.7,11.1,17.4,16.6,26.2c2.6,4,5.1,8,7.8,12c1.9,2.8,4.9,7.5,4,11.1
			c-1.6,6.7-10.2-5.1-11.7-7c-3.2-4.1-6.3-8.4-9.2-12.8c-5.3-7.9-10.1-16-15-24.1C1173.5,233,1172.2,233.7,1172.6,234.6
			L1172.6,234.6z"/>
	</g>
</g>
<ellipse class="st5" cx="1155.9" cy="201.9" rx="36.5" ry="36.9"/>
<ellipse class="st5" cx="1156.1" cy="202.1" rx="31.5" ry="31.9"/>
<g>
	<g>
		<path d="M1054.4,399.7c-8.5,0.9-17.1,1.5-25.7,1.7c-7.4,0.1-15.4-1.2-22.7-0.2c-5,0.7-7.8,4-8.7,8.8c-1.2,6.3-1,13.9-0.7,20.2
			c0.3,5.2,3.8,6.2,8.6,6.9c7.6,1.2,15.6,1,23.3,1.2c7.8,0.1,16.1,0.7,23.8-0.3c4.2-0.6,7.3-2.5,8.2-6.8c0.7-3.6,0.4-7.6,0.5-11.2
			c0.1-4.1,0.4-8.4,0.2-12.5c-0.2-3.8-2.3-8.4-6.9-6.6c-0.9,0.3-0.5,1.8,0.4,1.4c6.2-2.4,4.9,11,4.8,13.1c-0.1,3.1-0.1,6.1-0.2,9.2
			c-0.1,4.5-0.1,10.1-5.4,11.6c-2.8,0.8-6,0.6-8.9,0.7c-6.8,0.1-13.7,0.1-20.6-0.1c-6.7-0.2-15.5,0.8-21.8-1.6
			c-6.9-2.6-4.8-13.2-4.6-19.3c0.1-3.4,0.1-7.3,2.4-10.2c2.8-3.5,7.1-3.1,11.2-3c14.2,0.5,28.4,0,42.5-1.5
			C1055.4,401.1,1055.4,399.6,1054.4,399.7L1054.4,399.7z"/>
	</g>
</g>
<g>
	<g>
		<path d="M1002,406.8c6.9,5,14.3,9.4,22,13c0.9,0.4,1.6-0.9,0.8-1.3c-7.8-3.6-15.1-8-22-13C1002,404.9,1001.3,406.2,1002,406.8
			L1002,406.8z"/>
	</g>
</g>
<g>
	<g>
		<path d="M1025.7,420.8c9.9-3,19.2-7.3,27.9-12.9c0.8-0.5,0.1-1.8-0.8-1.3c-8.6,5.5-17.8,9.7-27.5,12.7
			C1024.4,419.7,1024.8,421.1,1025.7,420.8L1025.7,420.8z"/>
	</g>
</g>
<g>
	<g>
		<path d="M1052.5,412c-0.5,6-0.8,12-0.8,18c0,1,1.5,1,1.5,0c0-6,0.3-12,0.8-18C1054.1,411,1052.6,411,1052.5,412L1052.5,412z"/>
	</g>
</g>
<g>
	<g>
		<path d="M1062,412.4c19.7-0.2,39.3-0.3,59-0.5c1,0,1-1.5,0-1.5c-19.7,0.2-39.3,0.3-59,0.5C1061,410.9,1061,412.4,1062,412.4
			L1062,412.4z"/>
	</g>
</g>
<g>
	<g>
		<path d="M1062.5,425.9c18.8-0.2,37.7-0.3,56.5-0.5c1,0,1-1.5,0-1.5c-18.8,0.2-37.7,0.3-56.5,0.5
			C1061.5,424.4,1061.5,425.9,1062.5,425.9L1062.5,425.9z"/>
	</g>
</g>
<g>
	<g>
		<path d="M995.7,414.2c-2.4-0.5-4.8-0.6-7.2-0.4c-1,0.1-1,1.6,0,1.5c2.3-0.2,4.6-0.1,6.8,0.3C996.3,415.8,996.7,414.4,995.7,414.2
			L995.7,414.2z"/>
	</g>
</g>
<g>
	<g>
		<path d="M996.5,424.2c-3.3,0.4-6.6,0.2-9.8-0.8c-0.9-0.3-1.3,1.2-0.4,1.4c3.4,1,6.8,1.3,10.2,0.8
			C997.4,425.6,997.4,424.1,996.5,424.2L996.5,424.2z"/>
	</g>
</g>
<g>
	<g>
		<path d="M1007.8,328.5c-36.2-18.3-78.2-23.3-117.7-13.9c-0.9,0.2-0.5,1.7,0.4,1.4c39.1-9.3,80.6-4.3,116.5,13.8
			C1007.9,330.3,1008.7,329,1007.8,328.5L1007.8,328.5z"/>
	</g>
</g>
<g>
	<g>
		<path d="M1089.6,312.8c-11.4,18.3-4.4,39.8,5.8,56.9c0.5,0.8,1.8,0.1,1.3-0.8c-10-16.6-17-37.5-5.8-55.4
			C1091.4,312.7,1090.1,312,1089.6,312.8L1089.6,312.8z"/>
	</g>
</g>
<g>
	<g>
		<path d="M516.6,232.1c8.2-5.4,18.5-12.6,29-10c9.4,2.4,13.3,12.1,12.6,21.1c-0.1,1.9,2.9,1.9,3,0c0.7-9.1-3-19.3-11.9-23
			c-12-5-24.4,2.9-34.1,9.3C513.4,230.6,514.9,233.2,516.6,232.1L516.6,232.1z"/>
	</g>
</g>
<g>
	<g>
		<path d="M409.5,425.9c10.9-52.1,28-104.2,59.8-147.5c9.2-12.6,19.7-24.2,31.2-34.7c1.4-1.3-0.7-3.4-2.1-2.1
			c-40.4,36.8-65.1,86.8-80.5,138.5c-4.4,14.8-8.1,29.9-11.3,45C406.3,427,409.2,427.8,409.5,425.9L409.5,425.9z"/>
	</g>
</g>
<g>
	<g>
		<path d="M558.2,242.2c-3.3,18.4-10.2,35.8-20.7,51.3c-1.1,1.6,1.5,3.1,2.6,1.5c10.6-15.7,17.6-33.4,21-52.1
			C561.4,241.1,558.5,240.3,558.2,242.2L558.2,242.2z"/>
	</g>
</g>
<g>
	<g>
		<path d="M471.7,277.7c0.9,10.7,2,21.5,3.5,32.1c0.8,5.7,1.7,11.5,2.7,17.2c0.4,2.2,0.3,7.3,3.3,7.8c1,0.2,2.1-0.6,3-1.1
			c2.6-1.3,5.1-3,7.6-4.5c5-3,10.1-6,15.1-9c10.1-6,20.1-12.1,30.1-18.3c1.6-1,0.1-3.6-1.5-2.6c-16.4,10-32.9,20-49.4,29.8
			c-0.8,0.5-1.7,1-2.5,1.5c-1.8,0.9-2.6,0.4-2.3-1.6c-1-1.9-1-5.5-1.3-7.6c-0.7-4.5-1.4-8.9-2-13.4c-1.4-10.1-2.5-20.2-3.3-30.4
			C474.5,275.8,471.5,275.8,471.7,277.7L471.7,277.7z"/>
	</g>
</g>
<g>
	<g>
		<path d="M544.7,309.4c-16.8,14.3-17,35.5-12.4,55.5c2.7,11.7,6.1,23.2,6.4,35.3c0.2,12.8-2.6,25.5-8.2,37
			c-0.8,1.7,1.7,3.3,2.6,1.5c9.7-20.1,10.1-41.1,5.1-62.5c-2.7-11.2-6-22.6-5.7-34.3c0.4-11.9,5.4-22.8,14.4-30.5
			C548.3,310.3,546.2,308.2,544.7,309.4L544.7,309.4z"/>
	</g>
</g>
<g>
	<g>
		<path d="M536.1,301.3c5.2,2.2,10.8,3.2,16,5.2c5.9,2.2,10.6,6.2,14.1,11.4c6.8,10.2,8,22.9,7.5,34.9c-0.8,22.4-9.6,48.3-32.6,56.6
			c-1.4,0.5-0.8,2.7,0.6,2.2c24-8.6,33.4-35.2,34.3-58.7c0.5-12.5-0.9-26.1-8.3-36.6c-3-4.3-6.9-8-11.7-10.4c-6.1-3-13.1-4-19.4-6.6
			C535.3,298.6,534.8,300.8,536.1,301.3L536.1,301.3z"/>
	</g>
</g>
<g>
	<g>
		<path d="M534.8,337.3c10.9,9.1,16.7,26.3,6.5,38.2c-0.9,1.1,0.6,2.7,1.6,1.6c10.9-12.7,5.5-31.4-6.5-41.3
			C535.3,334.8,533.7,336.4,534.8,337.3L534.8,337.3z"/>
	</g>
</g>
<g>
	<g>
		<path d="M478.8,281c3.9,13.8,15.6,20.2,29.4,19c1-0.1,1-1.6,0-1.5c-13.1,1.1-24.3-4.7-27.9-17.9C480,279.6,478.6,280,478.8,281
			L478.8,281z"/>
	</g>
</g>
<g>
	<g>
		<path d="M503.5,259.9c-0.6,3.5-0.9,8.4,3.3,9.7c3.2,1,8.2,0.2,9.3-3.4c0.3-0.9-1.2-1.3-1.4-0.4c-0.8,2.8-5.1,3.2-7.4,2.4
			c-3.2-1.1-2.7-5.2-2.3-7.9C505.1,259.3,503.7,258.9,503.5,259.9L503.5,259.9z"/>
	</g>
</g>
<g>
	<g>
		<path d="M415.3,397.3c37,22,83,26.4,123.6,12c0.9-0.3,0.5-1.8-0.4-1.4c-40.2,14.3-85.7,9.9-122.4-11.8
			C415.2,395.5,414.5,396.8,415.3,397.3L415.3,397.3z"/>
	</g>
</g>
<g>
	<g>
		<path d="M418.3,387.8c37.7,17.4,80.8,26.6,120.9,12.1c0.9-0.3,0.5-1.8-0.4-1.4c-39.8,14.4-82.5,5.3-119.8-11.9
			C418.2,386.1,417.4,387.4,418.3,387.8L418.3,387.8z"/>
	</g>
</g>
<g>
	<g>
		<path d="M425.4,391.8c-0.4,2.3-0.8,4.7-1.1,7c-0.2,0.9,1.3,1.4,1.4,0.4c0.4-2.3,0.8-4.7,1.1-7C427,391.3,425.6,390.9,425.4,391.8
			L425.4,391.8z"/>
	</g>
</g>
<g>
	<g>
		<path d="M436.3,396.1c-1.2,2.3-2.1,4.7-2.5,7.2c-0.2,0.9,1.3,1.4,1.4,0.4c0.4-2.4,1.2-4.7,2.4-6.9
			C438,396,436.7,395.2,436.3,396.1L436.3,396.1z"/>
	</g>
</g>
<g>
	<g>
		<path d="M446.3,399c0,3.2,0,6.3,0,9.5c0,1,1.5,1,1.5,0c0-3.2,0-6.3,0-9.5C447.8,398,446.3,398,446.3,399L446.3,399z"/>
	</g>
</g>
<g>
	<g>
		<path d="M460.3,403.5c0,3.2,0,6.3,0,9.5c0,1,1.5,1,1.5,0c0-3.2,0-6.3,0-9.5C461.8,402.5,460.3,402.5,460.3,403.5L460.3,403.5z"/>
	</g>
</g>
<g>
	<g>
		<path d="M472.3,406c-0.2,2.9,0,5.8,0.6,8.7c0.2,0.9,1.6,0.5,1.4-0.4c-0.5-2.7-0.7-5.5-0.5-8.3C473.8,405,472.3,405,472.3,406
			L472.3,406z"/>
	</g>
</g>
<g>
	<g>
		<path d="M485.4,407.5c-0.1,2.8,0.3,5.6,1.2,8.3c0.3,0.9,1.7,0.5,1.4-0.4c-0.8-2.6-1.2-5.2-1.2-7.9
			C486.9,406.5,485.4,406.5,485.4,407.5L485.4,407.5z"/>
	</g>
</g>
<g>
	<g>
		<path d="M497.8,407.7c0.8,2.2,1.1,4.5,1,6.8c-0.1,1,1.4,1,1.5,0c0.1-2.5-0.2-4.9-1-7.2C498.9,406.4,497.4,406.8,497.8,407.7
			L497.8,407.7z"/>
	</g>
</g>
<g>
	<g>
		<path d="M506.7,407c0.3,2.3,0.6,4.7,0.9,7c0.1,0.9,1.6,1,1.5,0c-0.3-2.3-0.6-4.7-0.9-7C508.1,406.1,506.6,406,506.7,407L506.7,407
			z"/>
	</g>
</g>
<g>
	<g>
		<path d="M515.3,406c0,2.2,0,4.3,0,6.5c0,1,1.5,1,1.5,0c0-2.2,0-4.3,0-6.5C516.8,405,515.3,405,515.3,406L515.3,406z"/>
	</g>
</g>
<g>
	<g>
		<path d="M524.8,404c0,2.7,0,5.3,0,8c0,1,1.5,1,1.5,0c0-2.7,0-5.3,0-8C526.3,403,524.8,403,524.8,404L524.8,404z"/>
	</g>
</g>
<g>
	<g>
		<path d="M532.1,401.8c-0.5,2.4-0.6,4.8-0.3,7.2c0.1,1,1.6,1,1.5,0c-0.2-2.3-0.2-4.6,0.3-6.8C533.8,401.2,532.3,400.8,532.1,401.8
			L532.1,401.8z"/>
	</g>
</g>
<g>
	<g>
		<path d="M512.7,227.4c-5.4-1.8-12.3-2-16,3.1c-3.3,4.6-1.6,10,3.2,12.6c4.7,2.5,10.9,3.3,14.6-1.4c3.6-4.6,2-10.8-2.2-14.4
			c-0.7-0.6-1.8,0.4-1.1,1.1c3.3,2.9,5.1,7.6,2.7,11.7c-2.9,4.8-8.8,4.1-13.2,1.8c-4.8-2.6-5.6-8.3-1.4-11.9c3.7-3.1,8.8-2.4,13-1.1
			C513.2,229.1,513.6,227.7,512.7,227.4L512.7,227.4z"/>
	</g>
</g>
<g>
	<g>
		<path d="M530.2,239.4c-5.9-1.3-10.7-6-15.7,0.1c-3.2,3.9-5.2,9.9-0.5,13.4c4.3,3.2,10.7,4.4,15,0.7c4.7-3.9,4.3-10.7,0.1-14.7
			c-0.7-0.7-1.8,0.4-1.1,1.1c4.2,4.1,3.7,10.9-1.8,13.6c-3.7,1.8-9.3,0.4-12.2-2.5c-3.4-3.3,0.1-10.5,3.7-12.6
			c3.9-2.3,8.2,1.5,12,2.3C530.7,241.1,531.1,239.6,530.2,239.4L530.2,239.4z"/>
	</g>
</g>
<g>
	<g>
		<path d="M530.5,251.3c11.7,0,23.3,0.4,35,1.1c1,0.1,1-1.4,0-1.5c-11.7-0.7-23.3-1-35-1.1C529.5,249.8,529.5,251.3,530.5,251.3
			L530.5,251.3z"/>
	</g>
</g>
<g>
	<g>
		<path d="M462.7,282.2c-28.2,15.5-62.4-3.2-76.2-29.3c-0.7-1.3-2.6-0.1-1.9,1.1c14.4,27.3,50,46.2,79.3,30.1
			C465.1,283.5,463.9,281.5,462.7,282.2L462.7,282.2z"/>
	</g>
</g>
<g>
	<g>
		<path d="M385.1,253.2c-4.2,3.6-8.3,7.4-10.9,12.4c-2.5,4.8-2.3,7.5-0.9,12.5c2.7,9.7,6.8,19.2,12.4,27.6
			c10.7,16.3,27.4,28.2,47.7,25.7c1.4-0.2,1.4-2.4,0-2.3c-19.2,2.4-35-8.6-45.4-24c-4.8-7.2-8.6-15.2-11.3-23.5
			c-1.5-4.6-3.3-9-1.2-13.7c2.4-5.4,6.7-9.4,11.1-13.2C387.8,253.9,386.2,252.3,385.1,253.2L385.1,253.2z"/>
	</g>
</g>
<g>
	<g>
		<path d="M377.7,260.8c-1.2-3.4-2.6-6.7-4.4-9.9c-0.9-1.6-2-4.5-4-5.1c-2.2-0.7-5.2,0.7-7.4,0.7c-6.8-0.1-9.2-4.6-9.7-10.9
			c-0.1-1-1.6-1-1.5,0c0.5,5.8,2.1,10.9,8.4,12.1c2.9,0.6,5.6-0.7,8.4-0.4c4.8,0.5,7.5,10.2,8.8,13.9
			C376.6,262.1,378.1,261.7,377.7,260.8L377.7,260.8z"/>
	</g>
</g>
<g>
	<g>
		<path d="M280,166c7.2,17.2,14.4,34.4,21.5,51.5c3.1,7.4,5.6,15.8,9.7,22.7c2.7,4.5,6.6,6.3,11.7,5.6c7.8-1.1,15.7-4.8,23-7.6
			c7.6-2.9,15-6.1,22.4-9.6c5.1-2.4,11.1-5,13.7-10.4c2-4.1,1.4-9.1-2.1-12.1c-0.7-0.6-1.8,0.4-1.1,1.1c7.3,6.1-0.3,14.4-6.1,17.6
			c-5.9,3.3-12.3,5.9-18.5,8.5c-5.7,2.4-11.5,4.6-17.3,6.7c-5.9,2.1-15.9,7.3-21.6,2.7c-5.1-4.2-7.1-13.1-9.5-19
			c-2.7-6.4-5.4-12.9-8.1-19.3c-5.4-12.9-10.8-25.8-16.1-38.6C281,164.7,279.6,165.1,280,166L280,166z"/>
	</g>
</g>
<g>
	<g>
		<path d="M282.6,168.1c0-0.9,0-1.8-0.1-2.7c0-1-1.5-1-1.5,0c0,0.9,0,1.8,0.1,2.7C281.1,169.1,282.6,169.1,282.6,168.1L282.6,168.1z
			"/>
	</g>
</g>
<g>
	<g>
		<path d="M282,167.2c-4.1-8.7,9.8-12.7,15.2-14.9c5.7-2.4,11.4-4.8,17.1-7.2c10.4-4.3,27.5-15.2,36-2.6c2.8,4.2,4.6,9.3,6.6,13.9
			c2.5,5.7,5,11.4,7.5,17.1c5.2,11.7,10.3,23.4,15.5,35.2c0.4,0.9,1.7,0.1,1.3-0.8c-6.6-15-13.2-30.1-19.8-45.1
			c-3-6.8-5.5-14.2-9.4-20.4c-2.5-4-6-6.9-10.8-7.4c-6.4-0.7-12.6,2.5-18.3,4.9c-7.8,3.3-15.6,6.5-23.4,9.8
			c-6.9,2.9-23.9,7.4-18.8,18.3C281.1,168.9,282.4,168.1,282,167.2L282,167.2z"/>
	</g>
</g>
<g>
	<g>
		<path d="M314.7,159.2c7.3-3,14.7-6,22-9c0.9-0.4,0.5-1.8-0.4-1.4c-7.3,3-14.7,6-22,9C313.4,158.1,313.8,159.6,314.7,159.2
			L314.7,159.2z"/>
	</g>
</g>
<g>
	<g>
		<path d="M319.7,170.5c3.5-0.6,6.4-2.4,9.5-4.1c4-2.3,8-4.6,12.1-6.9c0.8-0.5,0.1-1.8-0.8-1.3c-3.6,2-7.1,4-10.7,6.1
			c-3.4,1.9-6.6,4.2-10.5,4.8C318.4,169.2,318.8,170.6,319.7,170.5L319.7,170.5z"/>
	</g>
</g>
<g>
	<g>
		<path d="M303.7,193.2c8.6-2.5,17.6-4.6,26-7.9c7.4-2.8,13.6-7.7,20.7-11.1c0.9-0.4,0.1-1.7-0.8-1.3c-7.5,3.5-14,8.7-22,11.5
			c-8,2.8-16.3,4.9-24.4,7.3C302.4,192.1,302.8,193.5,303.7,193.2L303.7,193.2z"/>
	</g>
</g>
<g>
	<g>
		<path d="M308.8,206c15.5-5.3,31-10.7,46.5-16c0.9-0.3,0.5-1.8-0.4-1.4c-15.5,5.3-31,10.7-46.5,16
			C307.5,204.8,307.9,206.3,308.8,206L308.8,206z"/>
	</g>
</g>
<g>
	<g>
		<path d="M319.6,221.4c15.2-4.5,30.4-9.1,45.6-13.6c0.9-0.3,0.5-1.7-0.4-1.4c-15.2,4.5-30.4,9.1-45.6,13.6
			C318.3,220.2,318.7,221.7,319.6,221.4L319.6,221.4z"/>
	</g>
</g>
<g>
	<g>
		<path d="M330.1,234.4c13-3.8,25.6-8.7,37.8-14.6c0.9-0.4,0.1-1.7-0.8-1.3c-12.1,5.8-24.6,10.7-37.5,14.5
			C328.8,233.2,329.2,234.7,330.1,234.4L330.1,234.4z"/>
	</g>
</g>
</svg>
