<?xml version="1.0" encoding="utf-8"?>
<!-- Generator: Adobe Illustrator 21.0.0, SVG Export Plug-In . SVG Version: 6.00 Build 0)  -->
<svg version="1.1" id="Слой_1" xmlns="http://www.w3.org/2000/svg" xmlns:xlink="http://www.w3.org/1999/xlink" x="0px" y="0px"
	 viewBox="0 0 25 8.3" style="enable-background:new 0 0 25 8.3;" xml:space="preserve">
<style type="text/css">
	.st0{fill:#117AF1;}
	.st1{fill:#FE0000;}
	.st2{fill:#FE0101;}
	.st3{fill:#1A7EF2;}
	.st4{fill:#2786F2;}
	.st5{fill:#177DF1;}
	.st6{fill:#D4E6FC;}
	.st7{fill:#FEFDFD;}
	.st8{fill:#F0F6FD;}
	.st9{fill:#F7FAFE;}
</style>
<g>
	<path class="st0" d="M1.4,4.4c0.5,0.4,0.9,0.9,1.5,1.3c1.6,1,3.3,1.2,5.1,1.1c1.5-0.1,2.9-0.6,4.4-0.9c2.9-0.6,5.8-0.3,8.3,1.4
		c0.2,0.1,0.5,0.3,0.6,0.5c0,0-0.1,0.1-0.1,0c-2.9-1.4-5.8-1.4-8.8-0.6C10.7,7.6,9,8,7.3,7.9C5.6,7.8,4,7.3,2.7,6.2
		C2.1,5.7,1.7,5.1,1.4,4.4z"/>
	<path class="st1" d="M11,4c0,1.3-1,2.1-2.7,2.1C7.5,6.1,6.6,5,6.6,4c0-1.2,1-2.2,2.3-2.2C10,1.8,11,2.8,11,4z"/>
	<path class="st1" d="M14.1,5c0.6-0.7,0.7-1.4,0.1-1.8c-0.5-0.4-1.2-0.4-1.6,0.1c-0.4,0.6-0.3,1.2,0.4,1.8c-0.3,0.1-0.5,0.1-0.8,0.1
		c-0.6,0.1-0.7,0.1-0.9-0.5c-0.3-0.9,0-1.9,0.8-2.4c0.7-0.5,1.8-0.6,2.5,0c0.8,0.6,1.1,1.5,0.9,2.4C15.6,4.8,15.5,5,15.2,5
		C14.9,4.9,14.5,5,14.1,5z"/>
	<path class="st2" d="M5.4,1.8c0.2,0,0.3,0,0.4,0c0.2,0,0.4-0.1,0.5,0.1c0.1,0.2,0,0.4-0.2,0.6C5.9,2.9,5.4,2.8,5,2.9
		C4.4,2.9,3.9,3.4,3.9,4c0,0.6,0.5,1,1,1.1c0.2,0,0.4,0,0.6,0c0.4,0,0.7,0.3,0.8,0.7C6.4,6,6.4,6.1,6,6.1C5.4,6,4.8,5.9,4.1,5.7
		c-1.4-0.5-1.8-2-0.8-3.1C3.9,1.9,4.7,1.7,5.4,1.8z"/>
	<path class="st2" d="M19.7,6c-1-0.5-2-0.8-3.1-0.9c-0.2,0-0.3-0.1-0.3-0.3c-0.1-0.3-0.2-0.5-0.2-0.8c0-1,0-1.9,0-2.9
		c0-0.3,0.1-0.4,0.3-0.3c0.5,0.1,0.8,0.5,0.8,1c0,0.7,0,1.3,0,2c0,0.9,0.4,1.3,1.3,1.3C19.2,5.1,19.5,5.3,19.7,6z"/>
	<path class="st3" d="M20.5,3.9c0.2-0.3,0.5-0.4,0.8-0.3c0.1,0.1,0.2,0,0.3,0c0.2-0.1,0.5-0.1,0.6,0.1c0.2,0.2,0.1,0.5,0.1,0.7
		c0,0,0,0.1-0.1,0.1c-0.1,0-0.1,0-0.2-0.1c0-0.1,0-0.1-0.1-0.2c0-0.2,0-0.5-0.3-0.5c-0.3,0-0.2,0.3-0.2,0.5c0,0.1,0.1,0.3-0.1,0.3
		c-0.1,0-0.2-0.1-0.2-0.3c0-0.1,0-0.2,0-0.3c0-0.1-0.1-0.2-0.2-0.1c-0.1,0-0.2,0.1-0.2,0.2c0,0.1,0,0.2,0,0.3c0,0.1-0.1,0.2-0.2,0.2
		c-0.1,0-0.1-0.1-0.1-0.2c0-0.1,0.1-0.2-0.1-0.3c0,0,0-0.1,0-0.1C20.4,3.9,20.5,3.9,20.5,3.9z"/>
	<path class="st4" d="M20,4.1c-0.2,0-0.1,0.4-0.3,0.4c0,0-0.1-0.1-0.1-0.1c0-0.3-0.1-0.5,0.1-0.8c0.1-0.1,0.3-0.2,0.5-0.2
		c0.1,0,0.2,0,0.2,0.1c0,0.1-0.1,0.1-0.2,0.2c-0.1,0.1-0.1,0.1-0.1,0.2C20.1,4,20.1,4.1,20,4.1z"/>
	<path class="st5" d="M20,4.1c0,0,0-0.1,0-0.1c0.1-0.2,0.3-0.1,0.4,0c0,0,0,0,0,0.1C20.3,4.2,20.2,4.2,20,4.1z"/>
	<path class="st6" d="M20.4,4c-0.1-0.1-0.3,0-0.4,0c-0.1-0.3,0.1-0.2,0.2-0.2c0.1,0.1,0.2,0.1,0.3,0.1C20.5,3.9,20.4,3.9,20.4,4z"/>
	<path class="st7" d="M8.8,5.1C8.2,5.1,7.7,4.6,7.7,4c0-0.6,0.5-1.1,1.1-1.1c0.6,0,1.1,0.5,1.1,1.1C9.9,4.5,9.4,5.1,8.8,5.1z"/>
	<path class="st8" d="M20.5,2.4c-0.2,0-0.2-0.1-0.2-0.3c0-0.2,0.1-0.3,0.3-0.3c0.2,0,0.2,0.1,0.2,0.3C20.8,2.3,20.7,2.4,20.5,2.4z"
		/>
	<path class="st9" d="M16.1,7.4c0.2,0,0.2,0.1,0.2,0.3c0,0.1-0.1,0.2-0.2,0.2c-0.1,0-0.2-0.1-0.2-0.2C15.9,7.4,16,7.4,16.1,7.4z"/>
</g>
</svg>
